<svg width="65" height="56" viewBox="0 0 65 56" fill="none" xmlns="http://www.w3.org/2000/svg">
<g id="13">
<g id="scribble final version-19">
<path id="Path" d="M49.4109 39.4055C48.1061 40.0519 46.843 40.7794 45.6291 41.5838C45.198 41.8939 44.8047 42.2343 44.3887 42.552C42.895 43.6291 41.5739 44.9272 40.4708 46.4018C40.0229 47.0677 39.6596 47.7867 39.3892 48.5423C39.185 49.0188 39.1093 49.5256 38.9051 50.0021C38.8219 50.2517 38.7311 50.4937 38.6404 50.7584C38.5496 51.0232 38.4816 51.2652 38.3832 51.5148C38.2849 51.7644 38.0429 51.772 37.7933 51.4543C37.4438 50.9847 37.2578 50.4135 37.2638 49.8281C37.2822 49.2202 37.4103 48.6206 37.642 48.0582L37.9748 47.2187L38.3832 46.4094C38.963 45.3666 39.6946 44.4158 40.554 43.5882C41.5599 42.6049 42.5281 41.546 43.6323 40.6611C44.8424 39.7156 46.1051 38.8393 47.4141 38.0365C48.1705 37.5373 49.0176 37.0759 49.8269 36.607C51.0371 35.8506 52.3078 35.2834 53.4801 34.5497C54.3488 33.97 55.18 33.3359 55.9685 32.6512L56.4375 32.2125C57.035 31.7058 57.1938 31.6755 57.8141 31.91C57.9502 31.9629 58.0939 32.0008 58.2225 32.0613C58.4386 32.1491 58.5815 32.3574 58.5855 32.5907C58.5896 32.9164 58.4829 33.2337 58.283 33.4908C57.6408 34.3532 56.8764 35.1176 56.0139 35.7599C55.1753 36.3464 54.3068 36.8892 53.4121 37.386C52.1187 38.1424 50.7724 38.7777 49.479 39.4887L49.4109 39.4055Z" fill="#ED8054"/>
<path id="Path_2" d="M56.1425 13.2885C56.0063 13.0994 55.8777 12.9103 55.734 12.7288L55.2727 12.222L54.3121 11.2312L53.2456 10.3084L52.7162 9.83947L52.1413 9.42347L50.9765 8.59148C50.5757 8.33432 50.1521 8.10741 49.7361 7.83512C48.903 7.34355 48.039 6.90647 47.1494 6.52662C43.4929 5.02041 39.6089 4.14082 35.6603 3.92475C32.7646 3.79826 29.864 4.00382 27.0151 4.5374C21.9488 5.42537 17.1144 7.32925 12.8031 10.1344C10.694 11.5169 8.82396 13.2336 7.26661 15.2172C5.74796 17.1666 4.71133 19.4471 4.24118 21.8731C3.84839 23.9772 4.08518 26.1505 4.9219 28.1206C5.76935 30.1792 7.00734 32.0541 8.56754 33.6421C11.6308 36.7834 15.4209 39.1214 19.6028 40.4493C20.2987 40.6535 21.0021 40.8728 21.713 41.0695C22.4307 41.2609 23.1578 41.4149 23.8914 41.5309C25.7217 41.788 25.5327 41.9923 23.8914 42.4234C22.7339 42.6943 21.5541 42.8589 20.3667 42.915C18.6536 42.9273 16.9515 42.6407 15.3369 42.0679C13.7426 41.5133 12.2031 40.8119 10.7383 39.9728C9.98193 39.5568 9.28608 39.0954 8.59023 38.6113C7.90013 38.0928 7.23861 37.5374 6.60858 36.9473C3.93449 34.5998 1.90386 31.6085 0.708984 28.2568C0.104227 26.4569 -0.11734 24.5504 0.0585164 22.6597C0.166478 21.7426 0.343463 20.8349 0.587967 19.9444L0.746802 19.2939L0.981273 18.6586L1.45778 17.403C2.87506 14.1948 5.05325 11.3806 7.80362 9.20413C10.9539 6.66909 14.4608 4.61237 18.2111 3.10032C20.0808 2.34261 21.9955 1.701 23.9443 1.17917L25.457 0.823682L26.9697 0.551393C27.9606 0.347176 28.9741 0.271541 29.9952 0.150523C34.4028 -0.223536 38.8418 0.100646 43.1482 1.1111C45.3032 1.62984 47.405 2.34899 49.426 3.25915C51.4733 4.15749 53.414 5.28133 55.2121 6.60982C57.4223 8.29242 59.3303 10.3385 60.8546 12.6607C62.423 15.0038 63.4559 17.6637 63.88 20.4512C64.2326 22.593 64.1373 24.7847 63.6002 26.8878C63.0098 29.0047 61.9759 30.9719 60.5672 32.6588C57.8291 35.9792 54.2591 38.097 50.9992 40.1694C48.6147 41.594 46.4278 43.3258 44.4946 45.3202C43.6177 46.2614 42.8884 47.3299 42.3314 48.4894C42.2179 48.7768 42.0666 49.0491 41.9759 49.3441L41.8851 49.6315C41.8397 49.76 41.7944 49.8811 41.7565 50.0248C41.6623 50.3163 41.6063 50.6189 41.5901 50.9248L41.5221 51.9157V52.4224V53.0275C41.5221 53.8595 41.5221 54.6764 41.628 55.5311L41.0077 55.6521C40.9556 55.6508 40.9056 55.673 40.8716 55.7126L40.7884 55.7882L40.622 55.9319L40.5388 56C40.5388 56 40.4859 56 40.4253 56L40.2741 55.9546C40.0623 55.8941 39.911 55.8185 39.7295 55.758C39.0254 55.4965 38.353 55.1565 37.7251 54.7444C37.3876 54.4987 37.0667 54.2309 36.7646 53.9427C36.4469 53.6629 36.1519 53.3301 35.8645 53.0502C35.3048 52.4376 34.7905 51.8552 34.3518 51.2955L34.0492 50.9097L33.8677 50.6677L33.5425 50.1987C33.3383 49.9038 33.1719 49.6239 33.0282 49.3667C32.7845 48.9393 32.606 48.4779 32.4987 47.9977C32.4267 47.6052 32.4267 47.2028 32.4987 46.8103C32.5275 46.468 32.5857 46.129 32.6727 45.7967C32.8466 45.3354 33.429 45.4186 34.2383 45.9177C34.7333 46.2236 35.1925 46.5839 35.6073 46.9918C35.8645 47.2262 36.1217 47.491 36.3637 47.7481L36.7797 48.1944L36.999 48.4289L37.0747 48.4969V48.4969C37.3149 48.7175 37.5847 48.9033 37.8764 49.0491C37.9672 49.0491 38.0655 49.1247 38.1411 49.0491C38.2168 48.9734 38.0806 48.7011 38.0655 48.5499C38.0504 48.3986 38.0655 48.3532 38.0655 48.2776V48.1641C38.0655 48.0961 38.0655 48.1641 38.0655 47.9826C38.478 46.7544 39.0529 45.5868 39.7749 44.5109C41.1335 42.534 42.7893 40.7788 44.6836 39.3072C46.4913 37.8398 48.3595 36.6221 50.1219 35.4271C51.8842 34.232 53.5784 33.1202 55.0079 31.8949C56.355 30.8161 57.4822 29.4886 58.3283 27.9845C58.7191 27.2647 59.0285 26.5036 59.2511 25.7154C59.4677 24.916 59.5846 24.0929 59.599 23.2648C59.635 21.5024 59.3453 19.7485 58.7443 18.0913C58.4459 17.2395 58.0554 16.4228 57.5795 15.6559C57.3375 15.2626 57.1257 14.8541 56.8761 14.4684L56.0366 13.3641L56.1425 13.2885Z" fill="#ED8054"/>
<path id="Path_3" d="M36.8932 23.5901C36.996 24.2037 36.9198 24.8339 36.6738 25.4053C36.5802 25.6554 36.4584 25.8939 36.3108 26.1163C36.2276 26.2298 36.1746 26.3357 36.0763 26.4491C35.978 26.5626 35.8569 26.6911 35.7435 26.797C35.5738 26.9732 35.3833 27.1281 35.1762 27.2584C34.97 27.4125 34.7279 27.5114 34.4728 27.5458C33.7581 27.6691 33.0239 27.4972 32.4382 27.0693C32.0061 26.761 31.6365 26.3735 31.3491 25.9272C31.0711 25.5573 30.847 25.1499 30.6835 24.717C30.6317 24.5608 30.5887 24.4017 30.5549 24.2405C30.5549 24.0666 30.5549 23.8851 30.5549 23.7035C30.5777 23.5372 30.6131 23.3729 30.6608 23.2119C30.747 23.0585 30.8723 22.9307 31.0238 22.8413C31.2129 22.7051 31.6365 23.0757 32.0903 23.4312C32.3802 23.6816 32.717 23.8719 33.0811 23.9909C33.1568 23.8926 33.2702 23.8472 33.2929 23.9909C33.3156 24.1346 33.4063 24.3464 33.482 24.5809C33.5051 24.6784 33.5812 24.7545 33.6786 24.7776V24.7776C33.6714 24.8378 33.6714 24.8988 33.6786 24.9591C33.6722 24.9839 33.6722 25.0099 33.6786 25.0347C33.6754 25.0497 33.6754 25.0651 33.6786 25.0801V25.0801L33.6408 25.0347C33.6408 25.0347 33.5652 24.8456 33.5727 24.8456C33.5803 24.8456 33.5727 24.8456 33.5727 24.8456C33.5691 24.8256 33.5691 24.8051 33.5727 24.7851L33.6333 24.7246L33.6711 24.6338C33.6711 24.5733 33.7467 24.5053 33.7391 24.4826C33.7316 24.4599 33.8148 24.3918 33.7921 24.301C33.6325 24.0935 33.3661 23.9988 33.1114 24.059C33.0618 24.0855 33.016 24.1186 32.9752 24.1573C32.9541 24.1961 32.9364 24.2366 32.9223 24.2784V24.2784C32.9123 24.2495 32.8997 24.2216 32.8845 24.1952C32.843 24.1254 32.7921 24.0618 32.7332 24.0061C32.7148 23.9644 32.6862 23.928 32.65 23.9002C32.65 23.9002 32.529 23.8321 32.5592 23.8397C32.5895 23.8472 32.5592 23.8397 32.5592 23.8397H32.6197C32.6838 23.8595 32.7523 23.8595 32.8164 23.8397C32.92 23.8271 33.0216 23.8017 33.1189 23.764H33.066L32.892 23.8472C32.7634 23.9153 32.6122 23.9985 32.4306 24.112C32.2491 24.2254 32.0978 24.3237 31.939 24.4296C31.4096 24.8078 30.812 24.9213 30.3734 24.4296C30.2261 24.1512 30.1288 23.8491 30.0859 23.5371C30.0879 23.1584 30.1623 22.7836 30.3053 22.4328C30.4599 22.1261 30.6615 21.8454 30.9028 21.6008C31.1008 21.4027 31.3247 21.2322 31.5684 21.0941C32.3377 20.6642 33.2456 20.5555 34.0946 20.7915C34.7237 20.9255 35.3105 21.2111 35.804 21.6235C36.3976 22.1252 36.8096 22.8083 36.9764 23.5674L36.8932 23.5901Z" fill="#ED8054"/>
<path id="Path_4" d="M23.5055 25.2465C23.7274 25.9937 23.6874 26.7942 23.392 27.5156C23.0984 28.1962 22.6348 28.7901 22.0457 29.24C21.6704 29.5814 21.227 29.8392 20.7448 29.9964C20.5369 30.0464 20.323 30.0668 20.1094 30.0569C19.8856 30.0602 19.6629 30.0244 19.4514 29.951C18.9831 29.8266 18.5637 29.5629 18.2488 29.1947C17.765 28.6491 17.4383 27.9825 17.3033 27.266C17.1956 26.7079 17.1701 26.1371 17.2277 25.5717C17.2392 24.7955 17.6588 24.0827 18.332 23.6959C18.5513 23.5901 18.7707 23.9304 19.0051 24.3388C19.1262 24.5355 19.2547 24.7473 19.3758 24.9137C19.4731 25.0358 19.5615 25.1647 19.6405 25.2994C19.7318 25.5661 19.8563 25.8202 20.0111 26.0558C20.0111 26.1163 20.0867 26.1692 20.0792 26.2373C20.0751 26.3028 20.0751 26.3685 20.0792 26.434C20.0754 26.4995 20.0754 26.5651 20.0792 26.6306V26.8197C20.07 26.8672 20.07 26.9159 20.0792 26.9634V26.9634C20.0566 26.9894 20.041 27.0206 20.0338 27.0542C20.0178 27.0908 20.0051 27.1288 19.996 27.1676V27.1676C20.1094 26.797 19.996 27.0693 20.0489 26.9861V26.9861C20.0489 26.9861 20.1094 26.9861 20.1699 26.9861L20.3288 26.9332C20.6194 26.8361 20.8359 26.5908 20.896 26.2903C20.9075 26.056 20.8097 25.8297 20.6313 25.6776C20.3463 25.3869 19.9341 25.259 19.5346 25.3372C19.3914 25.3836 19.2862 25.5063 19.2623 25.6549V25.7305V25.7305H19.2094V25.7305L19.3152 25.7759C19.3833 25.7759 19.3909 25.7759 19.4136 25.8516C19.4363 25.9272 19.4892 25.9272 19.4892 25.965C19.5038 26.0118 19.5038 26.0619 19.4892 26.1087C19.4338 26.1695 19.373 26.2252 19.3077 26.2751C19.0844 26.4275 18.8462 26.5567 18.5967 26.6609L18.1505 26.8726C17.6705 27.1099 17.0942 27.0288 16.6982 26.6684C16.4212 26.2906 16.256 25.8424 16.2217 25.3751C16.1966 25.0667 16.2405 24.7566 16.3503 24.4674C16.4451 24.1825 16.5801 23.9125 16.7512 23.6657C17.3947 22.8235 18.4074 22.3468 19.4665 22.3874C20.3476 22.4049 21.2064 22.6668 21.9474 23.1438C22.6835 23.6202 23.2439 24.324 23.5433 25.1482L23.5055 25.2465Z" fill="#ED8054"/>
<path id="Path_5" d="M18.4609 27.266C18.5186 27.0769 18.5666 26.8851 18.6046 26.6911C18.6046 26.6231 18.5517 26.5928 18.6046 26.5247C18.6863 26.2765 18.7544 26.024 18.8089 25.7684C18.8116 25.6746 18.7659 25.586 18.6878 25.5339C18.5895 25.4583 18.3853 25.4507 18.5895 25.2162C18.7937 24.9818 20.9342 23.9304 21.0704 24.0893C21.3052 24.3548 21.3241 24.7479 21.1157 25.0347C20.9796 25.2767 21.1687 25.3826 21.1914 25.5566C21.2027 25.7455 21.2027 25.9349 21.1914 26.1239C21.1836 26.2372 21.1836 26.3509 21.1914 26.4642C21.1914 26.6306 21.1914 26.8121 21.267 26.9407C21.3427 27.0693 21.562 27.0844 21.7208 27.1449C21.7587 27.1449 21.8192 27.1449 21.8419 27.1449C21.8645 27.1449 21.8419 27.2206 21.6906 27.3113L21.4107 27.4475L20.9569 27.6517L20.5636 27.8257C20.1605 28.0102 19.7363 28.1448 19.3005 28.2265C18.7105 28.2265 18.5441 28.0148 18.4231 27.803C18.3727 27.6312 18.3598 27.4507 18.3853 27.2735L18.4609 27.266Z" fill="#ED8054"/>
<path id="Path_6" d="M49.0629 22.5766C48.9003 23.1328 48.6219 23.6483 48.246 24.0893C48.031 24.3438 47.7754 24.561 47.4896 24.7322C47.3384 24.823 47.1946 24.9062 47.0434 24.9818C46.8908 25.0411 46.734 25.0891 46.5744 25.1255C46.1583 25.2641 45.717 25.3106 45.2811 25.2616C45.0669 25.2161 44.857 25.1528 44.6533 25.0726C44.4749 24.9841 44.303 24.883 44.139 24.77C43.8747 24.5542 43.6451 24.2991 43.4582 24.0136C43.1625 23.5515 42.9547 23.0386 42.8456 22.5009C42.6996 22.0393 42.6583 21.551 42.7246 21.0714C42.7358 20.9077 42.7358 20.7435 42.7246 20.5798C42.7676 20.4255 42.8367 20.2797 42.9288 20.1487C43.1481 19.9066 43.3145 19.6419 43.7381 19.6646C43.9298 19.7058 44.1011 19.8128 44.2222 19.9671L44.5247 20.2924L44.7894 20.5949C45.0397 20.8893 45.3329 21.1443 45.6592 21.3513V21.3513V21.3513V21.3513V21.3513V21.3513C45.5871 21.5202 45.5289 21.6947 45.4853 21.8732C45.4323 22.0396 45.4853 22.0698 45.4853 22.1076C45.4254 22.204 45.3796 22.3084 45.3491 22.4177C45.3491 22.4177 45.3491 22.4556 45.3491 22.4782V22.4782V22.4782C45.3491 22.2892 45.3038 22.9169 45.3491 22.0471V22.0471V22.0471V22.0471C45.351 22.0773 45.351 22.1077 45.3491 22.1379C45.3433 22.1628 45.3433 22.1886 45.3491 22.2135C45.3945 22.327 45.3491 22.2135 45.3491 22.2135V22.2135V22.2135V22.2135C45.3491 22.2135 45.4021 22.1606 45.455 22.1303C45.5636 21.9798 45.6266 21.8013 45.6366 21.616C45.6366 21.3135 45.6366 20.9428 45.4399 20.8596C45.2432 20.7764 45.2508 21.0714 45.2357 21.2454C45.2357 21.2454 45.2357 21.3513 45.2357 21.321C45.2357 21.2908 45.0995 21.2681 44.9785 21.1017C44.8575 20.9353 44.7062 20.7159 44.4869 20.3907L44.1919 19.9596C43.8507 19.5321 43.7668 18.9537 43.9726 18.4469C44.0571 18.2759 44.1725 18.1221 44.3129 17.993C44.4783 17.8693 44.6621 17.7724 44.8575 17.7056C44.9558 17.7056 45.0466 17.63 45.1525 17.6073C45.2759 17.5995 45.3997 17.5995 45.5231 17.6073C45.7743 17.5767 46.0283 17.5767 46.2795 17.6073C47.251 17.8334 48.0779 18.4674 48.5485 19.3469C49.151 20.3084 49.3647 21.4632 49.1461 22.5766H49.0629Z" fill="#ED8054"/>
</g>
</g>
</svg>
