  <svg
    width="45"
    height="57"
    viewBox="0 0 45 57"
    fill="none"
    xmlns="http://www.w3.org/2000/svg"
  >
    <g id="140">
      <g id="scribble final version-146">
        <path
          id="Path"
          d="M3.75226 34.3819C5.03016 35.6598 6.30806 36.8993 7.58596 38.1517C8.05239 38.6053 8.55077 39.027 9.0172 39.4871C10.6529 41.1164 12.2822 42.7521 13.8477 44.4517L15.969 46.6816C16.9161 47.6131 17.7058 48.692 18.3075 49.8764C18.4736 50.2789 18.3075 50.2725 17.988 50.0617C17.4987 49.748 17.037 49.3932 16.6079 49.001C16.3843 48.771 16.1351 48.5474 15.9051 48.3237L15.5409 47.9979L15.1831 47.6912L13.7901 46.2919C12.8637 45.359 11.9116 44.4325 11.0043 43.4485C9.92451 42.2729 8.653 41.1867 7.46456 40.0621L3.55419 36.3179C2.7555 35.5384 1.96321 34.7652 1.18369 33.9474C1.03673 33.794 0.883385 33.6407 0.742816 33.4746C0.602248 33.3084 0.595858 33.3148 0.525574 33.2254C0.455289 33.1359 0.378616 33.0592 0.282773 32.9187C0.0864244 32.6904 -0.01428 32.3951 0.00163581 32.0944C0.0255674 31.9468 0.0685214 31.8029 0.129426 31.6663C0.186931 31.5258 0.263605 31.3788 0.308331 31.2957C0.742816 30.5162 1.23481 29.8389 1.68846 29.1297C2.40408 28.0435 3.05581 26.9445 3.70754 25.8583C3.8545 25.6155 3.9759 25.3727 4.13563 25.1427C4.33383 24.8362 4.55831 24.5476 4.80653 24.2801C4.95958 24.1512 5.14153 24.0614 5.33686 24.0181C5.41202 23.9917 5.48887 23.9704 5.56688 23.9542C5.6755 23.9542 5.73301 24.0501 5.73939 24.2865C5.74334 24.6097 5.67798 24.9299 5.54771 25.2257C4.65957 27.4493 3.08776 29.347 1.95682 31.3916C1.86098 31.5769 1.75874 31.7622 1.67568 31.9347L1.61818 32.0625C1.61818 32.1008 1.61818 32.0625 1.61818 32.0625V32.0625L1.74597 32.2222L1.95043 32.4586C2.5127 33.0976 3.15804 33.7365 3.7906 34.3755L3.75226 34.3819Z"
          fill="#B50700"
        />
        <path
          id="Path_2"
          d="M23.5342 37.4679C23.5342 37.4679 25.0102 37.3721 25.2402 36.5351C25.4702 35.698 25.2402 39.0397 25.2402 39.0397L23.5342 37.4679Z"
          fill="#B50700"
        />
        <path
          id="Path_3"
          d="M25.7 30.5417L21.8024 30.7206L20.3903 30.8228L17.8856 30.957C17.0486 30.957 16.2116 31.0145 15.3746 31.0656C14.6334 31.1168 13.8922 31.1807 13.1638 31.2445L10.3333 31.4937C10.0393 31.4937 10.0777 31.4937 10.3333 31.4554C10.5888 31.4171 11.0297 31.2957 11.5664 31.2062C13.4833 30.8803 15.4001 30.5673 17.317 30.3564L20.8695 29.9794L24.7863 29.6408L27.1951 29.4619C28.4155 29.366 29.6359 29.2894 30.8435 29.1616C31.7828 29.0721 32.6901 28.906 33.6166 28.7782C33.821 28.7782 34.0191 28.7143 34.2555 28.6951C35.0159 28.6185 35.265 28.6951 35.4567 28.9571C35.5039 29.0165 35.5446 29.0807 35.5781 29.1488C35.674 29.3724 35.3801 29.5833 34.8242 29.7047C33.1256 30.0443 31.4043 30.2579 29.6742 30.3436L25.7 30.5609V30.5417Z"
          fill="#B50700"
        />
        <path
          id="Path_4"
          d="M14.0203 28.3757L13.196 27.3343C13.0938 27.2065 12.9788 27.0915 12.8829 26.9637C12.5571 26.4908 12.244 26.0116 11.9309 25.526L11.5092 24.8871C11.3196 24.6327 11.1708 24.3503 11.0683 24.0501C11.0108 23.852 11.3942 23.9798 11.605 24.2417C11.9628 24.7465 12.3909 25.2193 12.7679 25.7433C13.0171 26.0441 13.2816 26.332 13.5602 26.6059L14.4292 27.5898L14.9723 28.1904C15.2534 28.4907 15.5282 28.7974 15.8285 29.0722C16.0744 29.2724 16.3304 29.46 16.5952 29.6345C16.6551 29.6691 16.7127 29.7075 16.7677 29.7495C16.9658 29.9156 16.9786 30.0178 16.8316 30.2479C16.8013 30.3034 16.7671 30.3568 16.7294 30.4076C16.6188 30.5696 16.4037 30.622 16.231 30.529C15.7211 30.2333 15.2634 29.8555 14.8764 29.4108C14.5761 29.085 14.2886 28.7719 13.9947 28.4077L14.0203 28.3757Z"
          fill="#B50700"
        />
        <path
          id="Path_5"
          d="M5.6306 34.4202C7.17047 36.1901 8.76784 37.9089 10.3652 39.6276C10.9594 40.2666 11.6431 40.8225 12.2054 41.4614C14.282 43.7105 16.3138 46.0107 18.3329 48.3429C19.2083 49.3908 20.1347 50.4131 21.0293 51.4546L21.8982 52.4705C22.1538 52.8475 22.403 53.2117 22.6266 53.6206C23.1405 54.4574 23.4613 55.3981 23.5659 56.3745C23.5659 57.1476 23.1378 56.8729 22.6266 56.5789C21.9055 56.2668 21.2218 55.8746 20.5884 55.4097C20.2945 55.1349 19.9814 54.8666 19.6555 54.5982C19.3579 54.307 19.0764 53.9999 18.8121 53.6781L17.0997 51.7613L16.2372 50.8028L15.4129 49.7869C14.8634 49.1032 14.3203 48.4132 13.7836 47.7103C12.3815 46.0587 10.8883 44.4865 9.31095 43.0013C7.66246 41.2761 6.01397 39.5318 4.39104 37.7491C3.3815 36.6693 2.39113 35.5511 1.41993 34.3371L1.15157 33.9665C1.04295 33.8132 0.934331 33.6279 0.82571 33.4554C0.628642 33.1176 0.500512 32.744 0.44873 32.3564C0.48409 31.9562 0.574391 31.5627 0.717089 31.1871C0.895995 30.791 1.00462 30.5482 1.14518 30.2862C1.67551 29.2511 2.23779 28.2863 2.75534 27.3087C3.15787 26.542 3.52207 25.7752 3.86711 25.0021C4.21214 24.229 4.50605 23.4367 4.90859 22.7147C5.0875 22.3888 5.21529 22.0757 5.39419 21.7499C5.60076 21.3232 5.86287 20.9257 6.17371 20.5678C6.40309 20.3768 6.67469 20.2432 6.96601 20.178C7.10019 20.178 7.24076 20.0886 7.35577 20.0694C7.47078 20.0502 7.68802 20.1844 7.79664 20.5039C7.93308 20.9472 7.95289 21.4181 7.85415 21.8713C7.7008 22.6827 7.50911 23.4878 7.29826 24.2737C7.19661 24.6644 7.05974 25.0451 6.88933 25.411C6.73599 25.7816 6.56986 26.1458 6.40373 26.51C5.73284 27.9668 4.98527 29.3917 4.33993 30.7782L3.97573 31.513C3.91739 31.629 3.86617 31.7485 3.82238 31.8708L3.76487 32.0114V32.0114C3.75499 32.0057 3.74281 32.0057 3.73293 32.0114C3.66903 31.9347 3.89266 32.2286 4.02684 32.4075L4.538 33.0465C4.9022 33.4746 5.28557 33.9027 5.67533 34.3244L5.6306 34.4202Z"
          fill="#B50700"
        />
        <path
          id="Path_6"
          d="M38.0445 17.0216C38.705 18.6828 39.4911 20.2912 40.3958 21.8329C41.3095 23.4047 42.3127 24.9254 43.4181 26.5036L44.5426 28.1202L44.7343 28.625L44.8237 28.8805L44.8749 29.0019V29.0658V29.0658H44.7726V29.0658C44.8011 29.2372 44.8011 29.412 44.7726 29.5834C44.7241 29.763 44.6555 29.9366 44.5682 30.1009C44.3741 30.449 44.1608 30.7861 43.9292 31.1105L43.6353 31.5194L43.4245 31.8005C40.3894 35.6726 37.3033 39.3976 34.3961 43.3016C33.1182 45.0332 31.8403 46.803 30.6966 48.5729C29.9426 49.7103 29.2334 50.8795 28.5306 52.036C27.8277 53.1925 27.0099 54.2915 26.3709 55.4544C25.9875 56.17 25.732 56.0103 25.5786 55.1669C25.4527 53.8336 25.6431 52.4895 26.1345 51.2437C27.431 48.6942 28.8842 46.2274 30.4857 43.8575C32.1342 41.5381 33.8722 39.2954 35.6996 37.1038C36.7858 35.8259 37.8337 34.4138 38.856 33.0081L41.4565 29.3917C41.4565 29.3406 41.5587 29.2767 41.5204 29.2192L41.4182 29.0594C41.4182 28.9955 41.3415 28.9316 41.2968 28.8614L41.169 28.6697L40.9837 28.4077L40.2425 27.3598C39.7569 26.6698 39.2457 25.9669 38.7665 25.2194C37.7822 23.7533 36.886 22.2299 36.0829 20.6573C35.7954 20.095 35.527 19.5199 35.2715 18.9385C35.1373 18.651 35.0223 18.357 34.9009 18.0631L34.7667 17.7373L34.6964 17.52C34.6577 17.3867 34.6041 17.2581 34.5367 17.1367C34.4021 17.1088 34.2652 17.0938 34.1277 17.0919H33.9169H32.7987C31.917 17.0472 31.0352 17.2644 30.1471 17.2261L27.4891 17.2836L24.831 17.3858C23.9493 17.3858 23.0675 17.4433 22.1858 17.4881C19.4511 17.635 16.7803 18.0312 14.0839 18.3315C13.4897 18.3954 12.9146 18.504 12.314 18.5487C11.7134 18.5935 11.2981 18.6062 10.9084 18.5998C10.5711 18.5502 10.2436 18.4489 9.93715 18.2995C9.48499 18.0743 9.10118 17.7324 8.82538 17.3092C8.7004 17.1479 8.58518 16.9794 8.48035 16.8044C8.35895 16.5297 8.51868 16.2677 8.90205 15.9354C9.4285 15.4715 10.0437 15.1194 10.7103 14.9003C13.1602 14.4121 15.6343 14.0538 18.1221 13.8269C19.4 13.6991 20.6779 13.5947 21.9558 13.5138C23.2337 13.4371 24.5116 13.3285 25.7895 13.3477H28.3453H29.6232C30.0501 13.3382 30.4772 13.3595 30.9011 13.4116C31.3355 13.4819 31.77 13.5713 32.179 13.6224H33.4952C33.6294 13.6224 34.1853 13.6224 34.5686 13.6544C34.7825 13.6571 34.996 13.6741 35.2076 13.7055H35.5143C35.6075 13.7255 35.6962 13.7623 35.7762 13.8141C35.945 13.8838 36.0957 13.9909 36.2171 14.1272L36.4152 14.2997V14.2997C36.4791 14.2103 36.2874 14.4914 36.5558 14.108V14.108V14.108L36.5941 14.1592L36.6772 14.2742L37.348 15.1559L37.8784 16.3827L38.1148 16.9641L38.0445 17.0216Z"
          fill="#B50700"
        />
        <path
          id="Path_7"
          d="M25.3298 31.2573C23.5663 31.334 21.7964 31.4299 20.0329 31.5704C19.394 31.6152 18.755 31.7621 18.1161 31.7941C15.8286 31.8835 13.5412 31.9857 11.2601 32.171C10.749 32.2094 10.2506 32.2861 9.73944 32.3244L8.22513 32.465C7.58618 32.5289 6.94724 32.6055 6.30829 32.6439H5.8163L5.31792 32.5864C4.97927 32.548 4.64702 32.5097 4.30199 32.4394C4.08475 32.4011 3.96335 32.318 3.99529 32.2861C4.02724 32.2541 4.12947 32.2285 4.28921 32.1263C4.51 31.9933 4.7233 31.8483 4.92816 31.6918L5.35625 31.3851C5.43293 31.3212 5.51599 31.2829 5.59905 31.2126L5.85463 31.1296C7.13253 30.759 8.41043 30.3692 9.68833 30.0561C10.9662 29.8644 12.3144 29.7175 13.6562 29.6472C15.2536 29.5769 16.8509 29.1744 18.5058 29.0082C20.2949 28.8293 22.0903 28.6888 23.8858 28.5674L27.2147 28.3565C28.8887 28.2479 30.5819 28.2096 32.2496 28.0945C32.8886 28.0498 33.5275 27.9731 34.1664 27.8965L35.1377 27.7815C35.2974 27.7815 35.4635 27.7367 35.6233 27.7303H36.1152C36.4092 27.7303 36.6903 27.7303 36.9842 27.7303C38.064 27.8581 38.4027 28.1073 38.556 28.7399C38.6006 28.8712 38.6347 29.0058 38.6583 29.1424C38.7094 29.545 38.2366 29.9667 37.4954 30.1136C36.9395 30.2478 36.3836 30.382 35.8149 30.5289C35.2542 30.6387 34.6861 30.707 34.1153 30.7334C32.9716 30.8229 31.796 30.8995 30.6203 30.9634C28.8696 31.072 27.0933 31.1487 25.3234 31.2893L25.3298 31.2573Z"
          fill="#B50700"
        />
        <path
          id="Path_8"
          d="M25.7704 24.0948C25.1315 24.7338 24.4925 25.3727 23.8536 26.0117L21.8665 27.9477C21.3809 28.4205 20.9591 28.9508 20.448 29.4173L19.7388 30.0562C19.3795 30.385 18.9926 30.6821 18.5823 30.9444C18.3751 31.0399 18.1616 31.121 17.9433 31.1872C17.7296 31.2078 17.514 31.1949 17.3044 31.1488C16.8555 31.0146 16.4471 30.7709 16.1159 30.4396C15.9306 30.2863 15.7581 30.1201 15.5856 29.954L15.2342 29.5706C15.0233 29.347 14.8252 29.1106 14.6336 28.8806L13.5026 27.494C12.8637 26.6826 12.1353 25.9095 11.426 25.1683C10.9413 24.7209 10.4926 24.2359 10.0842 23.7179C9.68809 23.1939 9.31111 22.6444 8.90218 22.1205C8.65299 21.7946 8.76801 21.7116 9.20249 21.7371C9.88674 21.7828 10.5564 21.9562 11.1768 22.2483L11.6497 22.5102C11.8101 22.5863 11.9586 22.6853 12.0905 22.8042L12.8573 23.507C13.362 23.9798 13.854 24.459 14.3269 24.9446C15.2725 25.9158 16.1926 26.919 17.0232 27.903C17.0976 27.9744 17.1582 28.0589 17.2021 28.1522C17.2409 28.2064 17.2836 28.2576 17.3299 28.3055C17.3764 28.3569 17.436 28.3945 17.5024 28.4141C17.5663 28.4141 17.6174 28.363 17.6749 28.3247C17.7271 28.2835 17.7762 28.2387 17.8219 28.1905L18.1094 27.8838L18.9401 26.9893L22.6843 22.9575L23.8855 21.7371L25.2082 20.4592C25.6216 20.0246 26.0924 19.6485 26.6075 19.3411C26.8473 19.2298 27.1045 19.1607 27.3678 19.1366C27.6168 19.23 27.8464 19.3687 28.0451 19.5455C28.4994 19.9421 28.9264 20.3691 29.323 20.8234L30.2047 21.7755C31.1184 22.7403 32.1216 23.5773 33.1056 24.4782C33.3228 24.6763 33.5528 24.8488 33.7445 25.0597C33.8404 25.1555 33.9234 25.2513 34.0001 25.3344C34.0768 25.4175 34.1087 25.5261 34.1534 25.6091C34.2288 25.7623 34.2805 25.9261 34.3068 26.0947C34.3258 26.2406 34.3127 26.3889 34.2684 26.5292C34.2042 26.6949 34.1228 26.8533 34.0256 27.0021C33.9362 27.149 33.8723 27.296 33.7892 27.4046C33.5656 27.7305 32.7414 27.8519 32.0513 27.4046C31.7847 27.2619 31.5359 27.0882 31.3101 26.887C31.0737 26.7017 30.8437 26.5037 30.6201 26.3056C30.1664 25.9095 29.7319 25.4941 29.3038 25.066C28.8757 24.6379 28.454 24.1971 28.0259 23.7881L27.387 23.1172L27.1378 22.8425V22.8425C27.1378 22.8425 27.1378 22.8425 27.1378 22.8042C27.1378 22.7658 27.1378 22.8042 27.0931 22.8042V22.8042L26.9844 22.9256L26.7544 23.162L25.8279 24.146L25.7704 24.0948Z"
          fill="#B50700"
        />
        <path
          id="Path_9"
          d="M14.199 36.829C14.4801 36.6181 14.7613 36.42 15.0232 36.19C15.1191 36.1133 15.1702 35.9983 15.2724 35.928C15.6239 35.6661 16.0008 35.4297 16.3331 35.1613C16.4723 35.0366 16.5871 34.8871 16.6717 34.7204C16.7867 34.5096 16.8251 34.2412 17.1318 34.1773C17.3235 34.1326 18.6972 35.3785 18.5502 35.6405C18.2776 36.0933 17.8714 36.4505 17.3874 36.6628C17.0743 36.797 16.9465 37.0973 16.7484 37.3018C16.5503 37.5062 16.2436 37.7554 15.9944 37.9791C15.7453 38.2027 15.6814 38.2538 15.5344 38.4008C15.311 38.6031 15.0977 38.8163 14.8955 39.0397C14.7549 39.225 14.7038 39.4806 14.5504 39.6787C14.5304 39.7258 14.5023 39.769 14.4674 39.8065C14.3204 39.9406 14.1862 39.9151 13.8731 39.7298L13.6559 39.602C13.4519 39.4846 13.3095 39.2838 13.2661 39.0525C13.2277 38.7727 13.2277 38.4889 13.2661 38.2091C13.3333 37.9874 13.4233 37.7733 13.5345 37.5701C13.6687 37.2379 13.9818 37.0526 14.2182 36.8098L14.199 36.829Z"
          fill="#B50700"
        />
        <path
          id="Path_10"
          d="M27.3806 39.1548C27.3533 39.3348 27.2926 39.5082 27.2017 39.6659L26.9972 40.094L26.5755 40.9758C26.4669 41.0844 26.403 41.2697 26.2752 41.3783C26.2507 41.3703 26.2271 41.3596 26.2049 41.3464C25.1635 40.7383 24.1946 40.0138 23.3169 39.1867L22.7354 38.6372L22.4415 38.3753L22.2115 38.0238C22.0134 37.7491 21.7451 37.5702 21.6492 37.436C21.5102 37.2808 21.4057 37.0978 21.3425 36.8993C21.3042 36.7587 21.5725 36.4776 21.924 36.2603C22.2754 36.0431 22.7482 35.8259 22.9718 35.9345L23.253 36.075H23.2913C23.2913 36.075 23.2913 36.075 23.2913 36.1325C23.3187 36.3137 23.3771 36.4887 23.4638 36.6501C23.5153 36.7691 23.5915 36.8759 23.6875 36.9632C23.7577 37.0271 23.7961 37.0143 23.8855 37.1037C23.9061 37.1143 23.9254 37.1271 23.943 37.1421C23.9942 37.1421 24.0708 37.2571 24.1219 37.2635C24.1573 37.2506 24.1898 37.2311 24.2178 37.206C24.2775 37.1526 24.3254 37.0873 24.3584 37.0143C24.4144 36.8911 24.4489 36.7593 24.4606 36.6245C24.5227 36.3317 24.5227 36.0292 24.4606 35.7364C24.406 35.5356 24.322 35.344 24.2114 35.1677C24.1219 34.9761 24.0197 34.7844 23.943 34.5799C23.9047 34.4904 23.8408 34.401 23.86 34.3052C23.8983 33.9282 24.1283 33.7429 24.7928 33.6662C24.941 33.6439 25.0904 33.6311 25.2401 33.6279C25.6546 33.6053 26.0681 33.6889 26.4413 33.8707L26.7416 34.0624C26.818 34.1265 26.8867 34.1994 26.9461 34.2796C27.0626 34.4307 27.1633 34.5934 27.2464 34.7652C27.3046 34.9383 27.3495 35.1156 27.3806 35.2955V35.4297L27.4189 35.6981L27.4828 36.2284C27.5795 37.2143 27.5795 38.2072 27.4828 39.1931L27.3806 39.1548Z"
          fill="#B50700"
        />
        <path
          id="Path_11"
          d="M12.6209 10.0443C12.819 10.0443 12.672 10.2935 12.3397 10.7344C12.1738 10.9317 11.9801 11.1039 11.7647 11.2455C11.6212 11.2906 11.4735 11.3206 11.3238 11.335C10.9776 11.1797 10.6405 11.0048 10.3143 10.811C10.0953 10.6898 9.90379 10.5245 9.752 10.3254C9.43252 9.94206 9.11305 9.57147 8.79358 9.1881C8.72654 9.09638 8.67873 8.99206 8.65301 8.88141C8.56271 8.50629 8.37031 8.1635 8.09712 7.89104C8.05878 7.83992 8.03323 7.77603 7.93099 7.77603C7.82876 7.77603 7.20898 6.88789 7.20259 6.73454C7.15299 6.35725 7.12313 5.97762 7.11314 5.59721C7.11314 5.5461 7.06841 5.50776 7.11314 5.4247C7.20529 5.31862 7.22539 5.16784 7.16426 5.04133C7.12731 4.88868 7.11013 4.73192 7.11314 4.57489C7.13894 4.47044 7.18214 4.37108 7.24093 4.28098C7.28566 4.19791 7.54124 4.13402 7.57318 4.14041C7.60513 4.1468 7.77126 4.07012 7.87349 4.0254L7.97572 3.98706C8.13673 4.03656 8.29287 4.10072 8.44215 4.17875C8.61196 4.2448 8.7783 4.31944 8.94053 4.40238C8.94053 4.40238 9.15139 4.59406 9.40058 4.77936C9.64977 4.96465 9.82867 5.20106 9.88618 5.23301C9.94368 5.26496 9.93729 5.3608 9.94368 5.43108C9.95007 5.50137 10.6274 6.07003 10.6465 6.07003C10.7296 6.22977 10.9085 6.332 10.8382 6.60036C10.8382 6.65787 10.8382 6.67703 10.8765 6.70898C11.0686 6.9625 11.2275 7.23948 11.3494 7.53323C11.4343 7.67088 11.5304 7.80125 11.6369 7.92298C11.6369 7.92298 11.6369 7.98688 11.6369 8.01883C11.6369 8.05077 11.6369 8.10828 11.6688 8.13384C11.8706 8.45813 12.1062 8.76012 12.3717 9.03476C12.4484 9.08587 12.5186 9.57147 12.6081 9.62259C12.6976 9.6737 12.5442 10.0443 12.6209 10.0443Z"
          fill="#B50700"
        />
        <path
          id="Path_12"
          d="M30.9461 8.12104C31.0036 8.31911 30.7033 8.29355 30.1922 8.12104C29.9623 8.02373 29.7472 7.89469 29.5532 7.73767C29.4688 7.61815 29.394 7.49209 29.3296 7.36069C29.3296 7.29679 29.4127 6.52367 29.4254 6.24892C29.4365 5.99671 29.4973 5.74917 29.6043 5.52052C29.8088 5.06047 29.9877 4.58765 30.1858 4.12761C30.2301 4.02032 30.2977 3.92427 30.3839 3.84647C30.6727 3.57602 30.877 3.22755 30.9717 2.84332C30.9717 2.77943 31.0356 2.72831 30.9717 2.63247C31.0193 2.19732 31.1729 1.78048 31.419 1.41847L32.2432 0.670896C32.2815 0.638949 32.2432 0.575054 32.3902 0.581443C32.5297 0.611765 32.6713 0.539632 32.7288 0.408927C32.8189 0.28143 32.9289 0.169248 33.0547 0.0766738C33.1639 0.0298035 33.2809 0.00379749 33.3997 0C33.5548 0.0290251 33.7 0.0972056 33.8214 0.198074C33.8917 0.306695 34.0578 0.325864 34.192 0.383369L34.3262 0.447264C34.4621 0.815366 34.5481 1.20003 34.5817 1.59098C34.5817 1.59098 34.5115 1.90407 34.4412 2.22993C34.3709 2.55579 34.2623 2.86888 34.2623 2.95194C34.2623 3.03501 34.1664 3.06695 34.1089 3.11807C34.0514 3.16919 33.8406 4.11483 33.8214 4.14678C33.7064 4.31929 33.7 4.53654 33.4253 4.63238C33.3677 4.63238 33.3614 4.69627 33.3486 4.73461C33.2033 5.0551 33.0211 5.35746 32.8055 5.63553C32.7177 5.79288 32.6388 5.955 32.5691 6.12113C32.5691 6.15308 32.5116 6.16586 32.486 6.19141C32.4604 6.21697 32.4093 6.24253 32.3965 6.28087C32.181 6.65204 31.993 7.03858 31.8343 7.43736C31.8343 7.5396 31.3742 7.84629 31.3487 7.96769C31.3231 8.08909 30.9206 8.07631 30.9461 8.12104Z"
          fill="#B50700"
        />
        <path
          id="Path_13"
          d="M24.4222 24.804L23.0421 26.1841C22.876 26.3567 22.7354 26.5547 22.5693 26.7209C21.975 27.3215 21.368 27.9157 20.793 28.5291C20.5374 28.8038 20.301 29.0977 20.071 29.3917C19.7956 29.8186 19.4262 30.1771 18.9912 30.4395C18.8186 30.529 18.7611 30.3309 18.7164 30.0881C18.6245 29.8386 18.6245 29.5645 18.7164 29.315C18.9513 28.8994 19.2321 28.5115 19.5534 28.1585C19.8795 27.7808 20.225 27.4204 20.5885 27.0787C20.9948 26.6394 21.3746 26.1764 21.7259 25.6921C22.1476 25.181 22.582 24.6826 23.0038 24.1906L23.8408 23.2961C24.2625 22.8424 24.7034 22.4016 25.1187 21.9351C25.4318 21.5709 25.6873 21.162 26.0196 20.7722C26.0963 20.6892 26.1602 20.5933 26.2368 20.5167C26.3524 20.4077 26.5079 20.3514 26.6664 20.3611C26.8249 20.3707 26.9724 20.4456 27.0739 20.5678L27.2272 20.7211C27.295 20.8161 27.3308 20.9303 27.3294 21.047C27.34 21.1859 27.3204 21.3254 27.2719 21.4559C27.2062 21.6468 27.1067 21.8243 26.978 21.9799C26.8566 22.1268 26.7352 22.3057 26.601 22.4591C26.3391 22.7658 26.0515 23.098 25.7576 23.4047L24.435 24.8296L24.4222 24.804Z"
          fill="#B50700"
        />
      </g>
    </g>
  </svg>