<svg width="60" height="60" viewBox="0 0 60 60" fill="none" xmlns="http://www.w3.org/2000/svg">
<circle cx="30" cy="30" r="28.75" fill="#5EC3C5" fill-opacity="0.08" stroke="#5EC3C5" stroke-width="1.5"/>
<path d="M29.125 39.125C28.8958 38.8958 28.7758 38.6042 28.765 38.25C28.7542 37.8958 28.8638 37.6042 29.0938 37.375L35.2188 31.25H21.25C20.8958 31.25 20.5988 31.13 20.3588 30.89C20.1188 30.65 19.9992 30.3533 20 30C20 29.6458 20.12 29.3487 20.36 29.1087C20.6 28.8687 20.8967 28.7492 21.25 28.75H35.2188L29.0938 22.625C28.8646 22.3958 28.755 22.1042 28.765 21.75C28.775 21.3958 28.895 21.1042 29.125 20.875C29.3542 20.6458 29.6458 20.5312 30 20.5312C30.3542 20.5312 30.6458 20.6458 30.875 20.875L39.125 29.125C39.25 29.2292 39.3388 29.3596 39.3913 29.5162C39.4438 29.6729 39.4696 29.8342 39.4688 30C39.4688 30.1667 39.4429 30.3229 39.3913 30.4687C39.3396 30.6146 39.2508 30.75 39.125 30.875L30.875 39.125C30.6458 39.3542 30.3542 39.4688 30 39.4688C29.6458 39.4688 29.3542 39.3542 29.125 39.125Z" fill="#5EC3C5"/>
</svg>
