<svg width="56" height="56" viewBox="0 0 56 56" fill="none" xmlns="http://www.w3.org/2000/svg">
<circle opacity="0.75" cx="28" cy="28" r="28" fill="white"/>
<path d="M27.125 37.125C26.8958 36.8958 26.7758 36.6042 26.765 36.25C26.7542 35.8958 26.8638 35.6042 27.0938 35.375L33.2188 29.25H19.25C18.8958 29.25 18.5988 29.13 18.3588 28.89C18.1188 28.65 17.9992 28.3533 18 28C18 27.6458 18.12 27.3487 18.36 27.1087C18.6 26.8687 18.8967 26.7492 19.25 26.75H33.2188L27.0938 20.625C26.8646 20.3958 26.755 20.1042 26.765 19.75C26.775 19.3958 26.895 19.1042 27.125 18.875C27.3542 18.6458 27.6458 18.5312 28 18.5312C28.3542 18.5312 28.6458 18.6458 28.875 18.875L37.125 27.125C37.25 27.2292 37.3388 27.3596 37.3913 27.5162C37.4438 27.6729 37.4696 27.8342 37.4688 28C37.4688 28.1667 37.4429 28.3229 37.3913 28.4687C37.3396 28.6146 37.2508 28.75 37.125 28.875L28.875 37.125C28.6458 37.3542 28.3542 37.4688 28 37.4688C27.6458 37.4688 27.3542 37.3542 27.125 37.125Z" fill="#5EC3C5"/>
</svg>
