<svg width="36" height="36" viewBox="0 0 36 36" fill="none" xmlns="http://www.w3.org/2000/svg">
<path d="M13.348 3.41675L8.06885 8.7105" stroke="#5EC3C5" stroke-width="2" stroke-miterlimit="10" stroke-linecap="round" stroke-linejoin="round"/>
<path d="M22.6519 3.41675L27.931 8.7105" stroke="#5EC3C5" stroke-width="2" stroke-miterlimit="10" stroke-linecap="round" stroke-linejoin="round"/>
<path d="M3.4165 11.9479C3.4165 9.25 4.86025 9.03125 6.654 9.03125H29.3457C31.1394 9.03125 32.5832 9.25 32.5832 11.9479C32.5832 15.0833 31.1394 14.8646 29.3457 14.8646H6.654C4.86025 14.8646 3.4165 15.0833 3.4165 11.9479Z" stroke="#5EC3C5" stroke-width="2"/>
<path d="M14.7334 20.9167V26.0938" stroke="#5EC3C5" stroke-width="2" stroke-linecap="round"/>
<path d="M21.4419 20.9167V26.0938" stroke="#5EC3C5" stroke-width="2" stroke-linecap="round"/>
<path d="M5.604 15.0833L7.66025 27.6833C8.12692 30.5124 9.24984 32.5833 13.4207 32.5833H22.2144C26.7498 32.5833 27.4207 30.5999 27.9457 27.8583L30.3957 15.0833" stroke="#5EC3C5" stroke-width="2" stroke-linecap="round"/>
</svg>
