<svg width="53" height="53" viewBox="0 0 53 53" fill="none" xmlns="http://www.w3.org/2000/svg">
<path d="M11.8611 41.2285L11.8079 41.1669C11.8079 41.1669 11.818 41.1383 11.7555 41.1484L11.7387 41.105C11.7328 41.0551 11.7327 41.0047 11.7381 40.9548L11.7579 40.6404C11.7629 40.5351 11.7764 40.4059 11.7881 40.2815C11.7999 40.157 11.8369 40.1433 11.8638 40.0671L11.9842 39.8471C12.1699 39.5484 12.3652 39.253 12.5347 38.97L12.7305 38.6427L12.8574 38.4196C13.2023 37.8194 13.5046 37.1958 13.7622 36.5533C13.9541 36.0853 14.0697 35.5904 14.2282 35.1107C14.7836 33.3742 15.1145 31.5738 15.2129 29.7533C15.2623 28.9325 15.2483 28.1092 15.1711 27.2905C15.0316 26.2521 14.9479 25.2069 14.9204 24.1595C14.9245 23.8289 15.2187 23.8148 15.5727 24.0415C16.0372 24.3444 16.3734 24.8083 16.5166 25.344C16.5822 25.6136 16.6461 25.8879 16.6924 26.1667L16.7763 26.5819C16.7914 26.7212 16.8018 26.8588 16.8105 27.0011C16.8616 27.5548 16.8841 28.0984 16.8803 28.6863C16.8758 29.8196 16.7657 30.95 16.5515 32.0628C16.325 33.4294 16.0262 34.7831 15.6566 36.1181C15.4218 36.8469 15.1415 37.5603 14.8174 38.254C14.658 38.5995 14.4779 38.9431 14.2964 39.2754L14.1594 39.5271L14.0905 39.6313L13.9462 39.8429L13.7577 40.1192C13.7441 40.1428 13.735 40.1686 13.7308 40.1954C13.7308 40.1954 13.7737 40.2105 13.7927 40.2173C13.8118 40.224 13.888 40.2509 13.9356 40.2677L14.6572 40.3937C16.0454 40.6359 17.4054 41.0188 18.7162 41.5363C19.7417 41.9074 20.7403 42.3492 21.7048 42.8584C21.9152 42.9755 22.1307 43.0783 22.3344 43.2145C23.0877 43.7213 23.2167 44.0239 23.0534 44.5019C23.0219 44.6139 22.9832 44.7237 22.9374 44.8306C22.7576 45.1582 22.293 45.1389 21.7622 44.8821C20.1794 43.9945 18.5183 43.2543 16.8 42.6709C16.1462 42.4612 15.4815 42.2875 14.8088 42.1505L14.3055 42.0587C13.9917 42.0069 13.6235 41.9574 13.2805 41.9275C13.1077 41.9199 12.9356 41.9004 12.7654 41.869L12.5219 41.8152C12.4505 41.79 12.3933 41.7698 12.3266 41.7463C12.2695 41.7223 12.2204 41.6827 12.1848 41.632L12.0719 41.5118L11.851 41.2571L11.8611 41.2285Z" fill="#FFB637"/>
<path d="M17.0753 26.6768C17.0814 29.5022 16.6333 32.3102 15.7484 34.9935C15.4409 35.9564 15.1667 36.931 14.8141 37.8243C14.4998 38.6241 14.1665 39.4171 13.9046 40.1443L13.8054 40.4253C13.7767 40.4919 13.7526 40.5604 13.7332 40.6302C13.6793 40.7745 13.7264 40.937 13.8492 41.03C13.9899 41.0958 14.1367 41.1476 14.2875 41.1846L15.5221 41.4809C16.3625 41.6649 17.209 41.8617 18.0519 42.0841C19.5752 42.452 21.0735 42.9162 22.538 43.4738C23.5175 43.8491 24.4417 44.3553 25.2854 44.9787C25.7089 45.3239 26.0893 45.7189 26.4184 46.1551C26.7427 46.6106 26.9743 47.1255 27.0998 47.6703C27.2493 48.3551 26.8646 48.3373 26.2385 48.1379C25.8388 48.0132 25.4311 47.9159 25.0182 47.8466C24.8078 47.791 24.6023 47.7185 24.4037 47.6298C24.2004 47.5525 24.0047 47.4566 23.8191 47.3433C23.6597 47.2335 23.4823 47.1441 23.3099 47.0404C23.1376 46.9368 22.9669 46.8284 22.7963 46.72C22.4288 46.5105 22.0508 46.3199 21.6639 46.1491C20.8483 45.7886 20.0118 45.4774 19.1589 45.2172C18.2802 44.9447 17.3801 44.7022 16.4543 44.472L13.4271 43.7148C12.9408 43.624 12.4716 43.4585 12.0361 43.224C11.9409 43.164 11.8497 43.0978 11.7631 43.026L11.6986 42.9657V42.9657C11.7087 42.9372 11.6986 42.9657 11.6986 42.9657L11.6605 42.9523L11.5381 42.8287C11.4541 42.744 11.3835 42.6469 11.329 42.5407C11.2684 42.439 11.2204 42.3304 11.186 42.2171C11.0227 41.7643 10.9806 41.2767 11.0637 40.8026C11.0899 40.5533 11.1375 40.3066 11.2059 40.0654C11.2291 39.9423 11.2595 39.8207 11.2969 39.7011L11.3876 39.4439C11.7848 38.1966 12.2161 37.0953 12.6111 35.9758C13.5192 33.5849 14.0763 31.075 14.2648 28.5243C14.3578 26.9632 14.2687 25.3966 13.9993 23.8561C13.957 23.6269 13.9211 23.3946 13.8628 23.1651L13.7874 22.8171C13.7442 22.6358 13.7041 22.461 13.6528 22.2876C13.4038 21.5355 13.1737 20.8062 12.9365 20.1119L12.7225 18.8204L12.6795 17.9857C12.7031 17.919 12.6307 17.8506 12.7184 17.7691C12.8013 17.7194 12.8931 17.6863 12.9885 17.6715C13.1693 17.642 13.3526 17.6313 13.5355 17.6395C13.9286 17.6531 14.3183 17.7168 14.6953 17.829C15.2747 18.0029 15.831 18.2459 16.3523 18.5528C16.9355 18.8769 17.5 19.2334 18.0432 19.6207L18.4658 19.9412L18.5698 20.0261L18.6455 20.0849L18.7934 20.2121C18.9983 20.3755 19.2059 20.5612 19.3803 20.7352C19.7579 21.1058 20.1082 21.5033 20.4284 21.9245C20.7213 22.2973 20.9807 22.6953 21.2034 23.1139C21.3804 23.4452 21.5211 23.7948 21.623 24.1565C21.6824 24.41 21.6951 24.6723 21.6607 24.9304C21.6381 25.1234 21.5726 25.309 21.4691 25.4735C21.3475 25.6202 21.2078 25.7509 21.0533 25.8624C20.9352 25.9646 20.812 26.0605 20.684 26.15C20.366 26.3378 19.5744 25.8335 19.0808 25.0005C18.7483 24.3624 18.3502 23.7606 17.893 23.2049C17.6683 22.925 17.4252 22.6603 17.1655 22.4126C17.0399 22.2826 16.9062 22.1604 16.763 22.0349L16.7095 21.9892L16.6523 21.9691C16.5481 21.9912 16.6171 22.0691 16.6187 22.0643V22.0643V22.0643V22.0643C16.6187 22.0643 16.6288 22.0358 16.6288 22.1268L16.7208 22.5342C16.7881 22.799 16.8232 23.0792 16.8728 23.3485C17.0619 24.4487 17.1707 25.5613 17.1983 26.6773L17.0753 26.6768Z" fill="#FFB637"/>
<path d="M29.8591 28.1708C29.8828 27.906 29.908 27.6524 29.9511 27.3784L30.0043 26.9847L30.0578 26.6661L30.2277 25.8047C30.3479 25.2364 30.4823 24.6732 30.6214 24.1116C30.7606 23.5501 30.9172 23 31.072 22.4547L31.1863 22.0397C31.2166 21.9539 31.2166 21.9539 31.2216 21.9396L31.2384 21.892L31.3056 21.7014C31.3829 21.4823 31.3756 21.3512 31.4709 21.1116C31.5162 20.983 31.5667 20.84 31.6221 20.6828C31.6546 20.6051 31.6827 20.5256 31.7061 20.4447C31.7196 20.4065 31.703 20.3471 31.6789 20.3547C31.6548 20.3623 31.6504 20.3446 31.626 20.3682C31.4498 20.4521 31.2848 20.5576 31.1348 20.6824C30.9844 20.79 30.8126 20.9276 30.6213 21.0904L30.3195 21.3536L29.6471 21.9841L26.8127 24.6589C26.2086 25.2481 25.57 25.8009 24.9002 26.3143C24.5513 26.5668 24.186 26.7958 23.8067 26.9999C23.4028 27.2141 22.9731 27.3758 22.5282 27.4809C21.9442 27.6178 21.913 27.0229 22.0878 26.3453C22.1351 26.1836 22.1912 26.0245 22.2558 25.8689C22.3179 25.6882 22.3941 25.5127 22.4839 25.3441C22.664 24.9981 22.9219 24.6985 23.2372 24.4689C24.4775 23.5077 25.6669 22.4826 26.8007 21.3978C27.4199 20.827 28.0257 20.2587 28.6181 19.6928C29.1821 19.1418 29.7237 18.5936 30.2549 18.09C30.7861 17.5864 31.3156 17.0876 31.8126 16.7112L32.1774 16.406L32.3601 16.2829C32.4112 16.254 32.4658 16.2319 32.5226 16.217L32.8299 16.0898L33.1407 15.953C33.2242 15.9289 33.301 15.9238 33.3797 15.898C33.5296 15.8591 33.6816 15.8287 33.835 15.8069L34.0432 15.7786C34.1403 15.755 34.2429 15.7755 34.3234 15.8346C34.4471 15.9567 34.5356 16.1101 34.5793 16.2784C34.6322 16.4381 34.6768 16.6005 34.713 16.7648C34.8163 17.2765 34.8126 17.8041 34.7021 18.3143C34.5456 19.1376 34.2624 20.0769 34.0297 20.9644L33.438 23.2036C33.1573 24.2723 32.9087 25.3417 32.7127 26.4135L32.5195 27.5077C32.4767 27.7658 32.4515 28.0194 32.4191 28.324C32.4065 28.4963 32.397 28.6751 32.3987 28.8524C32.4004 29.0298 32.4015 29.1481 32.4069 29.2999C32.4024 29.3167 32.4078 29.3345 32.4208 29.3459C32.4338 29.3574 32.4522 29.3604 32.4682 29.3537L32.5489 29.3072C32.6008 29.2666 32.6509 29.2307 32.698 29.1884L33.3127 28.6607C33.522 28.4774 33.7523 28.2801 33.9806 28.1035L34.5314 27.6657L35.1854 27.1786C36.537 26.1102 38.0492 25.2625 39.6658 24.6667C40.0356 24.5326 40.4151 24.4265 40.8008 24.3494C41.3265 24.2183 41.8773 24.2279 42.398 24.3772C42.7198 24.512 42.9557 24.7951 43.0303 25.1359C43.0922 25.2971 43.1412 25.463 43.1766 25.6321C43.2372 26.1891 42.694 26.5599 41.8817 26.7822C40.6634 27.1153 39.4926 27.6023 38.3975 28.2314C37.823 28.5603 37.2669 28.9202 36.7316 29.3097C36.4581 29.5078 36.1861 29.7172 35.9188 29.9282L35.6871 30.1143L35.2475 30.4949C34.9573 30.7407 34.6732 30.9993 34.3874 31.2628C33.8099 31.8424 33.1786 32.3658 32.5021 32.8261C32.2781 32.9544 32.0305 33.0365 31.7742 33.0674C31.5976 33.0945 31.4177 33.0908 31.2423 33.0566C31.0782 33.0172 30.9185 32.9609 30.766 32.8885C30.6798 32.8465 30.5963 32.7991 30.516 32.7468C30.4445 32.698 30.378 32.6423 30.3176 32.5804C29.9543 32.2458 29.7335 31.7843 29.7009 31.2915C29.6263 30.2498 29.637 29.2038 29.733 28.1638L29.8591 28.1708Z" fill="#FFB637"/>
<path d="M32.5232 38.3399C32.9395 37.8279 33.3715 37.3322 33.797 36.8395C34.2226 36.3468 34.6768 35.8643 35.088 35.3665C35.3962 35.0092 35.6492 34.611 35.9795 34.2669C37.1029 33.0562 38.2883 31.8674 39.426 30.6618C39.9337 30.1338 40.4021 29.5652 40.8509 29.0218C41.4093 28.261 42.0872 27.5957 42.8583 27.0516C43.1088 26.8882 43.3095 27.109 43.4062 27.5181C43.5315 28.0209 43.4841 28.5514 43.2714 29.0239L42.9105 29.6519C42.7817 29.8388 42.6431 30.0188 42.4954 30.1911C42.2046 30.5599 41.9011 30.9189 41.5787 31.2712C40.9671 31.9875 40.3351 32.6859 39.6492 33.3545C39.2513 33.7725 38.8856 34.2202 38.5555 34.6935C38.2182 35.1638 37.8871 35.6469 37.5229 36.1023L36.3669 37.6175L35.2332 39.146C34.7875 39.7869 34.3193 40.4306 33.8882 41.0605C33.2077 42.0176 32.6 43.0244 32.0704 44.0725C31.8953 44.4852 31.746 44.9084 31.6234 45.3396C31.5041 45.7689 31.3993 46.1873 31.2739 46.6037C31.21 46.7847 31.1812 46.9728 31.135 47.1493C30.9588 47.8157 30.6481 47.9524 29.9899 47.9506C29.8366 47.9447 29.6814 47.9596 29.5314 47.9442C29.0433 47.9006 28.7196 47.4971 28.6781 46.8557C28.6805 46.6209 28.683 46.3861 28.6967 46.1499C28.7104 45.9137 28.7541 45.6987 28.7868 45.4692C28.8196 45.2398 28.8666 45.0153 28.9154 44.7861C28.9544 44.5575 29.0155 44.3333 29.098 44.1166C29.4172 43.2642 29.8051 42.439 30.2576 41.6492C30.5796 41.061 30.9313 40.4896 31.3115 39.9373C31.6712 39.3732 32.0545 38.8334 32.4646 38.3086L32.5232 38.3399Z" fill="#FFB637"/>
<path d="M17.1274 10.6147C17.1096 10.8749 17.0484 11.1304 16.9465 11.3705C16.8612 11.6176 16.728 11.8454 16.5546 12.0411C16.3895 12.2345 16.2067 12.4121 16.0085 12.5716C15.7987 12.7182 15.575 12.8438 15.3406 12.9466C15.1778 13.0284 15.001 13.0893 14.8334 13.1694C14.6541 13.2273 14.4714 13.2737 14.2862 13.3085C12.8401 13.4465 11.4594 12.6758 10.8178 11.3725L10.6308 10.9155C10.576 10.7618 10.5313 10.6046 10.4968 10.4451C10.4503 10.1284 10.4624 9.80581 10.5325 9.49348C10.5732 9.28756 10.6434 9.0886 10.7409 8.90277C10.8501 8.72218 10.9854 8.55871 11.1424 8.41767C11.2939 8.30151 11.4567 8.20102 11.6285 8.11778C11.7963 8.05978 11.9709 8.02414 12.148 8.01178C12.3719 7.9997 12.4319 8.40655 12.4482 8.84619C12.4603 9.07008 12.4676 9.29228 12.4676 9.47441C12.4677 9.65655 12.5179 9.80281 12.4789 9.83728C12.44 9.87175 12.4856 9.90929 12.4503 9.91826C12.415 9.92724 12.4837 9.93003 12.4932 9.93339C12.5027 9.93675 12.4932 9.93339 12.517 9.94179C12.5181 9.95235 12.5144 9.96284 12.507 9.97037C12.4632 10.0032 12.3957 10.1186 12.4583 10.3817C12.4884 10.5154 12.5867 10.6233 12.7169 10.6658C12.8298 10.6885 12.9448 10.6986 13.0599 10.6957C13.404 10.7508 13.7522 10.6246 13.9812 10.3619C14.1008 10.1789 14.1199 9.94779 14.0318 9.74766C13.9003 9.38472 13.5875 9.11772 13.2085 9.04474C12.8988 9.02552 12.5989 9.15719 12.4035 9.39821C12.3729 9.44065 12.3391 9.48066 12.3023 9.51787C12.2564 9.54896 12.202 9.56529 12.1465 9.56469C12.0768 9.551 12.0094 9.52722 11.9465 9.49411C11.7672 9.40434 11.6023 9.2884 11.4572 9.15009C11.3627 9.06856 11.268 9.00301 11.1831 8.92484C11.045 8.80448 10.9534 8.6395 10.9244 8.45862C10.8878 8.24707 10.9196 8.02938 11.0151 7.8371L11.1723 7.61936C11.2406 7.54705 11.3297 7.47671 11.4093 7.403C11.5785 7.24982 11.7738 7.12822 11.9859 7.04397C12.2015 6.94901 12.4253 6.87376 12.6544 6.81914C12.8881 6.77662 13.1246 6.75083 13.3619 6.74198C13.833 6.73887 14.3 6.82898 14.7361 7.00713C15.139 7.17627 15.5129 7.40758 15.8442 7.69263C16.0749 7.88611 16.279 8.1094 16.4509 8.35663C16.5183 8.48082 16.5919 8.60154 16.6715 8.71834C16.7587 8.82988 16.8287 8.95389 16.8792 9.08622C17.0949 9.57748 17.1959 10.1114 17.1747 10.6475L17.1274 10.6147Z" fill="#FFB637"/>
<path d="M37.0092 11.8808C36.8907 12.1076 36.7442 12.3187 36.5733 12.5091C36.3892 12.6823 36.1836 12.8313 35.9617 12.9522C35.5256 13.1883 35.0512 13.3456 34.5604 13.4167C34.1985 13.4699 33.8294 13.4439 33.4785 13.3404C32.1769 12.9455 31.6745 11.1506 31.9781 10.2292C32.0388 9.98871 32.1215 9.75429 32.2251 9.52894C32.3286 9.28683 32.4852 9.07112 32.6835 8.89785C32.92 8.64148 33.2328 8.46819 33.5756 8.40371C33.8806 8.35176 34.1943 8.40393 34.4661 8.5518C34.6275 8.64088 34.5155 8.92811 34.3536 9.23524C34.1916 9.54238 34.0112 9.90191 33.9619 9.98093C33.9385 10.0007 33.9248 10.0296 33.9243 10.0602C33.9238 10.0908 33.9365 10.1201 33.9592 10.1407C33.9929 10.1712 34.0143 10.2131 34.0194 10.2583C34.0271 10.3396 34.0304 10.4213 34.0295 10.503C34.0127 10.5506 33.9926 10.6078 33.9741 10.6602C33.9556 10.7126 33.9186 10.7263 33.8954 10.777C33.8413 10.8647 33.8546 10.9779 33.9274 11.0508C33.9958 11.1156 34.0756 11.1673 34.1628 11.2034C34.4037 11.3034 34.6791 11.2732 34.8927 11.1235C35.0442 11.0093 35.124 10.8235 35.1025 10.635C35.0928 10.2827 34.8804 9.96775 34.5574 9.82673C34.424 9.77968 34.2752 9.79147 34.2323 9.86741C34.2323 9.86741 34.2323 9.86741 34.2222 9.89599C34.2122 9.92458 34.2222 9.89599 34.2222 9.89599C34.2165 9.87177 34.2126 9.84713 34.2107 9.8223C34.2107 9.8223 34.2107 9.8223 34.2637 9.89991C34.3167 9.97752 34.3262 9.98088 34.3688 10.012L34.4223 10.0576V10.0576C34.3348 10.0675 34.2464 10.0686 34.1587 10.061C33.953 10.0367 33.7395 10.0042 33.4878 9.95831L33.1659 9.91437C32.996 9.87988 32.8391 9.79857 32.713 9.67962C32.6195 9.59959 32.5344 9.51032 32.4588 9.41318C32.3554 9.29635 32.3764 9.19127 32.3627 9.06322C32.3591 8.85849 32.3997 8.65539 32.4817 8.46776C32.5961 8.23791 32.7525 8.03148 32.9428 7.85908C33.395 7.4828 33.9853 7.31546 34.5676 7.39845C35.0105 7.4563 35.432 7.62341 35.7942 7.88471C35.9411 7.9905 36.0786 8.10889 36.205 8.23855C36.3372 8.3696 36.4527 8.5165 36.5489 8.6759C37.2697 9.66941 37.5227 10.9264 37.0269 11.8764L37.0092 11.8808Z" fill="#FFB637"/>
<path d="M48.5693 21.7652C48.0919 21.9599 47.569 22.015 47.0615 21.9243L46.8578 21.8792C46.8086 21.8672 46.7607 21.8503 46.7149 21.8288C46.6291 21.7985 46.5529 21.7716 46.4481 21.7346C46.233 21.6341 46.0313 21.5071 45.8476 21.3567C45.7736 21.2931 45.6918 21.2214 45.6054 21.132C45.5168 21.0437 45.4381 20.9459 45.3709 20.8404C45.0152 20.3147 45.0184 19.6247 45.3787 19.1023C45.501 18.9136 45.651 18.7444 45.8236 18.6003C46.0927 18.3786 46.3823 18.183 46.6885 18.0163C46.9354 17.8784 47.1475 17.7175 47.3834 17.565C47.6666 17.2927 48.0526 17.1541 48.4445 17.1841C48.6134 17.2062 48.6118 17.5752 48.6404 17.9496C48.6691 18.3239 48.7566 18.7137 48.6862 18.8067C48.4005 19.1781 48.0464 19.4913 47.6429 19.7296C47.5221 19.7834 47.4692 19.8879 47.4846 19.9202C47.5 19.9524 47.4846 19.9202 47.4846 19.9202L47.3369 19.8681C47.2536 19.8461 47.1681 19.8339 47.0819 19.8317C47.0216 19.8219 46.9599 19.8257 46.9012 19.8429C46.9969 19.781 47.0762 19.6969 47.1323 19.5977C47.1728 19.5344 47.2087 19.4683 47.2396 19.3998L47.2777 19.4133L47.3492 19.4385V19.4385C47.3876 19.2538 47.2968 19.6932 47.3072 19.6487V19.6487L47.2988 19.6725C47.2988 19.6725 47.3072 19.6487 47.3122 19.6344C47.3066 19.5994 47.303 19.5641 47.3013 19.5287V19.5287C47.4217 19.5361 47.5407 19.5002 47.637 19.4275C47.8395 19.3065 47.982 19.1061 48.03 18.8752C48.0435 18.8371 48.007 18.8189 47.9866 18.8009C47.9661 18.783 47.9628 18.7925 47.9485 18.7875C47.9718 18.7856 47.995 18.7812 48.0174 18.7743C48.141 18.7429 48.1191 18.7138 48.0555 18.7877V18.7877L48.0337 18.8497C48.0055 18.8848 47.9812 18.923 47.9614 18.9635C47.832 19.3303 47.9742 18.7751 48.0333 18.2282L48.0688 17.839C48.0836 17.6347 48.1444 17.4364 48.2467 17.2589C48.3026 17.1566 48.3719 17.0621 48.4528 16.9781C48.5224 16.9 48.6182 16.8499 48.7221 16.8374C48.8869 16.8175 49.054 16.8275 49.2153 16.8668C49.3055 16.8817 49.3944 16.9041 49.4809 16.9337C49.5807 16.9774 49.6775 17.0277 49.7707 17.0841C49.9686 17.1999 50.1357 17.3617 50.2577 17.5559C50.399 17.7425 50.5062 17.9526 50.5745 18.1765C50.7708 18.8654 50.6855 19.6041 50.3374 20.2302C49.958 20.9377 49.3565 21.501 48.6256 21.8332L48.5693 21.7652Z" fill="#FFB637"/>
</svg>
