<svg width="90" height="90" viewBox="0 0 90 90" fill="none" xmlns="http://www.w3.org/2000/svg">
<g filter="url(#filter0_d_4603_67876)">
<circle cx="20" cy="20" r="20" transform="matrix(-1 0 0 1 65 21)" fill="#5EC3C5"/>
</g>
<path d="M47.5305 41.5303C47.8234 41.2374 47.8234 40.7626 47.5305 40.4697L42.7575 35.6967C42.4646 35.4038 41.9898 35.4038 41.6969 35.6967C41.404 35.9896 41.404 36.4645 41.6969 36.7574L45.9395 41L41.6969 45.2426C41.404 45.5355 41.404 46.0104 41.6969 46.3033C41.9898 46.5962 42.4646 46.5962 42.7575 46.3033L47.5305 41.5303ZM46.3335 41.75H47.0002V40.25H46.3335V41.75Z" fill="white"/>
<defs>
<filter id="filter0_d_4603_67876" x="0" y="0" width="90" height="90" filterUnits="userSpaceOnUse" color-interpolation-filters="sRGB">
<feFlood flood-opacity="0" result="BackgroundImageFix"/>
<feColorMatrix in="SourceAlpha" type="matrix" values="0 0 0 0 0 0 0 0 0 0 0 0 0 0 0 0 0 0 127 0" result="hardAlpha"/>
<feOffset dy="4"/>
<feGaussianBlur stdDeviation="12.5"/>
<feComposite in2="hardAlpha" operator="out"/>
<feColorMatrix type="matrix" values="0 0 0 0 0 0 0 0 0 0 0 0 0 0 0 0 0 0 0.05 0"/>
<feBlend mode="normal" in2="BackgroundImageFix" result="effect1_dropShadow_4603_67876"/>
<feBlend mode="normal" in="SourceGraphic" in2="effect1_dropShadow_4603_67876" result="shape"/>
</filter>
</defs>
</svg>
