<svg width="48" height="48" viewBox="0 0 48 48" fill="none" xmlns="http://www.w3.org/2000/svg">
<g id="icons-upload">
<g clip-path="url(#clip0_4603_67681)">
<rect width="48" height="48" rx="24" fill="#ED8054"/>
<path id="gradient" opacity="0.2" d="M24 48C37.2548 48 48 37.2548 48 24C48 10.7452 37.2548 0 24 0C10.7452 0 0 10.7452 0 24C0 37.2548 10.7452 48 24 48Z" fill="url(#paint0_linear_4603_67681)"/>
<rect id="icon" opacity="0.5" x="14" y="21" width="20" height="13" rx="5" fill="#EDEFFF"/>
<path id="arrow" d="M27.8801 17.5675L24.5301 14.2175C24.2401 13.9275 23.7601 13.9275 23.4701 14.2175L20.1201 17.5675C19.8301 17.8575 19.8301 18.3375 20.1201 18.6275C20.4101 18.9175 20.8901 18.9175 21.1801 18.6275L23.2501 16.5575V27.2475C23.2501 27.6575 23.5901 27.9975 24.0001 27.9975C24.4101 27.9975 24.7501 27.6575 24.7501 27.2475V16.5575L26.8201 18.6275C26.9701 18.7775 27.1601 18.8475 27.3501 18.8475C27.5401 18.8475 27.7301 18.7775 27.8801 18.6275C28.1801 18.3375 28.1801 17.8675 27.8801 17.5675Z" fill="white"/>
</g>
</g>
<defs>
<linearGradient id="paint0_linear_4603_67681" x1="24" y1="0" x2="24" y2="48" gradientUnits="userSpaceOnUse">
<stop stop-color="white"/>
<stop offset="1" stop-color="white" stop-opacity="0"/>
</linearGradient>
<clipPath id="clip0_4603_67681">
<rect width="48" height="48" rx="24" fill="white"/>
</clipPath>
</defs>
</svg>
