<svg width="64" height="64" viewBox="0 0 64 64" fill="none" xmlns="http://www.w3.org/2000/svg">
<g id="122">
<rect id="Rectangle" width="64" height="64" transform="matrix(-1 0 0 1 64 0)" fill="white"/>
<g id="scribble final version-129">
<path id="Path" d="M23.4107 38.9932C24.2005 38.8003 24.8911 38.322 25.3495 37.6505C25.4436 37.525 25.5942 37.3493 25.6507 37.2677L25.8577 36.9917C26.002 36.8034 26.115 36.6591 26.253 36.496C26.3911 36.3328 26.7111 36.0944 26.9181 35.8685L27.0185 35.7744L27.0938 35.6928C27.1241 35.6563 27.1577 35.6227 27.1942 35.5924C27.2751 35.5091 27.3807 35.4541 27.4954 35.4356C27.7589 35.4356 27.8154 35.7179 27.8656 35.9815C27.8656 36.0128 27.8656 36.1885 27.8656 36.2952C27.8656 36.4019 27.8656 36.5462 27.8656 36.6717C27.8646 36.9177 27.8436 37.1632 27.8028 37.4058C27.7125 37.9731 27.5414 38.5246 27.2946 39.0434C27.2067 39.2003 27.2946 39.3634 27.602 39.4324C28.0646 39.515 28.5375 39.3566 28.8569 39.0121C29.0118 38.8381 29.1544 38.6536 29.2836 38.4599C29.3859 38.2615 29.4619 38.0505 29.5095 37.8324C29.6048 37.4456 29.6636 37.0507 29.6852 36.6528L29.7228 36.0568C29.7317 35.7363 29.7191 35.4156 29.6852 35.0968C29.5924 34.5295 29.276 34.0232 28.8067 33.6913C28.2283 33.3636 27.5272 33.3356 26.9244 33.616C26.6062 33.7482 26.3033 33.9144 26.0209 34.1117C25.7984 34.2523 25.5885 34.4118 25.3934 34.5885C25.0149 34.9368 24.6646 35.3144 24.3456 35.7179C23.9691 36.1697 23.9628 36.2387 23.7934 36.427C23.7086 36.5472 23.5842 36.6338 23.442 36.6717C23.2948 36.6755 23.1593 36.5918 23.0969 36.4583C23.0336 36.3663 22.981 36.2674 22.9401 36.1634C22.9116 36.1064 22.8864 36.0477 22.8648 35.9877L22.7644 35.7305L22.275 34.4756C22.0408 33.749 21.7317 33.0488 21.3526 32.3862C21.2596 32.2299 21.1547 32.081 21.0389 31.9407C20.8896 31.7352 20.6631 31.5992 20.4115 31.5642C20.1832 31.6131 19.9779 31.7367 19.8279 31.9156C19.746 31.9885 19.6705 32.0683 19.602 32.154C19.5041 32.3016 19.4477 32.4728 19.4389 32.6497C19.3794 32.8332 19.3794 33.0309 19.4389 33.2144C19.8781 34.1405 20.2677 35.0893 20.606 36.0568L20.9009 36.7783C20.9683 36.9936 21.0522 37.2034 21.1518 37.4058C21.2301 37.6101 21.3334 37.804 21.4593 37.983C21.5686 38.1576 21.6993 38.3178 21.8483 38.4599L22.0616 38.6607L22.3064 38.8113C22.6475 39.0036 23.0401 39.0847 23.4295 39.0434L23.4107 38.9932Z" fill="#B50700"/>
<path id="Path_2" d="M31.7807 46.573C33.9472 43.9922 35.9088 41.2461 37.6473 38.3596C39.4847 35.3633 40.701 32.0282 41.2238 28.5526C41.619 25.9221 41.3802 23.2353 40.5273 20.7157C39.6828 18.4678 38.24 16.4934 36.3548 15.0059C34.4804 13.565 32.2563 12.649 29.9109 12.3518C27.6379 12.0533 25.3277 12.2329 23.1281 12.8788C20.9155 13.5373 18.9072 14.7487 17.2928 16.3988C15.9203 17.8537 14.8062 19.5322 13.9987 21.362C13.2192 23.1287 12.6222 24.9704 12.2168 26.8584C11.9566 28.0721 11.7847 29.3031 11.7022 30.5416C11.6031 31.7499 11.5696 32.9626 11.6019 34.1745C11.6343 36.5772 11.8061 38.976 12.1164 41.3588C12.3171 42.8334 12.7438 42.6137 13.2081 41.3212C13.8302 39.2843 14.1846 37.1751 14.2622 35.0467C14.3062 33.8545 14.4003 32.6686 14.4756 31.5079C14.543 30.3739 14.675 29.2448 14.8709 28.1259C15.2906 25.9211 16.0061 23.7831 16.9979 21.7698C17.4926 20.8213 18.0857 19.9275 18.7673 19.1032C19.4425 18.3192 20.2214 17.631 21.0826 17.0577C21.9731 16.5047 22.9276 16.0622 23.925 15.74C24.9834 15.4233 26.0733 15.2234 27.1752 15.1439C29.8098 14.9037 32.4359 15.6854 34.5101 17.3275C36.5505 19.0491 37.864 21.4789 38.187 24.129C38.3777 25.6222 38.3544 27.135 38.1179 28.6216C37.861 30.1392 37.4402 31.6245 36.863 33.0514C35.5759 35.9626 33.9319 38.7026 31.9689 41.2083C30.9399 42.5761 29.867 43.9188 28.7626 45.2553L25.663 48.9761C25.5626 49.089 25.4811 49.2145 25.3744 49.3149C25.2677 49.4153 25.0858 49.2773 24.954 49.2271C24.8222 49.1769 24.6089 49.0326 24.4395 48.9259L23.5109 48.2984C22.8834 47.8718 22.2183 47.4388 21.547 47.0435C21.2144 46.8365 20.8693 46.6294 20.5242 46.4161L19.9721 46.1149C19.7587 46.002 19.5768 45.9016 19.307 45.7761C18.3722 45.3108 17.3809 44.9691 16.3579 44.7596C15.4961 44.5905 14.6096 44.5905 13.7477 44.7596C12.932 44.9063 12.176 45.2854 11.5705 45.8514C11.2635 46.1458 11.1265 46.5756 11.2066 46.9934C11.2976 47.3257 11.4604 47.6341 11.6834 47.8969C12.1814 48.5218 12.7692 49.0694 13.4277 49.522C14.0552 49.9612 14.7893 50.4004 15.5172 50.8396L16.5775 51.4671L16.9791 51.7306L17.3242 51.969C17.7704 52.2742 18.1902 52.6163 18.5791 52.9918C18.9035 53.2834 19.1623 53.6405 19.3383 54.0396L19.376 54.1526V54.1526L20.2795 53.8577V53.8577V53.8577C20.2934 53.8509 20.3096 53.8509 20.3234 53.8577C20.3799 53.8577 20.3234 53.8577 20.3234 53.8577C20.3234 53.8577 20.3234 53.8577 20.3234 53.8137L20.2732 53.7134C20.2481 53.6472 20.2353 53.577 20.2356 53.5063C20.1997 53.2991 20.1829 53.0891 20.1854 52.8788V52.8788H20.0536C19.834 52.8412 19.5642 52.7722 19.3007 52.7032L17.6379 52.2388C16.063 51.8122 13.9422 51.2224 12.5807 51.3353C12.2061 51.3552 11.8352 51.4206 11.4764 51.5298C11.1388 51.6494 10.8307 51.8398 10.5728 52.0883C10.4744 52.2479 10.4004 52.4213 10.3532 52.6028C10.3288 52.7481 10.3288 52.8966 10.3532 53.042C10.4072 53.4321 10.5282 53.8099 10.7109 54.1588C10.9301 54.5764 11.2045 54.9626 11.5266 55.3071C12.2134 55.9768 12.9519 56.5916 13.7352 57.1455L14.1556 57.4592C14.256 57.5402 14.3607 57.6156 14.4693 57.6851C14.6136 57.7667 14.7454 57.8357 14.8709 57.8922C15.1046 57.9943 15.3458 58.0783 15.5924 58.1432C15.8182 58.2279 16.0297 58.3464 16.2199 58.4945C16.3705 58.5949 16.5148 58.5886 16.6277 58.3628C16.7532 58.0118 16.7532 57.6282 16.6277 57.2773C16.5525 57.037 16.4559 56.8039 16.3391 56.5808C16.2795 56.4556 16.2124 56.3341 16.1383 56.2169L16.0819 56.1228C16.0819 56.1228 16.0819 56.1228 16.0819 56.0788V56.0035C16.0136 55.831 15.9296 55.665 15.8309 55.5079C15.7694 55.417 15.7168 55.3203 15.674 55.2192C15.6675 55.1798 15.6675 55.1395 15.674 55.1C15.6685 55.0714 15.6757 55.0418 15.6938 55.0189C15.7119 54.996 15.739 54.9821 15.7681 54.9808C16.0082 54.9767 16.2455 55.0327 16.4583 55.1439L16.6842 55.2443L16.7721 55.2945H16.8097L16.9038 55.3322L18.2591 55.6961C18.7974 55.843 19.3443 55.9562 19.8968 56.0349H20.2356H20.5117C20.658 56.0273 20.8031 56.0042 20.9446 55.9659C21.0646 55.9378 21.1821 55.9 21.296 55.853L21.4779 55.7714C21.6287 55.6867 21.7697 55.5857 21.8983 55.4702C22.4351 55.002 22.6954 54.292 22.5885 53.5879C22.5885 53.5063 22.5885 53.4184 22.5509 53.3432C22.5132 53.2679 22.4944 53.1549 22.5007 53.18V53.1424V53.0671L22.4379 52.9102C22.3691 52.7157 22.2808 52.5286 22.1744 52.3518C22.0886 52.1821 21.9878 52.0204 21.8732 51.8686C21.5022 51.3428 21.0657 50.8663 20.5744 50.4506C20.1352 50.0741 19.7022 49.7416 19.2693 49.4341L18.6419 49.0326L18.4599 48.9071V48.9071V48.9071V48.9071V48.9071L18.623 48.9949L18.8866 49.1392C19.1124 49.2647 19.3383 49.4028 19.5642 49.5345C20.4677 50.0867 21.365 50.7016 22.3375 51.3479L22.7077 51.5926L23.0152 51.7934L23.3728 52.013C23.8292 52.3035 24.3204 52.5354 24.8348 52.7032C25.3132 52.8348 25.8183 52.8348 26.2968 52.7032C26.4132 52.6756 26.5211 52.6196 26.6105 52.54L26.9117 52.333L27.5391 51.9188L31.994 46.6483L31.7807 46.573Z" fill="#B50700"/>
<path id="Path_3" d="M26.0076 32.2671C25.4626 32.6206 24.965 33.0423 24.5268 33.522L24.257 33.8169V33.8733L24.188 33.9988L24.0123 34.3188C23.981 34.3627 23.937 34.4945 23.8868 34.4443C23.8566 34.4092 23.8332 34.3688 23.8178 34.3251C23.7614 34.1808 23.7802 33.9612 23.7049 33.8106V33.8106C23.7049 33.8106 23.7049 33.8106 23.7049 33.7416L23.6359 33.4906L23.4727 32.9384L23.3723 32.631L23.2092 32.242C23.0924 31.9714 22.9495 31.713 22.7825 31.4702C22.5077 31.0261 22.1144 30.6675 21.6468 30.4349C21.1835 30.2148 20.6589 30.1595 20.1598 30.278C19.6543 30.3912 19.1832 30.6235 18.7857 30.9557C18.5863 31.1258 18.3957 31.3059 18.2147 31.4953C18.0641 31.6898 17.9449 31.8969 17.8131 32.1227C17.4334 32.8252 17.2027 33.5984 17.1355 34.3941C17.0915 34.7267 17.0915 35.0216 17.0602 35.3604C17.0288 35.6992 17.0602 35.9878 17.0602 36.3016C17.0533 36.9069 17.0784 37.5122 17.1355 38.1149C17.2108 38.8804 17.3049 39.6333 17.4241 40.3737C17.4868 40.7439 17.6751 41.0953 17.7441 41.4592C17.8131 41.8231 17.901 42.1871 17.9637 42.551C18.0264 42.9149 18.2523 42.9463 18.4908 42.551C18.6434 42.2809 18.7654 41.9947 18.8547 41.6976C18.9237 41.5157 18.9488 41.3274 19.0178 41.1204C19.1054 40.9159 19.1808 40.7064 19.2437 40.4929C19.3315 39.7086 19.3127 38.962 19.3629 38.2216L19.4319 37.1361C19.4319 36.7847 19.4319 36.4333 19.4821 36.0945C19.5129 35.4764 19.614 34.8639 19.7833 34.2686C19.8117 34.1431 19.8538 34.0211 19.9088 33.9047C19.9527 33.8169 20.0029 33.66 20.028 33.6223C20.1033 33.4718 20.1159 33.3902 20.1661 33.2898C20.2302 33.1571 20.3583 33.067 20.5049 33.0514C20.6499 33.077 20.7724 33.1736 20.8312 33.3086C20.8669 33.3769 20.8963 33.4483 20.919 33.522C20.9629 33.6412 21.0319 33.842 21.0884 34.0427L21.1825 34.369L21.3206 34.9337L21.5653 36.0694C21.6716 36.729 21.9269 37.3556 22.3119 37.9016C22.385 37.9911 22.4647 38.075 22.5504 38.1525C22.6445 38.2424 22.7584 38.309 22.8829 38.3471C22.9897 38.366 23.0996 38.3435 23.1904 38.2843C23.2782 38.2341 23.3472 38.2153 23.4539 38.1463L23.7614 37.958L24.1253 37.6757L24.2194 37.6067L24.3198 37.4749L24.5143 37.2114L24.9033 36.6906L25.2923 36.151L25.6939 35.6867C25.7629 35.6114 25.8257 35.5298 25.901 35.4608L26.0327 35.3165C26.1206 35.2349 26.1959 35.1408 26.2837 35.0655C26.6082 34.7414 26.9833 34.4723 27.3943 34.2686C27.5396 34.2022 27.7025 34.1846 27.8586 34.2184C28.0127 34.27 28.1481 34.366 28.2476 34.4945C28.4055 34.7118 28.475 34.9809 28.4421 35.2474C28.4114 35.6546 28.3183 36.0545 28.1661 36.4333C27.832 37.2806 27.3913 38.0818 26.8547 38.8176C25.9758 39.9546 24.9904 41.0051 23.9119 41.9549C23.6798 42.1745 23.4351 42.369 23.2092 42.5823C22.3559 43.4043 22.1927 43.7494 22.4123 44.3706C22.4529 44.5132 22.501 44.6535 22.5566 44.791C22.7763 45.2176 23.4225 45.1612 24.1755 44.6153C26.5063 42.891 28.4653 40.7142 29.9355 38.2153C30.248 37.669 30.5004 37.0904 30.6884 36.4898C30.7896 36.1367 30.8609 35.7757 30.9017 35.4106C30.9182 35.1703 30.9182 34.9293 30.9017 34.689C30.8813 34.435 30.8307 34.1844 30.7512 33.9423C30.7169 33.8206 30.675 33.7011 30.6257 33.5847L30.4437 33.2522C30.3233 33.0275 30.1781 32.817 30.0108 32.6247C29.8351 32.4616 29.6468 32.2984 29.4523 32.1478C29.252 32.0174 29.0423 31.9021 28.8249 31.8027C27.8655 31.5188 26.8304 31.6605 25.9825 32.1918L26.0076 32.2671Z" fill="#B50700"/>
<path id="Path_4" d="M43.363 17.1511C43.1685 17.1511 43.225 17.4209 43.4383 17.8413C43.5475 18.0341 43.6923 18.2045 43.865 18.3433C43.9911 18.3938 44.1212 18.4337 44.254 18.4625C44.3167 18.4625 45.0634 18.2178 45.3395 18.1613C45.5873 18.0956 45.8225 17.9896 46.036 17.8476C46.4752 17.5841 46.9332 17.3393 47.385 17.0821C47.4875 17.0256 47.5755 16.9461 47.6422 16.8499C47.8923 16.5309 48.2209 16.2822 48.596 16.1284C48.658 16.0792 48.7407 16.065 48.8156 16.0907C49.2595 15.9904 49.6688 15.7739 50.0014 15.4633C50.1771 15.0931 50.3967 14.7856 50.5975 14.4468C50.6289 14.4029 50.6854 14.3966 50.6665 14.2837C50.6163 14.0327 50.723 13.995 50.7983 13.9072C50.9128 13.7731 50.9887 13.6105 51.0179 13.4366C51.0344 13.3201 51.0344 13.2018 51.0179 13.0852C51.0179 12.9786 50.836 12.8029 50.7983 12.7903C50.7607 12.7778 50.6603 12.6335 50.5975 12.5456C50.5781 12.5118 50.555 12.4802 50.5285 12.4515C50.5285 12.4515 50.2273 12.4139 49.9011 12.3574C49.6931 12.3262 49.4816 12.3262 49.2736 12.3574L49.0791 12.439L48.6587 12.6021L47.9371 12.8593C47.8681 12.8593 47.843 12.9723 47.7991 13.0476C47.7552 13.1229 46.8705 13.4993 46.8391 13.5307C46.6885 13.675 46.4689 13.7252 46.4187 14.0201C46.4187 14.0766 46.3685 14.0892 46.3309 14.1143C46.0544 14.3196 45.8018 14.5553 45.5779 14.817C45.4461 14.9425 45.2767 15.0303 45.1324 15.1433C45.1324 15.1433 45.0948 15.206 45.076 15.2374C45.0571 15.2688 45.032 15.3252 44.9944 15.3441C44.6608 15.6324 44.3087 15.8986 43.9403 16.1409C43.8461 16.1911 43.5889 16.6743 43.4822 16.7244C43.3756 16.7746 43.4383 17.1574 43.363 17.1511Z" fill="#B50700"/>
<path id="Path_5" d="M38.8143 12.5775C38.6699 12.703 38.9084 12.8473 39.3601 12.9728C39.5662 13.0165 39.7774 13.0312 39.9876 13.0167C40.1194 12.954 40.2448 12.8975 40.339 12.841C40.4331 12.7846 40.7217 12.2136 40.8723 11.994C41.0019 11.8035 41.0955 11.5908 41.1484 11.3665C41.2739 10.9336 41.4307 10.5069 41.5813 10.0614C41.6035 9.95802 41.6035 9.85109 41.5813 9.74769C41.5401 9.38075 41.6078 9.00981 41.7758 8.68102C41.7758 8.62455 41.7758 8.56181 41.9076 8.52416C42.1588 8.18077 42.3009 7.76976 42.3154 7.34455C42.1899 6.97436 42.1272 6.61671 42.0331 6.25906C42.0331 6.20887 42.0331 6.16495 41.9703 6.1022C41.8367 6.04749 41.7624 5.9041 41.7946 5.76338C41.781 5.59911 41.7248 5.44123 41.6315 5.30534C41.5592 5.21877 41.4771 5.14087 41.3868 5.07318C41.2726 5.02264 41.1459 5.00735 41.0229 5.02926C40.9288 5.08573 40.8095 5.02926 40.7029 5.02926H40.5899C40.5899 5.02926 40.3515 5.19867 40.1005 5.35553C39.9449 5.45777 39.8054 5.58253 39.6864 5.72573C39.6864 5.72573 39.655 5.79475 39.6111 5.89514L39.4292 6.25279C39.2974 6.51632 39.128 6.77985 39.1029 6.84259C39.0778 6.90534 39.1029 6.97436 39.1029 7.04338C39.1029 7.1124 38.7515 7.90298 38.7452 7.94063C38.7452 8.12887 38.6135 8.292 38.7766 8.52416C38.7956 8.55942 38.7956 8.60184 38.7766 8.6371C38.6995 8.96177 38.6637 9.29485 38.6699 9.62848C38.6483 9.7954 38.6168 9.96091 38.5758 10.1242C38.5698 10.1574 38.5698 10.1914 38.5758 10.2246C38.5877 10.2655 38.5877 10.3091 38.5758 10.35C38.5298 10.759 38.4628 11.1653 38.375 11.5673C38.3437 11.6614 38.5068 12.1508 38.4629 12.2575C38.419 12.3642 38.8644 12.5336 38.8143 12.5775Z" fill="#B50700"/>
<path id="Path_6" d="M44.549 23.5137C44.3608 23.4133 44.2478 23.6831 44.2039 24.1412C44.2057 24.3558 44.2461 24.5683 44.3231 24.7686C44.4235 24.8815 44.5177 24.9945 44.6055 25.0761C44.9739 25.1914 45.3362 25.3254 45.691 25.4776C45.9304 25.586 46.1838 25.6599 46.4439 25.6972C46.9584 25.8039 47.4729 25.9482 48.0063 26.0925C48.1284 26.1175 48.2543 26.1175 48.3765 26.0925C48.7968 26.0156 49.2301 26.0524 49.6314 26.1992C49.7067 26.1992 49.782 26.1992 49.8322 26.3247C50.2732 26.5598 50.7631 26.6887 51.2627 26.7012C51.6894 26.5694 52.1098 26.5066 52.5176 26.4125C52.5741 26.4125 52.6306 26.4125 52.6996 26.3372C52.8502 26.1051 52.9694 26.1615 53.0949 26.149C53.2819 26.1153 53.4635 26.0562 53.6345 25.9733C53.7363 25.9034 53.8272 25.8188 53.9043 25.7223C53.9859 25.6408 53.9608 25.3521 53.942 25.3145C53.9231 25.2768 53.942 25.0761 53.942 24.9568C53.942 24.8376 53.942 24.8627 53.942 24.8251C53.8078 24.6611 53.6654 24.504 53.5153 24.3545C53.3846 24.1766 53.2231 24.0236 53.0384 23.9027L52.8251 23.8274L52.3733 23.6517L51.6455 23.3443C51.5765 23.3066 51.4824 23.3443 51.4008 23.3443C51.3192 23.3443 50.3216 22.949 50.2714 22.949C50.0392 22.949 49.8259 22.8047 49.5561 22.9804C49.5059 23.018 49.462 22.9804 49.4118 22.9804C49.0001 22.8891 48.5765 22.8637 48.1569 22.9051C47.9435 22.9051 47.7365 22.8737 47.5294 22.8674C47.4918 22.8674 47.4478 22.8674 47.4102 22.9051C47.3612 22.922 47.3108 22.9346 47.2596 22.9427C46.7451 22.8988 46.2306 22.9992 45.7098 22.9427C45.5843 22.9427 45.0133 23.1937 44.8753 23.1874C44.7373 23.1812 44.618 23.5514 44.549 23.5137Z" fill="#B50700"/>
</g>
</g>
</svg>
