<svg width="86" height="45" viewBox="0 0 86 45" fill="none" xmlns="http://www.w3.org/2000/svg">
<g id="&#208;&#161;&#208;&#187;&#208;&#190;&#208;&#185;_1" clip-path="url(#clip0_4603_63776)">
<path id="Vector" d="M32.913 31.5288H23.4596C22.3371 31.5328 21.2241 31.3235 20.1799 30.9121C19.1721 30.5097 18.2493 29.9213 17.4596 29.1777C16.6862 28.4187 16.0699 27.515 15.6461 26.5181C15.1821 25.4619 14.9518 24.3181 14.9708 23.1648C14.9581 22.0159 15.1745 20.8759 15.6075 19.8115C16.0316 18.8195 16.6405 17.917 17.4017 17.1519C18.1687 16.3887 19.0803 15.786 20.0834 15.3789C21.1501 14.9503 22.2905 14.7342 23.4403 14.7429C24.5505 14.7372 25.6512 14.9467 26.6815 15.3596C27.6717 15.7627 28.5754 16.3514 29.3439 17.0941C30.1036 17.8308 30.7129 18.7078 31.1381 19.6765C31.5842 20.7038 31.8077 21.8138 31.794 22.9335C31.7944 23.621 31.7167 24.3063 31.5625 24.9763C31.4024 25.6476 31.156 26.2954 30.8294 26.9035C30.5229 27.4832 30.1256 28.0103 29.6526 28.4646C29.186 28.9251 28.6445 29.3031 28.0512 29.5824H32.913V31.5288ZM23.3631 29.4474C24.2123 29.4546 25.0535 29.2839 25.8326 28.9464C26.5631 28.6279 27.22 28.162 27.7619 27.5781C28.3015 26.983 28.7208 26.2893 28.9966 25.5352C29.2935 24.7267 29.4438 23.8718 29.4403 23.0106C29.4435 22.179 29.2863 21.3545 28.9773 20.5823C28.6926 19.8626 28.2662 19.2072 27.7233 18.6551C27.1688 18.1005 26.5142 17.6559 25.794 17.3447C25.0281 17.0106 24.1987 16.8462 23.3631 16.8629C22.5405 16.8518 21.7249 17.016 20.9709 17.3447C20.2522 17.6587 19.5981 18.103 19.0416 18.6551C17.9202 19.8277 17.2978 21.389 17.3053 23.0106C17.3035 23.8717 17.4536 24.7263 17.749 25.5352C18.0294 26.2929 18.4481 26.9921 18.9837 27.5973C19.5317 28.1793 20.1867 28.6504 20.913 28.9849C21.6886 29.3077 22.5231 29.4652 23.3631 29.4474Z" fill="black"/>
<path id="Vector_2" d="M35.248 15.1284H41.0358C41.9186 15.1023 42.7976 15.2531 43.6211 15.5716C44.2331 15.7992 44.782 16.1691 45.2224 16.6509C45.6152 17.071 45.8999 17.5803 46.0519 18.1348C46.2019 18.6483 46.2798 19.1802 46.2834 19.7151C46.2799 20.2342 46.1886 20.7489 46.0133 21.2376C45.8229 21.7189 45.5486 22.1626 45.2031 22.5481C44.8396 22.9529 44.4088 23.2919 43.9297 23.5502C43.4085 23.8222 42.8376 23.9861 42.2513 24.032L46.9008 31.5095H44.1419L39.9748 24.3018H37.486V31.5095H35.2674L35.248 15.1284ZM37.4667 22.3554H40.3799C40.8134 22.356 41.246 22.3173 41.6725 22.2397C42.0697 22.1821 42.4545 22.0583 42.8108 21.8736C43.143 21.6803 43.4163 21.4005 43.6017 21.0641C43.8051 20.6434 43.9107 20.1823 43.9107 19.7151C43.9107 19.2479 43.8051 18.7868 43.6017 18.366C43.4163 18.0297 43.143 17.7499 42.8108 17.5567C42.4545 17.3719 42.0697 17.2481 41.6725 17.1905C41.246 17.1129 40.8134 17.0742 40.3799 17.0749H37.4667V22.3554Z" fill="black"/>
<path id="Vector_3" d="M50.5082 31.6639C50.3075 31.6668 50.1083 31.629 49.9226 31.5528C49.7369 31.4766 49.5686 31.3636 49.4279 31.2207C49.2807 31.082 49.1635 30.9147 49.0834 30.7291C49.0033 30.5435 48.9619 30.3435 48.9619 30.1414C48.9619 29.9393 49.0033 29.7394 49.0834 29.5538C49.1635 29.3682 49.2807 29.2009 49.4279 29.0622C49.5678 28.9206 49.7346 28.8082 49.9184 28.7314C50.1022 28.6547 50.2994 28.6152 50.4986 28.6152C50.6978 28.6152 50.895 28.6547 51.0788 28.7314C51.2626 28.8082 51.4293 28.9206 51.5693 29.0622C51.7824 29.274 51.9281 29.5439 51.9879 29.8382C52.0478 30.1324 52.0193 30.4379 51.9059 30.7159C51.7924 30.994 51.5992 31.2324 51.3505 31.401C51.1019 31.5697 50.8088 31.6611 50.5082 31.6639Z" fill="#B50700"/>
<path id="Vector_4" d="M55.293 20.5631H57.2222V22.2783C57.3123 22.067 57.4361 21.8718 57.5888 21.7002C57.806 21.4532 58.0522 21.2332 58.3219 21.0449C58.6526 20.8231 59.0089 20.6419 59.3831 20.5053C59.8257 20.3634 60.2879 20.2918 60.7528 20.2933C61.4678 20.2677 62.1759 20.4412 62.7978 20.7944C63.3835 21.1693 63.8568 21.6953 64.1677 22.3169C64.5082 21.6724 65.0317 21.1428 65.6724 20.7944C66.2684 20.4814 66.9286 20.3099 67.6017 20.2933C68.3181 20.2666 69.0311 20.4051 69.6853 20.698C70.1913 20.9576 70.6279 21.3342 70.9586 21.7965C71.2719 22.2697 71.4883 22.8003 71.5953 23.3575C71.7122 23.9478 71.7705 24.5482 71.769 25.1498V31.5289H69.6853V25.4196C69.7147 25.0219 69.7147 24.6225 69.6853 24.2248C69.6347 23.8682 69.5238 23.5228 69.3574 23.2034C69.1817 22.9041 68.9284 22.6577 68.6243 22.4903C68.06 22.2443 67.4338 22.177 66.8301 22.2976C66.2263 22.4182 65.6742 22.7209 65.248 23.1648C64.7988 23.8716 64.5766 24.6987 64.6114 25.5352V31.5289H62.5277V25.7473C62.5598 25.2724 62.5598 24.7959 62.5277 24.3211C62.4947 23.9327 62.3901 23.5537 62.2191 23.2034C62.0596 22.8949 61.8196 22.6352 61.5246 22.4517C61.1474 22.2662 60.729 22.18 60.3091 22.2012C59.9378 22.193 59.5692 22.2653 59.2287 22.4132C58.8784 22.5661 58.5633 22.7891 58.3027 23.0684C58.0291 23.3994 57.8197 23.7785 57.6853 24.1862C57.5219 24.71 57.4438 25.2566 57.4538 25.8051V31.4903H55.3702L55.293 20.5631Z" fill="black"/>
<path id="Vector_5" d="M76.5923 26.8072C76.5818 27.2632 76.688 27.7142 76.9009 28.1177C77.1058 28.5049 77.3882 28.8461 77.7305 29.1199C78.0767 29.4121 78.4763 29.6346 78.9073 29.7751C79.354 29.9296 79.8237 30.0078 80.2964 30.0064C80.8954 30.0211 81.4856 29.8604 81.9942 29.5439C82.4936 29.2272 82.9369 28.8299 83.3061 28.3682L84.8881 29.5631C84.3177 30.2991 83.5779 30.8868 82.7314 31.276C81.885 31.6652 80.957 31.8445 80.0263 31.7986C79.2214 31.8139 78.4215 31.6698 77.6726 31.3747C77.0045 31.0844 76.3961 30.6727 75.8784 30.1605C75.3944 29.6253 75.0148 29.0044 74.7594 28.3297C74.5018 27.5992 74.3713 26.8301 74.3736 26.0556C74.3633 25.2708 74.5075 24.4916 74.7979 23.7623C75.0677 23.0873 75.4676 22.4718 75.9749 21.9507C76.4822 21.4261 77.0932 21.0127 77.7691 20.7366C78.4884 20.431 79.264 20.28 80.0456 20.2933C80.8961 20.2719 81.7403 20.4432 82.515 20.7944C83.1522 21.1128 83.712 21.5666 84.1549 22.1241C84.5993 22.6948 84.921 23.3509 85.1003 24.0513C85.2931 24.7349 85.3906 25.4418 85.3897 26.152V26.8843L76.5923 26.8072ZM83.171 25.1499C83.1537 24.7187 83.0825 24.2914 82.9588 23.8779C82.8374 23.5032 82.6329 23.1606 82.3607 22.8757C82.0868 22.5809 81.7507 22.3506 81.3768 22.2012C80.4858 21.8412 79.4896 21.8412 78.5986 22.2012C78.1929 22.379 77.8259 22.6343 77.5183 22.9528C77.23 23.2545 77.001 23.6075 76.8431 23.9935C76.678 24.3431 76.5923 24.7248 76.5923 25.1113L83.171 25.1499Z" fill="black"/>
<path id="Vector_6" d="M11.8842 22.6252C11.8658 21.1592 12.1428 19.7045 12.6989 18.3477C13.255 16.991 14.0787 15.7598 15.121 14.7277C16.1632 13.6955 17.4028 12.8834 18.7658 12.3397C20.1288 11.7961 21.5874 11.5319 23.0547 11.563H24.3473C11.865 1.27182 3.12541 11.698 2.29583 12.7387C0.79266 15.7774 0.00724361 19.12 0 22.5095C0.0324623 25.7071 0.706516 28.8657 1.98231 31.7986C3.25811 34.7314 5.10969 37.3789 7.42762 39.5845C6.79097 38.6016 -0.964684 26.4025 11.8842 22.6252Z" fill="#ED8054"/>
<path id="Vector_7" d="M23.9418 11.5632H42.6943C36.6364 2.85225 28.63 0 22.7264 0C18.3886 0.113942 14.165 1.41387 10.5152 3.75841C6.86537 6.10294 3.92897 9.40229 2.02539 13.2976C2.85497 12.2569 11.4595 1.27195 23.9418 11.5632Z" fill="#FFB637"/>
<path id="Vector_8" d="M11.8845 22.5095C-0.964391 26.2676 6.40544 38.2548 7.0421 39.2376C10.9927 42.9812 16.24 45.053 21.6852 45.0192H33.7046L23.3444 34.4003C16.0903 34.4003 11.8845 29.7558 11.8845 22.5095Z" fill="#5EC3C5"/>
</g>
<defs>
<clipPath id="clip0_4603_63776">
<rect width="85.3893" height="45" fill="white"/>
</clipPath>
</defs>
</svg>
