<svg width="120" height="120" viewBox="0 0 120 120" fill="none" xmlns="http://www.w3.org/2000/svg">
<g id="QR Code" clip-path="url(#clip0_4603_64864)">
<path id="Vector" d="M120 0H0V120H120V0Z" fill="white"/>
<g id="Vector_2">
<path d="M6.86826 3.44086H3.44043V6.86868H6.86826V3.44086Z" fill="black"/>
<path d="M10.2961 3.44086H6.86826V6.86868H10.2961V3.44086Z" fill="black"/>
<path d="M13.7239 3.44086H10.2961V6.86868H13.7239V3.44086Z" fill="black"/>
<path d="M17.1517 3.44086H13.7239V6.86868H17.1517V3.44086Z" fill="black"/>
<path d="M20.5796 3.44086H17.1517V6.86868H20.5796V3.44086Z" fill="black"/>
<path d="M24.0074 3.44086H20.5796V6.86868H24.0074V3.44086Z" fill="black"/>
<path d="M27.4352 3.44086H24.0074V6.86868H27.4352V3.44086Z" fill="black"/>
<path d="M34.2909 3.44086H30.863V6.86868H34.2909V3.44086Z" fill="black"/>
<path d="M44.5744 3.44086H41.1465V6.86868H44.5744V3.44086Z" fill="black"/>
<path d="M48.0022 3.44086H44.5744V6.86868H48.0022V3.44086Z" fill="black"/>
<path d="M51.43 3.44086H48.0022V6.86868H51.43V3.44086Z" fill="black"/>
<path d="M58.2857 3.44086H54.8578V6.86868H58.2857V3.44086Z" fill="black"/>
<path d="M75.4248 3.44086H71.997V6.86868H75.4248V3.44086Z" fill="black"/>
<path d="M78.8526 3.44086H75.4248V6.86868H78.8526V3.44086Z" fill="black"/>
<path d="M89.1361 3.44086H85.7083V6.86868H89.1361V3.44086Z" fill="black"/>
<path d="M95.9918 3.44086H92.5639V6.86868H95.9918V3.44086Z" fill="black"/>
<path d="M99.4196 3.44086H95.9918V6.86868H99.4196V3.44086Z" fill="black"/>
<path d="M102.847 3.44086H99.4196V6.86868H102.847V3.44086Z" fill="black"/>
<path d="M106.275 3.44086H102.847V6.86868H106.275V3.44086Z" fill="black"/>
<path d="M109.703 3.44086H106.275V6.86868H109.703V3.44086Z" fill="black"/>
<path d="M113.131 3.44086H109.703V6.86868H113.131V3.44086Z" fill="black"/>
<path d="M116.559 3.44086H113.131V6.86868H116.559V3.44086Z" fill="black"/>
<path d="M6.86826 6.86868H3.44043V10.2965H6.86826V6.86868Z" fill="black"/>
<path d="M27.4352 6.86868H24.0074V10.2965H27.4352V6.86868Z" fill="black"/>
<path d="M37.7187 6.86868H34.2909V10.2965H37.7187V6.86868Z" fill="black"/>
<path d="M41.1465 6.86868H37.7187V10.2965H41.1465V6.86868Z" fill="black"/>
<path d="M44.5744 6.86868H41.1465V10.2965H44.5744V6.86868Z" fill="black"/>
<path d="M51.43 6.86868H48.0022V10.2965H51.43V6.86868Z" fill="black"/>
<path d="M61.7135 6.86868H58.2857V10.2965H61.7135V6.86868Z" fill="black"/>
<path d="M65.1413 6.86868H61.7135V10.2965H65.1413V6.86868Z" fill="black"/>
<path d="M68.5692 6.86868H65.1413V10.2965H68.5692V6.86868Z" fill="black"/>
<path d="M78.8526 6.86868H75.4248V10.2965H78.8526V6.86868Z" fill="black"/>
<path d="M85.7083 6.86868H82.2805V10.2965H85.7083V6.86868Z" fill="black"/>
<path d="M95.9918 6.86868H92.5639V10.2965H95.9918V6.86868Z" fill="black"/>
<path d="M116.559 6.86868H113.131V10.2965H116.559V6.86868Z" fill="black"/>
<path d="M6.86826 10.2965H3.44043V13.7243H6.86826V10.2965Z" fill="black"/>
<path d="M13.7239 10.2965H10.2961V13.7243H13.7239V10.2965Z" fill="black"/>
<path d="M17.1517 10.2965H13.7239V13.7243H17.1517V10.2965Z" fill="black"/>
<path d="M20.5796 10.2965H17.1517V13.7243H20.5796V10.2965Z" fill="black"/>
<path d="M27.4352 10.2965H24.0074V13.7243H27.4352V10.2965Z" fill="black"/>
<path d="M34.2909 10.2965H30.863V13.7243H34.2909V10.2965Z" fill="black"/>
<path d="M37.7187 10.2965H34.2909V13.7243H37.7187V10.2965Z" fill="black"/>
<path d="M44.5744 10.2965H41.1465V13.7243H44.5744V10.2965Z" fill="black"/>
<path d="M48.0022 10.2965H44.5744V13.7243H48.0022V10.2965Z" fill="black"/>
<path d="M51.43 10.2965H48.0022V13.7243H51.43V10.2965Z" fill="black"/>
<path d="M54.8578 10.2965H51.43V13.7243H54.8578V10.2965Z" fill="black"/>
<path d="M61.7135 10.2965H58.2857V13.7243H61.7135V10.2965Z" fill="black"/>
<path d="M65.1413 10.2965H61.7135V13.7243H65.1413V10.2965Z" fill="black"/>
<path d="M68.5692 10.2965H65.1413V13.7243H68.5692V10.2965Z" fill="black"/>
<path d="M71.997 10.2965H68.5692V13.7243H71.997V10.2965Z" fill="black"/>
<path d="M75.4248 10.2965H71.997V13.7243H75.4248V10.2965Z" fill="black"/>
<path d="M82.2805 10.2965H78.8526V13.7243H82.2805V10.2965Z" fill="black"/>
<path d="M89.1361 10.2965H85.7083V13.7243H89.1361V10.2965Z" fill="black"/>
<path d="M95.9918 10.2965H92.5639V13.7243H95.9918V10.2965Z" fill="black"/>
<path d="M102.847 10.2965H99.4196V13.7243H102.847V10.2965Z" fill="black"/>
<path d="M106.275 10.2965H102.847V13.7243H106.275V10.2965Z" fill="black"/>
<path d="M109.703 10.2965H106.275V13.7243H109.703V10.2965Z" fill="black"/>
<path d="M116.559 10.2965H113.131V13.7243H116.559V10.2965Z" fill="black"/>
<path d="M6.86826 13.7243H3.44043V17.1522H6.86826V13.7243Z" fill="black"/>
<path d="M13.7239 13.7243H10.2961V17.1522H13.7239V13.7243Z" fill="black"/>
<path d="M17.1517 13.7243H13.7239V17.1522H17.1517V13.7243Z" fill="black"/>
<path d="M20.5796 13.7243H17.1517V17.1522H20.5796V13.7243Z" fill="black"/>
<path d="M27.4352 13.7243H24.0074V17.1522H27.4352V13.7243Z" fill="black"/>
<path d="M34.2909 13.7243H30.863V17.1522H34.2909V13.7243Z" fill="black"/>
<path d="M37.7187 13.7243H34.2909V17.1522H37.7187V13.7243Z" fill="black"/>
<path d="M65.1413 13.7243H61.7135V17.1522H65.1413V13.7243Z" fill="black"/>
<path d="M68.5692 13.7243H65.1413V17.1522H68.5692V13.7243Z" fill="black"/>
<path d="M71.997 13.7243H68.5692V17.1522H71.997V13.7243Z" fill="black"/>
<path d="M78.8526 13.7243H75.4248V17.1522H78.8526V13.7243Z" fill="black"/>
<path d="M82.2805 13.7243H78.8526V17.1522H82.2805V13.7243Z" fill="black"/>
<path d="M85.7083 13.7243H82.2805V17.1522H85.7083V13.7243Z" fill="black"/>
<path d="M89.1361 13.7243H85.7083V17.1522H89.1361V13.7243Z" fill="black"/>
<path d="M95.9918 13.7243H92.5639V17.1522H95.9918V13.7243Z" fill="black"/>
<path d="M102.847 13.7243H99.4196V17.1522H102.847V13.7243Z" fill="black"/>
<path d="M106.275 13.7243H102.847V17.1522H106.275V13.7243Z" fill="black"/>
<path d="M109.703 13.7243H106.275V17.1522H109.703V13.7243Z" fill="black"/>
<path d="M116.559 13.7243H113.131V17.1522H116.559V13.7243Z" fill="black"/>
<path d="M6.86826 17.1522H3.44043V20.58H6.86826V17.1522Z" fill="black"/>
<path d="M13.7239 17.1522H10.2961V20.58H13.7239V17.1522Z" fill="black"/>
<path d="M17.1517 17.1522H13.7239V20.58H17.1517V17.1522Z" fill="black"/>
<path d="M20.5796 17.1522H17.1517V20.58H20.5796V17.1522Z" fill="black"/>
<path d="M27.4352 17.1522H24.0074V20.58H27.4352V17.1522Z" fill="black"/>
<path d="M37.7187 17.1522H34.2909V20.58H37.7187V17.1522Z" fill="black"/>
<path d="M41.1465 17.1522H37.7187V20.58H41.1465V17.1522Z" fill="black"/>
<path d="M48.0022 17.1522H44.5744V20.58H48.0022V17.1522Z" fill="black"/>
<path d="M54.8578 17.1522H51.43V20.58H54.8578V17.1522Z" fill="black"/>
<path d="M65.1413 17.1522H61.7135V20.58H65.1413V17.1522Z" fill="black"/>
<path d="M68.5692 17.1522H65.1413V20.58H68.5692V17.1522Z" fill="black"/>
<path d="M71.997 17.1522H68.5692V20.58H71.997V17.1522Z" fill="black"/>
<path d="M82.2805 17.1522H78.8526V20.58H82.2805V17.1522Z" fill="black"/>
<path d="M95.9918 17.1522H92.5639V20.58H95.9918V17.1522Z" fill="black"/>
<path d="M102.847 17.1522H99.4196V20.58H102.847V17.1522Z" fill="black"/>
<path d="M106.275 17.1522H102.847V20.58H106.275V17.1522Z" fill="black"/>
<path d="M109.703 17.1522H106.275V20.58H109.703V17.1522Z" fill="black"/>
<path d="M116.559 17.1522H113.131V20.58H116.559V17.1522Z" fill="black"/>
<path d="M6.86826 20.58H3.44043V24.0078H6.86826V20.58Z" fill="black"/>
<path d="M27.4352 20.58H24.0074V24.0078H27.4352V20.58Z" fill="black"/>
<path d="M34.2909 20.58H30.863V24.0078H34.2909V20.58Z" fill="black"/>
<path d="M37.7187 20.58H34.2909V24.0078H37.7187V20.58Z" fill="black"/>
<path d="M41.1465 20.58H37.7187V24.0078H41.1465V20.58Z" fill="black"/>
<path d="M48.0022 20.58H44.5744V24.0078H48.0022V20.58Z" fill="black"/>
<path d="M68.5692 20.58H65.1413V24.0078H68.5692V20.58Z" fill="black"/>
<path d="M75.4248 20.58H71.997V24.0078H75.4248V20.58Z" fill="black"/>
<path d="M78.8526 20.58H75.4248V24.0078H78.8526V20.58Z" fill="black"/>
<path d="M89.1361 20.58H85.7083V24.0078H89.1361V20.58Z" fill="black"/>
<path d="M95.9918 20.58H92.5639V24.0078H95.9918V20.58Z" fill="black"/>
<path d="M116.559 20.58H113.131V24.0078H116.559V20.58Z" fill="black"/>
<path d="M6.86826 24.0078H3.44043V27.4356H6.86826V24.0078Z" fill="black"/>
<path d="M10.2961 24.0078H6.86826V27.4356H10.2961V24.0078Z" fill="black"/>
<path d="M13.7239 24.0078H10.2961V27.4356H13.7239V24.0078Z" fill="black"/>
<path d="M17.1517 24.0078H13.7239V27.4356H17.1517V24.0078Z" fill="black"/>
<path d="M20.5796 24.0078H17.1517V27.4356H20.5796V24.0078Z" fill="black"/>
<path d="M24.0074 24.0078H20.5796V27.4356H24.0074V24.0078Z" fill="black"/>
<path d="M27.4352 24.0078H24.0074V27.4356H27.4352V24.0078Z" fill="black"/>
<path d="M34.2909 24.0078H30.863V27.4356H34.2909V24.0078Z" fill="black"/>
<path d="M41.1465 24.0078H37.7187V27.4356H41.1465V24.0078Z" fill="black"/>
<path d="M48.0022 24.0078H44.5744V27.4356H48.0022V24.0078Z" fill="black"/>
<path d="M54.8578 24.0078H51.43V27.4356H54.8578V24.0078Z" fill="black"/>
<path d="M61.7135 24.0078H58.2857V27.4356H61.7135V24.0078Z" fill="black"/>
<path d="M68.5692 24.0078H65.1413V27.4356H68.5692V24.0078Z" fill="black"/>
<path d="M75.4248 24.0078H71.997V27.4356H75.4248V24.0078Z" fill="black"/>
<path d="M82.2805 24.0078H78.8526V27.4356H82.2805V24.0078Z" fill="black"/>
<path d="M89.1361 24.0078H85.7083V27.4356H89.1361V24.0078Z" fill="black"/>
<path d="M95.9918 24.0078H92.5639V27.4356H95.9918V24.0078Z" fill="black"/>
<path d="M99.4196 24.0078H95.9918V27.4356H99.4196V24.0078Z" fill="black"/>
<path d="M102.847 24.0078H99.4196V27.4356H102.847V24.0078Z" fill="black"/>
<path d="M106.275 24.0078H102.847V27.4356H106.275V24.0078Z" fill="black"/>
<path d="M109.703 24.0078H106.275V27.4356H109.703V24.0078Z" fill="black"/>
<path d="M113.131 24.0078H109.703V27.4356H113.131V24.0078Z" fill="black"/>
<path d="M116.559 24.0078H113.131V27.4356H116.559V24.0078Z" fill="black"/>
<path d="M34.2909 27.4356H30.863V30.8635H34.2909V27.4356Z" fill="black"/>
<path d="M44.5744 27.4356H41.1465V30.8635H44.5744V27.4356Z" fill="black"/>
<path d="M54.8578 27.4356H51.43V30.8635H54.8578V27.4356Z" fill="black"/>
<path d="M61.7135 27.4356H58.2857V30.8635H61.7135V27.4356Z" fill="black"/>
<path d="M65.1413 27.4356H61.7135V30.8635H65.1413V27.4356Z" fill="black"/>
<path d="M78.8526 27.4356H75.4248V30.8635H78.8526V27.4356Z" fill="black"/>
<path d="M85.7083 27.4356H82.2805V30.8635H85.7083V27.4356Z" fill="black"/>
<path d="M6.86826 30.8635H3.44043V34.2913H6.86826V30.8635Z" fill="black"/>
<path d="M10.2961 30.8635H6.86826V34.2913H10.2961V30.8635Z" fill="black"/>
<path d="M17.1517 30.8635H13.7239V34.2913H17.1517V30.8635Z" fill="black"/>
<path d="M27.4352 30.8635H24.0074V34.2913H27.4352V30.8635Z" fill="black"/>
<path d="M30.863 30.8635H27.4352V34.2913H30.863V30.8635Z" fill="black"/>
<path d="M44.5744 30.8635H41.1465V34.2913H44.5744V30.8635Z" fill="black"/>
<path d="M54.8578 30.8635H51.43V34.2913H54.8578V30.8635Z" fill="black"/>
<path d="M58.2857 30.8635H54.8578V34.2913H58.2857V30.8635Z" fill="black"/>
<path d="M65.1413 30.8635H61.7135V34.2913H65.1413V30.8635Z" fill="black"/>
<path d="M68.5692 30.8635H65.1413V34.2913H68.5692V30.8635Z" fill="black"/>
<path d="M75.4248 30.8635H71.997V34.2913H75.4248V30.8635Z" fill="black"/>
<path d="M85.7083 30.8635H82.2805V34.2913H85.7083V30.8635Z" fill="black"/>
<path d="M92.5639 30.8635H89.1361V34.2913H92.5639V30.8635Z" fill="black"/>
<path d="M95.9918 30.8635H92.5639V34.2913H95.9918V30.8635Z" fill="black"/>
<path d="M99.4196 30.8635H95.9918V34.2913H99.4196V30.8635Z" fill="black"/>
<path d="M106.275 30.8635H102.847V34.2913H106.275V30.8635Z" fill="black"/>
<path d="M109.703 30.8635H106.275V34.2913H109.703V30.8635Z" fill="black"/>
<path d="M116.559 30.8635H113.131V34.2913H116.559V30.8635Z" fill="black"/>
<path d="M10.2961 34.2913H6.86826V37.7191H10.2961V34.2913Z" fill="black"/>
<path d="M20.5796 34.2913H17.1517V37.7191H20.5796V34.2913Z" fill="black"/>
<path d="M24.0074 34.2913H20.5796V37.7191H24.0074V34.2913Z" fill="black"/>
<path d="M30.863 34.2913H27.4352V37.7191H30.863V34.2913Z" fill="black"/>
<path d="M41.1465 34.2913H37.7187V37.7191H41.1465V34.2913Z" fill="black"/>
<path d="M48.0022 34.2913H44.5744V37.7191H48.0022V34.2913Z" fill="black"/>
<path d="M51.43 34.2913H48.0022V37.7191H51.43V34.2913Z" fill="black"/>
<path d="M54.8578 34.2913H51.43V37.7191H54.8578V34.2913Z" fill="black"/>
<path d="M58.2857 34.2913H54.8578V37.7191H58.2857V34.2913Z" fill="black"/>
<path d="M65.1413 34.2913H61.7135V37.7191H65.1413V34.2913Z" fill="black"/>
<path d="M68.5692 34.2913H65.1413V37.7191H68.5692V34.2913Z" fill="black"/>
<path d="M75.4248 34.2913H71.997V37.7191H75.4248V34.2913Z" fill="black"/>
<path d="M78.8526 34.2913H75.4248V37.7191H78.8526V34.2913Z" fill="black"/>
<path d="M92.5639 34.2913H89.1361V37.7191H92.5639V34.2913Z" fill="black"/>
<path d="M95.9918 34.2913H92.5639V37.7191H95.9918V34.2913Z" fill="black"/>
<path d="M99.4196 34.2913H95.9918V37.7191H99.4196V34.2913Z" fill="black"/>
<path d="M102.847 34.2913H99.4196V37.7191H102.847V34.2913Z" fill="black"/>
<path d="M113.131 34.2913H109.703V37.7191H113.131V34.2913Z" fill="black"/>
<path d="M10.2961 37.7191H6.86826V41.147H10.2961V37.7191Z" fill="black"/>
<path d="M24.0074 37.7191H20.5796V41.147H24.0074V37.7191Z" fill="black"/>
<path d="M27.4352 37.7191H24.0074V41.147H27.4352V37.7191Z" fill="black"/>
<path d="M48.0022 37.7191H44.5744V41.147H48.0022V37.7191Z" fill="black"/>
<path d="M51.43 37.7191H48.0022V41.147H51.43V37.7191Z" fill="black"/>
<path d="M61.7135 37.7191H58.2857V41.147H61.7135V37.7191Z" fill="black"/>
<path d="M68.5692 37.7191H65.1413V41.147H68.5692V37.7191Z" fill="black"/>
<path d="M71.997 37.7191H68.5692V41.147H71.997V37.7191Z" fill="black"/>
<path d="M75.4248 37.7191H71.997V41.147H75.4248V37.7191Z" fill="black"/>
<path d="M78.8526 37.7191H75.4248V41.147H78.8526V37.7191Z" fill="black"/>
<path d="M92.5639 37.7191H89.1361V41.147H92.5639V37.7191Z" fill="black"/>
<path d="M95.9918 37.7191H92.5639V41.147H95.9918V37.7191Z" fill="black"/>
<path d="M106.275 37.7191H102.847V41.147H106.275V37.7191Z" fill="black"/>
<path d="M113.131 37.7191H109.703V41.147H113.131V37.7191Z" fill="black"/>
<path d="M6.86826 41.147H3.44043V44.5748H6.86826V41.147Z" fill="black"/>
<path d="M10.2961 41.147H6.86826V44.5748H10.2961V41.147Z" fill="black"/>
<path d="M17.1517 41.147H13.7239V44.5748H17.1517V41.147Z" fill="black"/>
<path d="M30.863 41.147H27.4352V44.5748H30.863V41.147Z" fill="black"/>
<path d="M34.2909 41.147H30.863V44.5748H34.2909V41.147Z" fill="black"/>
<path d="M41.1465 41.147H37.7187V44.5748H41.1465V41.147Z" fill="black"/>
<path d="M44.5744 41.147H41.1465V44.5748H44.5744V41.147Z" fill="black"/>
<path d="M51.43 41.147H48.0022V44.5748H51.43V41.147Z" fill="black"/>
<path d="M54.8578 41.147H51.43V44.5748H54.8578V41.147Z" fill="black"/>
<path d="M58.2857 41.147H54.8578V44.5748H58.2857V41.147Z" fill="black"/>
<path d="M61.7135 41.147H58.2857V44.5748H61.7135V41.147Z" fill="black"/>
<path d="M65.1413 41.147H61.7135V44.5748H65.1413V41.147Z" fill="black"/>
<path d="M68.5692 41.147H65.1413V44.5748H68.5692V41.147Z" fill="black"/>
<path d="M71.997 41.147H68.5692V44.5748H71.997V41.147Z" fill="black"/>
<path d="M75.4248 41.147H71.997V44.5748H75.4248V41.147Z" fill="black"/>
<path d="M82.2805 41.147H78.8526V44.5748H82.2805V41.147Z" fill="black"/>
<path d="M85.7083 41.147H82.2805V44.5748H85.7083V41.147Z" fill="black"/>
<path d="M95.9918 41.147H92.5639V44.5748H95.9918V41.147Z" fill="black"/>
<path d="M99.4196 41.147H95.9918V44.5748H99.4196V41.147Z" fill="black"/>
<path d="M109.703 41.147H106.275V44.5748H109.703V41.147Z" fill="black"/>
<path d="M116.559 41.147H113.131V44.5748H116.559V41.147Z" fill="black"/>
<path d="M6.86826 44.5748H3.44043V48.0026H6.86826V44.5748Z" fill="black"/>
<path d="M10.2961 44.5748H6.86826V48.0026H10.2961V44.5748Z" fill="black"/>
<path d="M13.7239 44.5748H10.2961V48.0026H13.7239V44.5748Z" fill="black"/>
<path d="M24.0074 44.5748H20.5796V48.0026H24.0074V44.5748Z" fill="black"/>
<path d="M27.4352 44.5748H24.0074V48.0026H27.4352V44.5748Z" fill="black"/>
<path d="M34.2909 44.5748H30.863V48.0026H34.2909V44.5748Z" fill="black"/>
<path d="M54.8578 44.5748H51.43V48.0026H54.8578V44.5748Z" fill="black"/>
<path d="M58.2857 44.5748H54.8578V48.0026H58.2857V44.5748Z" fill="black"/>
<path d="M68.5692 44.5748H65.1413V48.0026H68.5692V44.5748Z" fill="black"/>
<path d="M71.997 44.5748H68.5692V48.0026H71.997V44.5748Z" fill="black"/>
<path d="M75.4248 44.5748H71.997V48.0026H75.4248V44.5748Z" fill="black"/>
<path d="M78.8526 44.5748H75.4248V48.0026H78.8526V44.5748Z" fill="black"/>
<path d="M82.2805 44.5748H78.8526V48.0026H82.2805V44.5748Z" fill="black"/>
<path d="M89.1361 44.5748H85.7083V48.0026H89.1361V44.5748Z" fill="black"/>
<path d="M102.847 44.5748H99.4196V48.0026H102.847V44.5748Z" fill="black"/>
<path d="M106.275 44.5748H102.847V48.0026H106.275V44.5748Z" fill="black"/>
<path d="M113.131 44.5748H109.703V48.0026H113.131V44.5748Z" fill="black"/>
<path d="M13.7239 48.0026H10.2961V51.4304H13.7239V48.0026Z" fill="black"/>
<path d="M20.5796 48.0026H17.1517V51.4304H20.5796V48.0026Z" fill="black"/>
<path d="M37.7187 48.0026H34.2909V51.4304H37.7187V48.0026Z" fill="black"/>
<path d="M41.1465 48.0026H37.7187V51.4304H41.1465V48.0026Z" fill="black"/>
<path d="M54.8578 48.0026H51.43V51.4304H54.8578V48.0026Z" fill="black"/>
<path d="M61.7135 48.0026H58.2857V51.4304H61.7135V48.0026Z" fill="black"/>
<path d="M65.1413 48.0026H61.7135V51.4304H65.1413V48.0026Z" fill="black"/>
<path d="M82.2805 48.0026H78.8526V51.4304H82.2805V48.0026Z" fill="black"/>
<path d="M85.7083 48.0026H82.2805V51.4304H85.7083V48.0026Z" fill="black"/>
<path d="M99.4196 48.0026H95.9918V51.4304H99.4196V48.0026Z" fill="black"/>
<path d="M102.847 48.0026H99.4196V51.4304H102.847V48.0026Z" fill="black"/>
<path d="M109.703 48.0026H106.275V51.4304H109.703V48.0026Z" fill="black"/>
<path d="M113.131 48.0026H109.703V51.4304H113.131V48.0026Z" fill="black"/>
<path d="M10.2961 51.4304H6.86826V54.8583H10.2961V51.4304Z" fill="black"/>
<path d="M13.7239 51.4304H10.2961V54.8583H13.7239V51.4304Z" fill="black"/>
<path d="M24.0074 51.4304H20.5796V54.8583H24.0074V51.4304Z" fill="black"/>
<path d="M27.4352 51.4304H24.0074V54.8583H27.4352V51.4304Z" fill="black"/>
<path d="M34.2909 51.4304H30.863V54.8583H34.2909V51.4304Z" fill="black"/>
<path d="M48.0022 51.4304H44.5744V54.8583H48.0022V51.4304Z" fill="black"/>
<path d="M51.43 51.4304H48.0022V54.8583H51.43V51.4304Z" fill="black"/>
<path d="M58.2857 51.4304H54.8578V54.8583H58.2857V51.4304Z" fill="black"/>
<path d="M61.7135 51.4304H58.2857V54.8583H61.7135V51.4304Z" fill="black"/>
<path d="M65.1413 51.4304H61.7135V54.8583H65.1413V51.4304Z" fill="black"/>
<path d="M68.5692 51.4304H65.1413V54.8583H68.5692V51.4304Z" fill="black"/>
<path d="M71.997 51.4304H68.5692V54.8583H71.997V51.4304Z" fill="black"/>
<path d="M75.4248 51.4304H71.997V54.8583H75.4248V51.4304Z" fill="black"/>
<path d="M78.8526 51.4304H75.4248V54.8583H78.8526V51.4304Z" fill="black"/>
<path d="M85.7083 51.4304H82.2805V54.8583H85.7083V51.4304Z" fill="black"/>
<path d="M92.5639 51.4304H89.1361V54.8583H92.5639V51.4304Z" fill="black"/>
<path d="M99.4196 51.4304H95.9918V54.8583H99.4196V51.4304Z" fill="black"/>
<path d="M109.703 51.4304H106.275V54.8583H109.703V51.4304Z" fill="black"/>
<path d="M113.131 51.4304H109.703V54.8583H113.131V51.4304Z" fill="black"/>
<path d="M17.1517 54.8583H13.7239V58.2861H17.1517V54.8583Z" fill="black"/>
<path d="M24.0074 54.8583H20.5796V58.2861H24.0074V54.8583Z" fill="black"/>
<path d="M30.863 54.8583H27.4352V58.2861H30.863V54.8583Z" fill="black"/>
<path d="M34.2909 54.8583H30.863V58.2861H34.2909V54.8583Z" fill="black"/>
<path d="M48.0022 54.8583H44.5744V58.2861H48.0022V54.8583Z" fill="black"/>
<path d="M58.2857 54.8583H54.8578V58.2861H58.2857V54.8583Z" fill="black"/>
<path d="M65.1413 54.8583H61.7135V58.2861H65.1413V54.8583Z" fill="black"/>
<path d="M68.5692 54.8583H65.1413V58.2861H68.5692V54.8583Z" fill="black"/>
<path d="M78.8526 54.8583H75.4248V58.2861H78.8526V54.8583Z" fill="black"/>
<path d="M82.2805 54.8583H78.8526V58.2861H82.2805V54.8583Z" fill="black"/>
<path d="M85.7083 54.8583H82.2805V58.2861H85.7083V54.8583Z" fill="black"/>
<path d="M92.5639 54.8583H89.1361V58.2861H92.5639V54.8583Z" fill="black"/>
<path d="M102.847 54.8583H99.4196V58.2861H102.847V54.8583Z" fill="black"/>
<path d="M109.703 54.8583H106.275V58.2861H109.703V54.8583Z" fill="black"/>
<path d="M13.7239 58.2861H10.2961V61.7139H13.7239V58.2861Z" fill="black"/>
<path d="M20.5796 58.2861H17.1517V61.7139H20.5796V58.2861Z" fill="black"/>
<path d="M24.0074 58.2861H20.5796V61.7139H24.0074V58.2861Z" fill="black"/>
<path d="M27.4352 58.2861H24.0074V61.7139H27.4352V58.2861Z" fill="black"/>
<path d="M30.863 58.2861H27.4352V61.7139H30.863V58.2861Z" fill="black"/>
<path d="M37.7187 58.2861H34.2909V61.7139H37.7187V58.2861Z" fill="black"/>
<path d="M44.5744 58.2861H41.1465V61.7139H44.5744V58.2861Z" fill="black"/>
<path d="M48.0022 58.2861H44.5744V61.7139H48.0022V58.2861Z" fill="black"/>
<path d="M61.7135 58.2861H58.2857V61.7139H61.7135V58.2861Z" fill="black"/>
<path d="M68.5692 58.2861H65.1413V61.7139H68.5692V58.2861Z" fill="black"/>
<path d="M75.4248 58.2861H71.997V61.7139H75.4248V58.2861Z" fill="black"/>
<path d="M78.8526 58.2861H75.4248V61.7139H78.8526V58.2861Z" fill="black"/>
<path d="M92.5639 58.2861H89.1361V61.7139H92.5639V58.2861Z" fill="black"/>
<path d="M99.4196 58.2861H95.9918V61.7139H99.4196V58.2861Z" fill="black"/>
<path d="M102.847 58.2861H99.4196V61.7139H102.847V58.2861Z" fill="black"/>
<path d="M106.275 58.2861H102.847V61.7139H106.275V58.2861Z" fill="black"/>
<path d="M109.703 58.2861H106.275V61.7139H109.703V58.2861Z" fill="black"/>
<path d="M116.559 58.2861H113.131V61.7139H116.559V58.2861Z" fill="black"/>
<path d="M10.2961 61.7139H6.86826V65.1417H10.2961V61.7139Z" fill="black"/>
<path d="M30.863 61.7139H27.4352V65.1417H30.863V61.7139Z" fill="black"/>
<path d="M34.2909 61.7139H30.863V65.1417H34.2909V61.7139Z" fill="black"/>
<path d="M37.7187 61.7139H34.2909V65.1417H37.7187V61.7139Z" fill="black"/>
<path d="M44.5744 61.7139H41.1465V65.1417H44.5744V61.7139Z" fill="black"/>
<path d="M54.8578 61.7139H51.43V65.1417H54.8578V61.7139Z" fill="black"/>
<path d="M71.997 61.7139H68.5692L68.5691 65.1417H71.997V61.7139Z" fill="black"/>
<path d="M82.2805 61.7139H78.8526V65.1417H82.2805V61.7139Z" fill="black"/>
<path d="M89.1361 61.7139H85.7083V65.1417H89.1361V61.7139Z" fill="black"/>
<path d="M95.9918 61.7139H92.5639V65.1417H95.9918V61.7139Z" fill="black"/>
<path d="M99.4196 61.7139H95.9918V65.1417H99.4196V61.7139Z" fill="black"/>
<path d="M102.847 61.7139H99.4196V65.1417H102.847V61.7139Z" fill="black"/>
<path d="M109.703 61.7139H106.275V65.1417H109.703V61.7139Z" fill="black"/>
<path d="M113.131 61.7139H109.703V65.1417H113.131V61.7139Z" fill="black"/>
<path d="M116.559 61.7139H113.131V65.1417H116.559V61.7139Z" fill="black"/>
<path d="M6.86826 65.1417H3.44043V68.5696H6.86826V65.1417Z" fill="black"/>
<path d="M13.7239 65.1417H10.2961V68.5696H13.7239V65.1417Z" fill="black"/>
<path d="M17.1517 65.1417H13.7239V68.5696H17.1517V65.1417Z" fill="black"/>
<path d="M20.5796 65.1417H17.1517V68.5696H20.5796V65.1417Z" fill="black"/>
<path d="M24.0074 65.1417H20.5796V68.5696H24.0074V65.1417Z" fill="black"/>
<path d="M27.4352 65.1417H24.0074V68.5696H27.4352V65.1417Z" fill="black"/>
<path d="M30.863 65.1417H27.4352V68.5696H30.863V65.1417Z" fill="black"/>
<path d="M37.7187 65.1417H34.2909V68.5696H37.7187V65.1417Z" fill="black"/>
<path d="M41.1465 65.1417H37.7187V68.5696H41.1465V65.1417Z" fill="black"/>
<path d="M54.8578 65.1417H51.43V68.5696H54.8578V65.1417Z" fill="black"/>
<path d="M61.7135 65.1417H58.2857V68.5696H61.7135V65.1417Z" fill="black"/>
<path d="M65.1413 65.1417H61.7135V68.5696H65.1413V65.1417Z" fill="black"/>
<path d="M68.5691 65.1417H65.1413V68.5696H68.5692L68.5691 65.1417Z" fill="black"/>
<path d="M71.997 65.1417H68.5691L68.5692 68.5696H71.997V65.1417Z" fill="black"/>
<path d="M82.2805 65.1417H78.8526V68.5696H82.2805V65.1417Z" fill="black"/>
<path d="M85.7083 65.1417H82.2805V68.5696H85.7083V65.1417Z" fill="black"/>
<path d="M92.5639 65.1417H89.1361V68.5696H92.5639V65.1417Z" fill="black"/>
<path d="M95.9918 65.1417H92.5639V68.5696H95.9918V65.1417Z" fill="black"/>
<path d="M99.4196 65.1417H95.9918V68.5696H99.4196V65.1417Z" fill="black"/>
<path d="M102.847 65.1417H99.4196V68.5696H102.847V65.1417Z" fill="black"/>
<path d="M109.703 65.1417H106.275V68.5696H109.703V65.1417Z" fill="black"/>
<path d="M113.131 65.1417H109.703V68.5696H113.131V65.1417Z" fill="black"/>
<path d="M6.86826 68.5696H3.44043V71.9974H6.86826V68.5696Z" fill="black"/>
<path d="M17.1517 68.5696H13.7239V71.9974H17.1517V68.5696Z" fill="black"/>
<path d="M30.863 68.5696H27.4352V71.9974H30.863V68.5696Z" fill="black"/>
<path d="M37.7187 68.5696H34.2909V71.9974H37.7187V68.5696Z" fill="black"/>
<path d="M54.8578 68.5696H51.43V71.9974H54.8578V68.5696Z" fill="black"/>
<path d="M71.997 68.5696H68.5692L68.5691 71.9974H71.997V68.5696Z" fill="black"/>
<path d="M82.2805 68.5696H78.8526V71.9974H82.2805V68.5696Z" fill="black"/>
<path d="M89.1361 68.5696H85.7083V71.9974H89.1361V68.5696Z" fill="black"/>
<path d="M92.5639 68.5696H89.1361V71.9974H92.5639V68.5696Z" fill="black"/>
<path d="M95.9918 68.5696H92.5639V71.9974H95.9918V68.5696Z" fill="black"/>
<path d="M106.275 68.5696H102.847V71.9974H106.275V68.5696Z" fill="black"/>
<path d="M113.131 68.5696H109.703V71.9974H113.131V68.5696Z" fill="black"/>
<path d="M116.559 68.5696L113.131 68.5696V71.9974H116.559V68.5696Z" fill="black"/>
<path d="M6.86826 71.9974H3.44043V75.4252H6.86826V71.9974Z" fill="black"/>
<path d="M13.7239 71.9974H10.2961V75.4252H13.7239V71.9974Z" fill="black"/>
<path d="M27.4352 71.9974H24.0074V75.4252H27.4352V71.9974Z" fill="black"/>
<path d="M37.7187 71.9974H34.2909V75.4252H37.7187V71.9974Z" fill="black"/>
<path d="M48.0022 71.9974H44.5744V75.4252H48.0022V71.9974Z" fill="black"/>
<path d="M51.43 71.9974H48.0022V75.4252H51.43V71.9974Z" fill="black"/>
<path d="M54.8578 71.9974H51.43V75.4252H54.8578V71.9974Z" fill="black"/>
<path d="M61.7135 71.9974H58.2857V75.4252H61.7135V71.9974Z" fill="black"/>
<path d="M65.1413 71.9974H61.7135V75.4252H65.1413V71.9974Z" fill="black"/>
<path d="M78.8526 71.9974H75.4248V75.4252H78.8526V71.9974Z" fill="black"/>
<path d="M82.2805 71.9974H78.8526V75.4252H82.2805V71.9974Z" fill="black"/>
<path d="M85.7083 71.9974H82.2805V75.4252H85.7083V71.9974Z" fill="black"/>
<path d="M92.5639 71.9974H89.1361V75.4252H92.5639V71.9974Z" fill="black"/>
<path d="M95.9918 71.9974H92.5639V75.4252H95.9918V71.9974Z" fill="black"/>
<path d="M99.4196 71.9974H95.9918V75.4252H99.4196V71.9974Z" fill="black"/>
<path d="M102.847 71.9974H99.4196V75.4252H102.847V71.9974Z" fill="black"/>
<path d="M113.131 71.9974H109.703V75.4252H113.131V71.9974Z" fill="black"/>
<path d="M6.86826 75.4252H3.44043V78.853H6.86826V75.4252Z" fill="black"/>
<path d="M10.2961 75.4252H6.86826V78.853H10.2961V75.4252Z" fill="black"/>
<path d="M34.2909 75.4252H30.863V78.853H34.2909V75.4252Z" fill="black"/>
<path d="M58.2857 75.4252H54.8578V78.853H58.2857V75.4252Z" fill="black"/>
<path d="M61.7135 75.4252H58.2857V78.853H61.7135V75.4252Z" fill="black"/>
<path d="M75.4248 75.4252H71.997V78.853H75.4248V75.4252Z" fill="black"/>
<path d="M78.8526 75.4252H75.4248V78.853H78.8526V75.4252Z" fill="black"/>
<path d="M99.4196 75.4252H95.9918V78.853H99.4196V75.4252Z" fill="black"/>
<path d="M102.847 75.4252H99.4196V78.853H102.847V75.4252Z" fill="black"/>
<path d="M106.275 75.4252H102.847V78.853H106.275V75.4252Z" fill="black"/>
<path d="M109.703 75.4252H106.275V78.853H109.703V75.4252Z" fill="black"/>
<path d="M116.559 75.4252H113.131V78.853H116.559V75.4252Z" fill="black"/>
<path d="M13.7239 78.853H10.2961V82.2809H13.7239V78.853Z" fill="black"/>
<path d="M20.5796 78.853H17.1517V82.2809H20.5796V78.853Z" fill="black"/>
<path d="M24.0074 78.853H20.5796V82.2809H24.0074V78.853Z" fill="black"/>
<path d="M27.4352 78.853H24.0074V82.2809H27.4352V78.853Z" fill="black"/>
<path d="M30.863 78.853H27.4352V82.2809H30.863V78.853Z" fill="black"/>
<path d="M37.7187 78.853H34.2909V82.2809H37.7187V78.853Z" fill="black"/>
<path d="M44.5744 78.853H41.1465V82.2809H44.5744V78.853Z" fill="black"/>
<path d="M51.43 78.853H48.0022V82.2809H51.43V78.853Z" fill="black"/>
<path d="M54.8578 78.853H51.43V82.2809H54.8578V78.853Z" fill="black"/>
<path d="M61.7135 78.853H58.2857V82.2809H61.7135V78.853Z" fill="black"/>
<path d="M71.997 78.853H68.5691V82.2809H71.997V78.853Z" fill="black"/>
<path d="M75.4248 78.853H71.997V82.2809H75.4248V78.853Z" fill="black"/>
<path d="M78.8526 78.853H75.4248V82.2809H78.8526V78.853Z" fill="black"/>
<path d="M85.7083 78.853H82.2805V82.2809H85.7083V78.853Z" fill="black"/>
<path d="M89.1361 78.853H85.7083V82.2809H89.1361V78.853Z" fill="black"/>
<path d="M99.4196 78.853H95.9918V82.2809H99.4196V78.853Z" fill="black"/>
<path d="M109.703 78.853H106.275V82.2809H109.703V78.853Z" fill="black"/>
<path d="M6.86826 82.2809H3.44043V85.7087H6.86826V82.2809Z" fill="black"/>
<path d="M10.2961 82.2809H6.86826V85.7087H10.2961V82.2809Z" fill="black"/>
<path d="M13.7239 82.2809H10.2961V85.7087H13.7239V82.2809Z" fill="black"/>
<path d="M17.1517 82.2809H13.7239V85.7087H17.1517V82.2809Z" fill="black"/>
<path d="M30.863 82.2809H27.4352V85.7087H30.863V82.2809Z" fill="black"/>
<path d="M37.7187 82.2809H34.2909V85.7087H37.7187V82.2809Z" fill="black"/>
<path d="M41.1465 82.2809H37.7187V85.7087H41.1465V82.2809Z" fill="black"/>
<path d="M44.5744 82.2809H41.1465V85.7087H44.5744V82.2809Z" fill="black"/>
<path d="M61.7135 82.2809H58.2857V85.7087H61.7135V82.2809Z" fill="black"/>
<path d="M65.1413 82.2809H61.7135V85.7087H65.1413V82.2809Z" fill="black"/>
<path d="M71.997 82.2809H68.5691V85.7087H71.997V82.2809Z" fill="black"/>
<path d="M78.8526 82.2809H75.4248V85.7087H78.8526V82.2809Z" fill="black"/>
<path d="M82.2805 82.2809H78.8526V85.7087H82.2805V82.2809Z" fill="black"/>
<path d="M95.9918 82.2809H92.5639V85.7087H95.9918V82.2809Z" fill="black"/>
<path d="M99.4196 82.2809H95.9918V85.7087H99.4196V82.2809Z" fill="black"/>
<path d="M102.847 82.2809H99.4196V85.7087H102.847V82.2809Z" fill="black"/>
<path d="M13.7239 85.7087H10.2961V89.1365H13.7239V85.7087Z" fill="black"/>
<path d="M27.4352 85.7087H24.0074V89.1365H27.4352V85.7087Z" fill="black"/>
<path d="M30.863 85.7087H27.4352V89.1365H30.863V85.7087Z" fill="black"/>
<path d="M37.7187 85.7087H34.2909V89.1365H37.7187V85.7087Z" fill="black"/>
<path d="M41.1465 85.7087H37.7187V89.1365H41.1465V85.7087Z" fill="black"/>
<path d="M61.7135 85.7087H58.2857V89.1365H61.7135V85.7087Z" fill="black"/>
<path d="M65.1413 85.7087H61.7135V89.1365H65.1413V85.7087Z" fill="black"/>
<path d="M68.5691 85.7087H65.1413V89.1365H68.5692L68.5691 85.7087Z" fill="black"/>
<path d="M75.4248 85.7087H71.997V89.1365H75.4248V85.7087Z" fill="black"/>
<path d="M78.8526 85.7087H75.4248V89.1365H78.8526V85.7087Z" fill="black"/>
<path d="M89.1361 85.7087H85.7083V89.1365H89.1361V85.7087Z" fill="black"/>
<path d="M92.5639 85.7087H89.1361V89.1365H92.5639V85.7087Z" fill="black"/>
<path d="M95.9918 85.7087H92.5639V89.1365H95.9918V85.7087Z" fill="black"/>
<path d="M99.4196 85.7087H95.9918V89.1365H99.4196V85.7087Z" fill="black"/>
<path d="M102.847 85.7087H99.4196V89.1365H102.847V85.7087Z" fill="black"/>
<path d="M109.703 85.7087H106.275V89.1365H109.703V85.7087Z" fill="black"/>
<path d="M113.131 85.7087H109.703V89.1365H113.131V85.7087Z" fill="black"/>
<path d="M41.1465 89.1365H37.7187V92.5644H41.1465V89.1365Z" fill="black"/>
<path d="M44.5744 89.1365H41.1465V92.5644H44.5744V89.1365Z" fill="black"/>
<path d="M51.43 89.1365H48.0022V92.5644H51.43V89.1365Z" fill="black"/>
<path d="M58.2857 89.1365H54.8578V92.5644H58.2857V89.1365Z" fill="black"/>
<path d="M61.7135 89.1365H58.2857V92.5644H61.7135V89.1365Z" fill="black"/>
<path d="M65.1413 89.1365H61.7135V92.5644H65.1413V89.1365Z" fill="black"/>
<path d="M71.997 89.1365H68.5692L68.5691 92.5644H71.997V89.1365Z" fill="black"/>
<path d="M75.4248 89.1365H71.997V92.5644H75.4248V89.1365Z" fill="black"/>
<path d="M78.8526 89.1365H75.4248V92.5644H78.8526V89.1365Z" fill="black"/>
<path d="M89.1361 89.1365H85.7083V92.5644H89.1361V89.1365Z" fill="black"/>
<path d="M102.847 89.1365H99.4196V92.5644H102.847V89.1365Z" fill="black"/>
<path d="M109.703 89.1365H106.275V92.5644H109.703V89.1365Z" fill="black"/>
<path d="M6.86826 92.5644H3.44043V95.9922H6.86826V92.5644Z" fill="black"/>
<path d="M10.2961 92.5644H6.86826V95.9922H10.2961V92.5644Z" fill="black"/>
<path d="M13.7239 92.5644H10.2961V95.9922H13.7239V92.5644Z" fill="black"/>
<path d="M17.1517 92.5644H13.7239V95.9922H17.1517V92.5644Z" fill="black"/>
<path d="M20.5796 92.5644H17.1517V95.9922H20.5796V92.5644Z" fill="black"/>
<path d="M24.0074 92.5644H20.5796V95.9922H24.0074V92.5644Z" fill="black"/>
<path d="M27.4352 92.5644H24.0074V95.9922H27.4352V92.5644Z" fill="black"/>
<path d="M34.2909 92.5644H30.863V95.9922H34.2909V92.5644Z" fill="black"/>
<path d="M37.7187 92.5644H34.2909V95.9922H37.7187V92.5644Z" fill="black"/>
<path d="M41.1465 92.5644H37.7187V95.9922H41.1465V92.5644Z" fill="black"/>
<path d="M54.8578 92.5644H51.43V95.9922H54.8578V92.5644Z" fill="black"/>
<path d="M58.2857 92.5644H54.8578V95.9922H58.2857V92.5644Z" fill="black"/>
<path d="M61.7135 92.5644H58.2857V95.9922H61.7135V92.5644Z" fill="black"/>
<path d="M65.1413 92.5644H61.7135V95.9922H65.1413V92.5644Z" fill="black"/>
<path d="M71.997 92.5644H68.5691V95.9922H71.997V92.5644Z" fill="black"/>
<path d="M78.8526 92.5644H75.4248V95.9922H78.8526V92.5644Z" fill="black"/>
<path d="M82.2805 92.5644H78.8526V95.9922H82.2805V92.5644Z" fill="black"/>
<path d="M89.1361 92.5644H85.7083V95.9922H89.1361V92.5644Z" fill="black"/>
<path d="M95.9918 92.5644H92.5639V95.9922H95.9918V92.5644Z" fill="black"/>
<path d="M102.847 92.5644H99.4196V95.9922H102.847V92.5644Z" fill="black"/>
<path d="M109.703 92.5644H106.275V95.9922H109.703V92.5644Z" fill="black"/>
<path d="M113.131 92.5644H109.703V95.9922H113.131V92.5644Z" fill="black"/>
<path d="M6.86826 95.9922H3.44043V99.42H6.86826V95.9922Z" fill="black"/>
<path d="M27.4352 95.9922H24.0074V99.42H27.4352V95.9922Z" fill="black"/>
<path d="M37.7187 95.9922H34.2909V99.42H37.7187V95.9922Z" fill="black"/>
<path d="M41.1465 95.9922H37.7187V99.42H41.1465V95.9922Z" fill="black"/>
<path d="M44.5744 95.9922H41.1465V99.42H44.5744V95.9922Z" fill="black"/>
<path d="M48.0022 95.9922H44.5744V99.42H48.0022V95.9922Z" fill="black"/>
<path d="M51.43 95.9922H48.0022V99.42H51.43V95.9922Z" fill="black"/>
<path d="M54.8578 95.9922H51.43V99.42H54.8578V95.9922Z" fill="black"/>
<path d="M58.2857 95.9922H54.8578V99.42H58.2857V95.9922Z" fill="black"/>
<path d="M68.5691 95.9922H65.1413V99.42H68.5692L68.5691 95.9922Z" fill="black"/>
<path d="M82.2805 95.9922H78.8526V99.42H82.2805V95.9922Z" fill="black"/>
<path d="M85.7083 95.9922H82.2805V99.42H85.7083V95.9922Z" fill="black"/>
<path d="M89.1361 95.9922H85.7083V99.42H89.1361V95.9922Z" fill="black"/>
<path d="M102.847 95.9922H99.4196V99.42H102.847V95.9922Z" fill="black"/>
<path d="M106.275 95.9922H102.847V99.42H106.275V95.9922Z" fill="black"/>
<path d="M109.703 95.9922H106.275V99.42H109.703V95.9922Z" fill="black"/>
<path d="M113.131 95.9922H109.703V99.42H113.131V95.9922Z" fill="black"/>
<path d="M6.86826 99.42H3.44043V102.848H6.86826V99.42Z" fill="black"/>
<path d="M13.7239 99.42H10.2961V102.848H13.7239V99.42Z" fill="black"/>
<path d="M17.1517 99.42H13.7239V102.848H17.1517V99.42Z" fill="black"/>
<path d="M20.5796 99.42H17.1517V102.848H20.5796V99.42Z" fill="black"/>
<path d="M27.4352 99.42H24.0074V102.848H27.4352V99.42Z" fill="black"/>
<path d="M41.1465 99.42H37.7187V102.848H41.1465V99.42Z" fill="black"/>
<path d="M48.0022 99.42H44.5744V102.848H48.0022V99.42Z" fill="black"/>
<path d="M54.8578 99.42H51.43V102.848H54.8578V99.42Z" fill="black"/>
<path d="M58.2857 99.42H54.8578V102.848H58.2857V99.42Z" fill="black"/>
<path d="M61.7135 99.42H58.2857V102.848H61.7135V99.42Z" fill="black"/>
<path d="M65.1413 99.42H61.7135V102.848H65.1413V99.42Z" fill="black"/>
<path d="M68.5692 99.42H65.1413V102.848H68.5692V99.42Z" fill="black"/>
<path d="M71.997 99.42H68.5692V102.848H71.997V99.42Z" fill="black"/>
<path d="M82.2805 99.42H78.8526V102.848H82.2805V99.42Z" fill="black"/>
<path d="M89.1361 99.42H85.7083V102.848H89.1361V99.42Z" fill="black"/>
<path d="M92.5639 99.42H89.1361V102.848H92.5639V99.42Z" fill="black"/>
<path d="M95.9918 99.42H92.5639V102.848H95.9918V99.42Z" fill="black"/>
<path d="M99.4196 99.42H95.9918V102.848H99.4196V99.42Z" fill="black"/>
<path d="M102.847 99.42H99.4196V102.848H102.847V99.42Z" fill="black"/>
<path d="M113.131 99.42H109.703V102.848H113.131V99.42Z" fill="black"/>
<path d="M116.559 99.42H113.131V102.848H116.559V99.42Z" fill="black"/>
<path d="M6.86826 102.848H3.44043V106.276H6.86826V102.848Z" fill="black"/>
<path d="M13.7239 102.848H10.2961V106.276H13.7239V102.848Z" fill="black"/>
<path d="M17.1517 102.848H13.7239V106.276H17.1517V102.848Z" fill="black"/>
<path d="M20.5796 102.848H17.1517V106.276H20.5796V102.848Z" fill="black"/>
<path d="M27.4352 102.848H24.0074V106.276H27.4352V102.848Z" fill="black"/>
<path d="M34.2909 102.848H30.863V106.276H34.2909V102.848Z" fill="black"/>
<path d="M37.7187 102.848H34.2909V106.276H37.7187V102.848Z" fill="black"/>
<path d="M41.1465 102.848H37.7187V106.276H41.1465V102.848Z" fill="black"/>
<path d="M44.5744 102.848H41.1465V106.276H44.5744V102.848Z" fill="black"/>
<path d="M48.0022 102.848H44.5744V106.276H48.0022V102.848Z" fill="black"/>
<path d="M54.8578 102.848H51.43V106.276H54.8578V102.848Z" fill="black"/>
<path d="M58.2857 102.848H54.8578V106.276H58.2857V102.848Z" fill="black"/>
<path d="M61.7135 102.848H58.2857V106.276H61.7135V102.848Z" fill="black"/>
<path d="M65.1413 102.848H61.7135V106.276H65.1413V102.848Z" fill="black"/>
<path d="M75.4248 102.848H71.997V106.276H75.4248V102.848Z" fill="black"/>
<path d="M82.2805 102.848H78.8526V106.276H82.2805V102.848Z" fill="black"/>
<path d="M85.7083 102.848H82.2805V106.276H85.7083V102.848Z" fill="black"/>
<path d="M92.5639 102.848H89.1361V106.276H92.5639V102.848Z" fill="black"/>
<path d="M99.4196 102.848H95.9918V106.276H99.4196V102.848Z" fill="black"/>
<path d="M106.275 102.848H102.847V106.276H106.275V102.848Z" fill="black"/>
<path d="M109.703 102.848H106.275V106.276H109.703V102.848Z" fill="black"/>
<path d="M113.131 102.848H109.703V106.276H113.131V102.848Z" fill="black"/>
<path d="M6.86826 106.276H3.44043V109.703H6.86826V106.276Z" fill="black"/>
<path d="M13.7239 106.276H10.2961V109.703H13.7239V106.276Z" fill="black"/>
<path d="M17.1517 106.276H13.7239V109.703H17.1517V106.276Z" fill="black"/>
<path d="M20.5796 106.276H17.1517V109.703H20.5796V106.276Z" fill="black"/>
<path d="M27.4352 106.276H24.0074V109.703H27.4352V106.276Z" fill="black"/>
<path d="M37.7187 106.276H34.2909V109.703H37.7187V106.276Z" fill="black"/>
<path d="M54.8578 106.276H51.43V109.703H54.8578V106.276Z" fill="black"/>
<path d="M58.2857 106.276H54.8578V109.703H58.2857V106.276Z" fill="black"/>
<path d="M61.7135 106.276H58.2857V109.703H61.7135V106.276Z" fill="black"/>
<path d="M68.5692 106.276H65.1413V109.703H68.5692V106.276Z" fill="black"/>
<path d="M75.4248 106.276H71.997V109.703H75.4248V106.276Z" fill="black"/>
<path d="M78.8526 106.276H75.4248V109.703H78.8526V106.276Z" fill="black"/>
<path d="M82.2805 106.276H78.8526V109.703H82.2805V106.276Z" fill="black"/>
<path d="M99.4196 106.276H95.9918V109.703H99.4196V106.276Z" fill="black"/>
<path d="M102.847 106.276H99.4196V109.703H102.847V106.276Z" fill="black"/>
<path d="M109.703 106.276H106.275V109.703H109.703V106.276Z" fill="black"/>
<path d="M116.559 106.276H113.131V109.703H116.559V106.276Z" fill="black"/>
<path d="M6.86826 109.703H3.44043V113.131H6.86826V109.703Z" fill="black"/>
<path d="M27.4352 109.703H24.0074V113.131H27.4352V109.703Z" fill="black"/>
<path d="M34.2909 109.703H30.863V113.131H34.2909V109.703Z" fill="black"/>
<path d="M37.7187 109.703H34.2909V113.131H37.7187V109.703Z" fill="black"/>
<path d="M41.1465 109.703H37.7187V113.131H41.1465V109.703Z" fill="black"/>
<path d="M48.0022 109.703H44.5744V113.131H48.0022V109.703Z" fill="black"/>
<path d="M51.43 109.703H48.0022V113.131H51.43V109.703Z" fill="black"/>
<path d="M65.1413 109.703H61.7135V113.131H65.1413V109.703Z" fill="black"/>
<path d="M68.5692 109.703H65.1413V113.131H68.5692V109.703Z" fill="black"/>
<path d="M82.2805 109.703H78.8526V113.131H82.2805V109.703Z" fill="black"/>
<path d="M99.4196 109.703H95.9918V113.131H99.4196V109.703Z" fill="black"/>
<path d="M102.847 109.703H99.4196V113.131H102.847V109.703Z" fill="black"/>
<path d="M6.86826 113.131H3.44043V116.559H6.86826V113.131Z" fill="black"/>
<path d="M10.2961 113.131H6.86826V116.559H10.2961V113.131Z" fill="black"/>
<path d="M13.7239 113.131H10.2961V116.559H13.7239V113.131Z" fill="black"/>
<path d="M17.1517 113.131H13.7239V116.559H17.1517V113.131Z" fill="black"/>
<path d="M20.5796 113.131H17.1517V116.559H20.5796V113.131Z" fill="black"/>
<path d="M24.0074 113.131H20.5796V116.559H24.0074V113.131Z" fill="black"/>
<path d="M27.4352 113.131H24.0074V116.559H27.4352V113.131Z" fill="black"/>
<path d="M34.2909 113.131H30.863V116.559H34.2909V113.131Z" fill="black"/>
<path d="M37.7187 113.131H34.2909V116.559H37.7187V113.131Z" fill="black"/>
<path d="M41.1465 113.131H37.7187V116.559H41.1465V113.131Z" fill="black"/>
<path d="M44.5744 113.131H41.1465V116.559H44.5744V113.131Z" fill="black"/>
<path d="M48.0022 113.131H44.5744V116.559H48.0022V113.131Z" fill="black"/>
<path d="M65.1413 113.131H61.7135V116.559H65.1413V113.131Z" fill="black"/>
<path d="M75.4248 113.131H71.997V116.559H75.4248V113.131Z" fill="black"/>
<path d="M78.8526 113.131H75.4248V116.559H78.8526V113.131Z" fill="black"/>
<path d="M82.2805 113.131H78.8526V116.559H82.2805V113.131Z" fill="black"/>
<path d="M99.4196 113.131H95.9918V116.559H99.4196V113.131Z" fill="black"/>
<path d="M102.847 113.131H99.4196V116.559H102.847V113.131Z" fill="black"/>
<path d="M106.275 113.131H102.847V116.559H106.275V113.131Z" fill="black"/>
<path d="M113.131 113.131H109.703V116.559H113.131V113.131Z" fill="black"/>
</g>
</g>
<defs>
<clipPath id="clip0_4603_64864">
<rect width="120" height="120" fill="white"/>
</clipPath>
</defs>
</svg>
