<svg width="160" height="130" viewBox="0 0 160 130" fill="none" xmlns="http://www.w3.org/2000/svg">
<g id="Quote mark" clip-path="url(#clip0_4603_64946)">
<path id="&#226;&#128;&#156;" fill-rule="evenodd" clip-rule="evenodd" d="M0.701694 109.696C24.561 98.4164 36.4905 85.1628 36.4905 69.9349C26.3209 68.8069 17.9116 64.812 11.2623 57.9501C4.613 51.0882 1.28841 43.1454 1.28841 34.1215C1.28841 24.5336 4.51523 16.4498 10.969 9.86983C17.4227 3.2899 25.5387 -1.65234e-05 35.3171 -1.56685e-05C46.2689 -1.47111e-05 55.7538 4.27688 63.7721 12.8308C71.7904 21.3847 75.7995 31.7714 75.7995 43.9913C75.7995 80.6509 54.4829 109.32 11.849 130L0.701694 109.696ZM84.9022 109.696C108.957 98.4164 120.984 85.1628 120.984 69.9349C110.619 68.8069 102.112 64.812 95.4629 57.9501C88.8135 51.0882 85.4889 43.1454 85.4889 34.1215C85.4889 24.5336 88.7647 16.4498 95.3162 9.86984C101.868 3.2899 110.033 -9.13666e-06 119.811 -8.28181e-06C130.763 -7.32437e-06 140.199 4.27689 148.119 12.8308C156.04 21.3847 160 31.7714 160 43.9913C160 80.6509 138.781 109.32 96.3429 130L84.9022 109.696Z" fill="white"/>
</g>
<defs>
<clipPath id="clip0_4603_64946">
<rect width="160" height="130" fill="white" transform="translate(160 130) rotate(-180)"/>
</clipPath>
</defs>
</svg>
