<svg width="35" height="35" viewBox="0 0 35 35" fill="none" xmlns="http://www.w3.org/2000/svg">
<g id="socials">
<rect id="Rectangle 1" width="35" height="35" rx="8" fill="#333333"/>
<g id="instagram">
<path d="M17.5 10.3313C19.8193 10.3313 20.1355 10.3313 21.0843 10.3313C21.9277 10.3313 22.3494 10.5422 22.6657 10.6476C23.0874 10.8584 23.4036 10.9639 23.7199 11.2801C24.0361 11.5964 24.247 11.9127 24.3524 12.3343C24.4578 12.6506 24.5633 13.0723 24.6687 13.9157C24.6687 14.8645 24.6687 15.0753 24.6687 17.5C24.6687 19.9247 24.6687 20.1355 24.6687 21.0843C24.6687 21.9277 24.4578 22.3494 24.3524 22.6657C24.1416 23.0874 24.0361 23.4036 23.7199 23.7199C23.4036 24.0361 23.0874 24.247 22.6657 24.3524C22.3494 24.4578 21.9277 24.5633 21.0843 24.6687C20.1355 24.6687 19.9247 24.6687 17.5 24.6687C15.0753 24.6687 14.8645 24.6687 13.9157 24.6687C13.0723 24.6687 12.6506 24.4578 12.3343 24.3524C11.9127 24.1416 11.5964 24.0361 11.2801 23.7199C10.9639 23.4036 10.753 23.0874 10.6476 22.6657C10.5422 22.3494 10.4367 21.9277 10.3313 21.0843C10.3313 20.1355 10.3313 19.9247 10.3313 17.5C10.3313 15.0753 10.3313 14.8645 10.3313 13.9157C10.3313 13.0723 10.5422 12.6506 10.6476 12.3343C10.8584 11.9127 10.9639 11.5964 11.2801 11.2801C11.5964 10.9639 11.9127 10.753 12.3343 10.6476C12.6506 10.5422 13.0723 10.4367 13.9157 10.3313C14.8645 10.3313 15.1807 10.3313 17.5 10.3313ZM17.5 8.75C15.0753 8.75 14.8645 8.75 13.9157 8.75C12.9669 8.75 12.3343 8.96084 11.8072 9.17169C11.2801 9.38253 10.753 9.6988 10.2259 10.2259C9.6988 10.753 9.48795 11.1747 9.17169 11.8072C8.96084 12.3343 8.85542 12.9669 8.75 13.9157C8.75 14.8645 8.75 15.1807 8.75 17.5C8.75 19.9247 8.75 20.1355 8.75 21.0843C8.75 22.0331 8.96084 22.6657 9.17169 23.1928C9.38253 23.7199 9.6988 24.247 10.2259 24.7741C10.753 25.3012 11.1747 25.5121 11.8072 25.8283C12.3343 26.0392 12.9669 26.1446 13.9157 26.25C14.8645 26.25 15.1807 26.25 17.5 26.25C19.8193 26.25 20.1355 26.25 21.0843 26.25C22.0331 26.25 22.6657 26.0392 23.1928 25.8283C23.7199 25.6175 24.247 25.3012 24.7741 24.7741C25.3012 24.247 25.5121 23.8253 25.8283 23.1928C26.0392 22.6657 26.1446 22.0331 26.25 21.0843C26.25 20.1355 26.25 19.8193 26.25 17.5C26.25 15.1807 26.25 14.8645 26.25 13.9157C26.25 12.9669 26.0392 12.3343 25.8283 11.8072C25.6175 11.2801 25.3012 10.753 24.7741 10.2259C24.247 9.6988 23.8253 9.48795 23.1928 9.17169C22.6657 8.96084 22.0331 8.85542 21.0843 8.75C20.1355 8.75 19.9247 8.75 17.5 8.75Z" fill="white"/>
<path d="M17.5 12.9669C14.9699 12.9669 12.9669 14.9699 12.9669 17.5C12.9669 20.0301 14.9699 22.0331 17.5 22.0331C20.0301 22.0331 22.0331 20.0301 22.0331 17.5C22.0331 14.9699 20.0301 12.9669 17.5 12.9669ZM17.5 20.4518C15.9187 20.4518 14.5482 19.1867 14.5482 17.5C14.5482 15.9187 15.8133 14.5482 17.5 14.5482C19.0813 14.5482 20.4518 15.8133 20.4518 17.5C20.4518 19.0813 19.0813 20.4518 17.5 20.4518Z" fill="white"/>
<path d="M22.1386 13.9157C22.7208 13.9157 23.1928 13.4437 23.1928 12.8614C23.1928 12.2792 22.7208 11.8072 22.1386 11.8072C21.5563 11.8072 21.0843 12.2792 21.0843 12.8614C21.0843 13.4437 21.5563 13.9157 22.1386 13.9157Z" fill="white"/>
</g>
</g>
</svg>
