<svg width="35" height="35" viewBox="0 0 35 35" fill="none" xmlns="http://www.w3.org/2000/svg">
<g id="socials">
<rect id="Rectangle 1" width="35" height="35" rx="8" fill="#F6F6F6"/>
<g id="Vector">
<path d="M22.9579 19.9437C23.4171 19.4846 23.4827 18.8287 23.0891 18.1728C22.7612 17.648 22.1709 17.3857 21.5149 17.5169C21.2526 17.5825 20.9902 17.7136 20.7278 17.9104C18.6945 19.2878 15.9397 19.2222 13.9064 17.8448C13.7752 17.7792 13.644 17.7136 13.5128 17.648C12.7913 17.3201 12.0699 17.4513 11.6763 18.1072C11.2172 18.7631 11.2828 19.4846 11.8731 20.0749C11.9759 20.1777 12.0787 20.2403 12.15 20.3257C12.1893 20.3729 12.2232 20.425 12.2666 20.4685V20.4685C12.9173 20.9797 13.6668 21.3592 14.5617 21.607C15.0385 21.739 15.24 22.3488 14.8903 22.6986V22.6986C14.1688 23.42 13.3817 24.2071 12.6602 24.9286C12.4634 25.1254 12.201 25.4534 12.201 25.9125C12.201 26.3078 12.3481 26.7031 12.6225 26.9999C12.9004 27.3005 13.3003 27.4867 13.7096 27.4867V27.4867C14.0376 27.4867 14.4311 27.3555 14.6935 27.0275C15.6773 26.0437 16.4644 25.2566 17.2515 24.4695V24.4695C17.268 24.4531 17.379 24.4352 17.382 24.4582C17.3821 24.4591 17.3822 24.46 17.3823 24.4608C17.3828 24.4664 17.3848 24.4718 17.3885 24.4759C17.9117 25.0636 18.4997 25.5867 19.0225 26.1749C19.2849 26.4372 19.5472 26.6996 19.8096 26.962C20.1375 27.2899 20.3999 27.4211 20.7934 27.4211C21.3838 27.4867 22.0397 27.0931 22.302 26.5028C22.5644 25.9781 22.4332 25.3222 21.9741 24.9286C21.3182 24.2727 20.6623 23.5512 19.9408 22.8953V22.8953C19.4914 22.4459 19.7646 21.6582 20.3621 21.4417C20.4636 21.405 20.5638 21.3649 20.6623 21.3211C21.6461 20.9932 22.3676 20.534 22.9579 19.9437Z" fill="#111827"/>
<path d="M17.3171 18.1072C20.1375 18.1072 22.4332 15.8771 22.4332 13.0567C22.4332 11.6793 21.9085 10.3675 20.9246 9.38359C19.9408 8.39973 18.6945 7.875 17.3827 7.875C14.5623 7.875 12.3322 10.1707 12.2666 12.9255C12.2666 14.3029 12.7914 15.5491 13.7752 16.533C14.6935 17.5824 15.9397 18.1072 17.3171 18.1072ZM15.8741 11.5481C16.2677 11.1545 16.7924 10.9578 17.3171 10.9578C18.4978 10.9578 19.3504 11.876 19.3504 12.9911C19.3504 14.1717 18.4322 15.0244 17.3171 15.0244C16.1365 15.0244 15.2838 14.1061 15.2838 12.9911C15.2838 12.4664 15.4806 11.9416 15.8741 11.5481Z" fill="#111827"/>
<path d="M22.9579 19.9437C23.4171 19.4846 23.4827 18.8287 23.0891 18.1728C22.7612 17.648 22.1709 17.3857 21.5149 17.5169C21.2526 17.5825 20.9902 17.7136 20.7278 17.9104C18.6945 19.2878 15.9397 19.2222 13.9064 17.8448C13.7752 17.7792 13.644 17.7136 13.5128 17.648C12.7913 17.3201 12.0699 17.4513 11.6763 18.1072C11.2172 18.7631 11.2828 19.4846 11.8731 20.0749C11.9759 20.1777 12.0787 20.2403 12.15 20.3257C12.1893 20.3729 12.2232 20.425 12.2666 20.4685V20.4685C12.9173 20.9797 13.6668 21.3592 14.5617 21.607C15.0385 21.739 15.24 22.3488 14.8903 22.6986V22.6986C14.1688 23.42 13.3817 24.2071 12.6602 24.9286C12.4634 25.1254 12.201 25.4534 12.201 25.9125C12.201 26.3078 12.3481 26.7031 12.6225 26.9999C12.9004 27.3005 13.3003 27.4867 13.7096 27.4867V27.4867C14.0376 27.4867 14.4311 27.3555 14.6935 27.0275C15.6773 26.0437 16.4644 25.2566 17.2515 24.4695V24.4695C17.268 24.4531 17.379 24.4352 17.382 24.4582C17.3821 24.4591 17.3822 24.46 17.3823 24.4608C17.3828 24.4664 17.3848 24.4718 17.3885 24.4759C17.9117 25.0636 18.4997 25.5867 19.0225 26.1749C19.2849 26.4372 19.5472 26.6996 19.8096 26.962C20.1375 27.2899 20.3999 27.4211 20.7934 27.4211C21.3838 27.4867 22.0397 27.0931 22.302 26.5028C22.5644 25.9781 22.4332 25.3222 21.9741 24.9286C21.3182 24.2727 20.6623 23.5512 19.9408 22.8953V22.8953C19.4914 22.4459 19.7646 21.6582 20.3621 21.4417C20.4636 21.405 20.5638 21.3649 20.6623 21.3211C21.6461 20.9932 22.3676 20.534 22.9579 19.9437Z" fill="#111827"/>
</g>
</g>
</svg>
