<svg width="50" height="51" viewBox="0 0 50 51" fill="none" xmlns="http://www.w3.org/2000/svg">
<g id="socials">
<rect id="Rectangle 1" y="0.5" width="50" height="50" rx="8" fill="#F6F6F6"/>
<path id="Vector" d="M34.9085 15.5781C32.439 13.1172 29.1463 11.75 25.6707 11.75C18.4451 11.75 12.5915 17.5833 12.5915 24.7839C12.5915 27.0625 13.2317 29.3411 14.3293 31.2552L12.5 38L19.4512 36.1771C21.372 37.1797 23.4756 37.7266 25.6707 37.7266C32.8963 37.7266 38.75 31.8932 38.75 24.6927C38.6585 21.3203 37.378 18.0391 34.9085 15.5781ZM31.9817 29.4323C31.7073 30.1615 30.4268 30.8906 29.7866 30.9818C29.2378 31.0729 28.5061 31.0729 27.7744 30.8906C27.3171 30.7083 26.6768 30.526 25.9451 30.1615C22.6524 28.7943 20.5488 25.513 20.3659 25.2396C20.1829 25.0573 18.9939 23.5078 18.9939 21.8672C18.9939 20.2266 19.8171 19.4974 20.0915 19.1328C20.3659 18.7682 20.7317 18.7682 21.0061 18.7682C21.189 18.7682 21.4634 18.7682 21.6463 18.7682C21.8293 18.7682 22.1037 18.6771 22.378 19.3151C22.6524 19.9531 23.2927 21.5938 23.3841 21.6849C23.4756 21.8672 23.4756 22.0495 23.3841 22.2318C23.2927 22.4141 23.2012 22.5964 23.0183 22.7786C22.8354 22.9609 22.6524 23.2344 22.561 23.3255C22.378 23.5078 22.1951 23.6901 22.378 23.9635C22.561 24.3281 23.2012 25.3307 24.2073 26.2422C25.4878 27.3359 26.4939 27.7005 26.8598 27.8828C27.2256 28.0651 27.4085 27.974 27.5915 27.7917C27.7744 27.6094 28.4146 26.8802 28.5976 26.5156C28.7805 26.151 29.0549 26.2422 29.3293 26.3333C29.6037 26.4245 31.25 27.2448 31.5244 27.4271C31.8902 27.6094 32.0732 27.7005 32.1646 27.7917C32.2561 28.0651 32.2561 28.7031 31.9817 29.4323Z" fill="#111827"/>
</g>
</svg>
