<svg width="50" height="51" viewBox="0 0 50 51" fill="none" xmlns="http://www.w3.org/2000/svg">
<g id="socials">
<rect id="Rectangle 1" y="0.5" width="50" height="50" rx="8" fill="#F6F6F6"/>
<path id="Vector" d="M27.0713 28.46C27.0713 27.0771 28.1924 25.956 29.5754 25.956H29.6838C30.8575 25.956 31.8557 25.0995 32.0339 23.9394V23.9394C32.2551 22.4992 31.1408 21.2007 29.6838 21.2007H29.5569C28.1837 21.2007 27.0704 20.0874 27.0704 18.7142V18.6017C27.0704 16.6262 27.712 14.8745 29.5486 14.8745H30.2848C31.5082 14.8745 32.5 13.8827 32.5 12.6593V12.6593C32.5 11.5511 31.6818 10.6003 30.5752 10.5426C30.0863 10.5172 29.5036 10.5 28.8125 10.5C24.4852 10.5 21.9483 12.7991 21.9483 18.0371V18.9765C21.9483 20.2049 20.9525 21.2007 19.7242 21.2007V21.2007C18.4958 21.2007 17.5 22.1965 17.5 23.4249V23.7318C17.5 24.9602 18.4958 25.956 19.7242 25.956V25.956C20.9525 25.956 21.9483 26.9518 21.9483 28.1802V36.3252C21.9483 37.8782 23.0846 39.25 24.6376 39.25V39.25V39.25C26.0369 39.25 27.0713 38.0219 27.0713 36.6227V28.46Z" fill="#111827"/>
</g>
</svg>
