<svg width="35" height="35" viewBox="0 0 35 35" fill="none" xmlns="http://www.w3.org/2000/svg">
<g id="socials">
<rect id="Rectangle 1" width="35" height="35" rx="8" fill="#F6F6F6"/>
<path id="Vector" d="M26.775 13.0375C26.1625 13.3 25.4625 13.475 24.7625 13.5625C25.4625 13.125 26.075 12.425 26.3375 11.6375C25.6375 12.075 24.9375 12.3375 24.0625 12.5125C23.45 11.8125 22.4875 11.375 21.525 11.375C19.6 11.375 18.025 12.95 18.025 14.875C18.025 15.1375 18.025 15.4 18.1125 15.6625C15.225 15.4875 12.6 14.0875 10.85 11.9875C10.5875 12.5125 10.4125 13.125 10.4125 13.7375C10.4125 14.9625 11.025 16.0125 11.9875 16.625C11.375 16.625 10.85 16.45 10.4125 16.1875C10.4125 17.85 11.6375 19.3375 13.2125 19.6C12.95 19.6875 12.6 19.6875 12.25 19.6875C11.9875 19.6875 11.8125 19.6875 11.55 19.6C11.9875 21 13.3 22.05 14.875 22.05C13.65 23.0125 12.1625 23.5375 10.5 23.5375C10.2375 23.5375 9.975 23.5375 9.625 23.45C11.2 24.4125 13.0375 25.025 15.05 25.025C21.525 25.025 25.025 19.6875 25.025 15.05V14.6125C25.725 14.35 26.3375 13.7375 26.775 13.0375Z" fill="#111827"/>
</g>
</svg>
