<svg width="50" height="51" viewBox="0 0 50 51" fill="none" xmlns="http://www.w3.org/2000/svg">
<rect y="0.5" width="50" height="50" rx="8" fill="#F6F6F6"/>
<path d="M25 15.259C28.3133 15.259 28.7651 15.259 30.1205 15.259C31.3253 15.259 31.9277 15.5602 32.3795 15.7108C32.9819 16.012 33.4337 16.1627 33.8855 16.6145C34.3374 17.0663 34.6386 17.5181 34.7892 18.1205C34.9398 18.5723 35.0904 19.1747 35.241 20.3795C35.241 21.7349 35.241 22.0361 35.241 25.5C35.241 28.9639 35.241 29.2651 35.241 30.6205C35.241 31.8253 34.9398 32.4277 34.7892 32.8795C34.488 33.4819 34.3374 33.9337 33.8855 34.3855C33.4337 34.8374 32.9819 35.1386 32.3795 35.2892C31.9277 35.4398 31.3253 35.5904 30.1205 35.741C28.7651 35.741 28.4639 35.741 25 35.741C21.5361 35.741 21.2349 35.741 19.8795 35.741C18.6747 35.741 18.0723 35.4398 17.6205 35.2892C17.0181 34.988 16.5663 34.8374 16.1145 34.3855C15.6627 33.9337 15.3614 33.4819 15.2108 32.8795C15.0602 32.4277 14.9096 31.8253 14.759 30.6205C14.759 29.2651 14.759 28.9639 14.759 25.5C14.759 22.0361 14.759 21.7349 14.759 20.3795C14.759 19.1747 15.0602 18.5723 15.2108 18.1205C15.512 17.5181 15.6627 17.0663 16.1145 16.6145C16.5663 16.1627 17.0181 15.8614 17.6205 15.7108C18.0723 15.5602 18.6747 15.4096 19.8795 15.259C21.2349 15.259 21.6867 15.259 25 15.259ZM25 13C21.5361 13 21.2349 13 19.8795 13C18.5241 13 17.6205 13.3012 16.8675 13.6024C16.1145 13.9036 15.3614 14.3554 14.6084 15.1084C13.8554 15.8614 13.5542 16.4639 13.1024 17.3675C12.8012 18.1205 12.6506 19.0241 12.5 20.3795C12.5 21.7349 12.5 22.1867 12.5 25.5C12.5 28.9639 12.5 29.2651 12.5 30.6205C12.5 31.9759 12.8012 32.8795 13.1024 33.6325C13.4036 34.3855 13.8554 35.1386 14.6084 35.8916C15.3614 36.6446 15.9639 36.9458 16.8675 37.3976C17.6205 37.6988 18.5241 37.8494 19.8795 38C21.2349 38 21.6867 38 25 38C28.3133 38 28.7651 38 30.1205 38C31.4759 38 32.3795 37.6988 33.1325 37.3976C33.8855 37.0964 34.6386 36.6446 35.3916 35.8916C36.1446 35.1386 36.4458 34.5361 36.8976 33.6325C37.1988 32.8795 37.3494 31.9759 37.5 30.6205C37.5 29.2651 37.5 28.8133 37.5 25.5C37.5 22.1867 37.5 21.7349 37.5 20.3795C37.5 19.0241 37.1988 18.1205 36.8976 17.3675C36.5964 16.6145 36.1446 15.8614 35.3916 15.1084C34.6386 14.3554 34.0361 14.0542 33.1325 13.6024C32.3795 13.3012 31.4759 13.1506 30.1205 13C28.7651 13 28.4639 13 25 13Z" fill="#111827"/>
<path d="M25 19.0241C21.3855 19.0241 18.5241 21.8855 18.5241 25.5C18.5241 29.1145 21.3855 31.9759 25 31.9759C28.6145 31.9759 31.4759 29.1145 31.4759 25.5C31.4759 21.8855 28.6145 19.0241 25 19.0241ZM25 29.7169C22.741 29.7169 20.7831 27.9096 20.7831 25.5C20.7831 23.241 22.5904 21.2831 25 21.2831C27.259 21.2831 29.2169 23.0904 29.2169 25.5C29.2169 27.759 27.259 29.7169 25 29.7169Z" fill="#111827"/>
<path d="M31.6265 20.3795C32.4583 20.3795 33.1325 19.7052 33.1325 18.8735C33.1325 18.0417 32.4583 17.3675 31.6265 17.3675C30.7948 17.3675 30.1205 18.0417 30.1205 18.8735C30.1205 19.7052 30.7948 20.3795 31.6265 20.3795Z" fill="#111827"/>
</svg>
