<svg width="50" height="51" viewBox="0 0 50 51" fill="none" xmlns="http://www.w3.org/2000/svg">
<g id="socials">
<rect id="Rectangle 1" y="0.5" width="50" height="50" rx="8" fill="#F6F6F6"/>
<path id="Vector" fill-rule="evenodd" clip-rule="evenodd" d="M14.0781 34.321C13.5878 34.176 13.1404 33.9179 12.7737 33.5686C12.407 33.2193 12.1318 32.789 11.9712 32.314C11.0537 29.8592 10.7818 19.6087 12.5489 17.5851C13.137 16.9268 13.9674 16.5215 14.8597 16.4572C19.6003 15.9596 34.2468 16.0259 35.929 16.6231C36.4021 16.7729 36.8344 17.0253 37.1934 17.3614C37.5524 17.6975 37.8288 18.1085 38.0019 18.5637C39.0044 21.1015 39.0384 30.3236 37.866 32.7619C37.555 33.3966 37.0343 33.9107 36.3878 34.2215C34.6207 35.084 16.4229 35.0674 14.0781 34.321V34.321ZM21.6053 29.5109L30.101 25.1984L21.6053 20.8527V29.5109Z" fill="#111827"/>
</g>
</svg>
