<svg width="50" height="51" viewBox="0 0 50 51" fill="none" xmlns="http://www.w3.org/2000/svg">
<g id="socials">
<rect id="Rectangle 1" y="0.5" width="50" height="50" rx="8" fill="#F6F6F6"/>
<g id="Vector">
<path d="M32.7971 28.991C33.453 28.3351 33.5467 27.3981 32.9845 26.4611C32.516 25.7115 31.6726 25.3367 30.7356 25.5241C30.3608 25.6178 29.986 25.8052 29.6112 26.0863C26.7065 28.054 22.771 27.9603 19.8663 25.9926C19.6789 25.8989 19.4915 25.8052 19.3041 25.7115C18.2734 25.243 17.2427 25.4304 16.6804 26.3674C16.0245 27.3044 16.1182 28.3351 16.9615 29.1785C17.1084 29.3253 17.2553 29.4147 17.3571 29.5367C17.4133 29.6041 17.4617 29.6786 17.5238 29.7406V29.7406C18.4533 30.471 19.524 31.0132 20.8025 31.3671C21.4835 31.5557 21.7715 32.4268 21.2718 32.9265V32.9265C20.2411 33.9572 19.1167 35.0816 18.086 36.1123C17.8049 36.3934 17.43 36.8619 17.43 37.5179C17.43 38.1468 17.6907 38.7758 18.173 39.2104C18.5096 39.5136 18.9345 39.7476 19.3872 39.7643C19.4532 39.7667 19.5192 39.7667 19.5852 39.7667C20.0537 39.7667 20.6159 39.5793 20.9907 39.1108C22.3962 37.7053 23.5206 36.5808 24.6451 35.4564V35.4564C24.6685 35.433 24.8272 35.4074 24.8315 35.4403C24.8316 35.4416 24.8318 35.4428 24.8319 35.4441C24.8326 35.452 24.8354 35.4597 24.8406 35.4656C25.5882 36.3052 26.4281 37.0524 27.175 37.8927C27.5498 38.2675 27.9246 38.6423 28.2994 39.0171C28.7679 39.4856 29.1427 39.673 29.7049 39.673C30.5482 39.7667 31.4852 39.2045 31.86 38.3612C32.2349 37.6116 32.0474 36.6745 31.3915 36.1123C30.4545 35.1753 29.5175 34.1446 28.4868 33.2076V33.2076C27.8448 32.5656 28.2352 31.4403 29.0888 31.131C29.2337 31.0785 29.3769 31.0213 29.5175 30.9588C30.923 30.4903 31.9537 29.8343 32.7971 28.991Z" fill="#111827"/>
<path d="M24.7387 26.3674C28.7679 26.3674 32.0474 23.1815 32.0474 19.1524C32.0474 17.1847 31.2978 15.3107 29.8923 13.9051C28.4868 12.4996 26.7065 11.75 24.8325 11.75C20.8033 11.75 17.6175 15.0295 17.5237 18.965C17.5237 20.9327 18.2734 22.713 19.6789 24.1186C20.9907 25.6178 22.771 26.3674 24.7387 26.3674ZM22.6773 16.9973C23.2395 16.4351 23.9891 16.154 24.7387 16.154C26.4254 16.154 27.6435 17.4658 27.6435 19.0587C27.6435 20.7453 26.3317 21.9634 24.7387 21.9634C23.0521 21.9634 21.834 20.6516 21.834 19.0587C21.834 18.3091 22.1151 17.5595 22.6773 16.9973Z" fill="#111827"/>
<path d="M32.7971 28.991C33.453 28.3351 33.5467 27.3981 32.9845 26.4611C32.516 25.7115 31.6726 25.3367 30.7356 25.5241C30.3608 25.6178 29.986 25.8052 29.6112 26.0863C26.7065 28.054 22.771 27.9603 19.8663 25.9926C19.6789 25.8989 19.4915 25.8052 19.3041 25.7115C18.2734 25.243 17.2427 25.4304 16.6804 26.3674C16.0245 27.3044 16.1182 28.3351 16.9615 29.1785C17.1084 29.3253 17.2553 29.4147 17.3571 29.5367C17.4133 29.6041 17.4617 29.6786 17.5238 29.7406V29.7406C18.4533 30.471 19.524 31.0132 20.8025 31.3671C21.4835 31.5557 21.7715 32.4268 21.2718 32.9265V32.9265C20.2411 33.9572 19.1167 35.0816 18.086 36.1123C17.8049 36.3934 17.43 36.8619 17.43 37.5179C17.43 38.1468 17.6907 38.7758 18.173 39.2104C18.5096 39.5136 18.9345 39.7476 19.3872 39.7643C19.4532 39.7667 19.5192 39.7667 19.5852 39.7667C20.0537 39.7667 20.6159 39.5793 20.9907 39.1108C22.3962 37.7053 23.5206 36.5808 24.6451 35.4564V35.4564C24.6685 35.433 24.8272 35.4074 24.8315 35.4403C24.8316 35.4416 24.8318 35.4428 24.8319 35.4441C24.8326 35.452 24.8354 35.4597 24.8406 35.4656C25.5882 36.3052 26.4281 37.0524 27.175 37.8927C27.5498 38.2675 27.9246 38.6423 28.2994 39.0171C28.7679 39.4856 29.1427 39.673 29.7049 39.673C30.5482 39.7667 31.4852 39.2045 31.86 38.3612C32.2349 37.6116 32.0474 36.6745 31.3915 36.1123C30.4545 35.1753 29.5175 34.1446 28.4868 33.2076V33.2076C27.8448 32.5656 28.2352 31.4403 29.0888 31.131C29.2337 31.0785 29.3769 31.0213 29.5175 30.9588C30.923 30.4903 31.9537 29.8343 32.7971 28.991Z" fill="#111827"/>
</g>
</g>
</svg>
