<svg width="50" height="51" viewBox="0 0 50 51" fill="none" xmlns="http://www.w3.org/2000/svg">
<g id="socials">
<rect id="Rectangle 1" y="0.5" width="50" height="50" rx="8" fill="#F6F6F6"/>
<path id="Vector" d="M26.2281 34.25C16.8324 34.25 11.4733 27.6809 11.25 16.75H15.9564C16.111 24.773 19.5807 28.1714 22.329 28.8721V16.75H26.7606V23.6694C29.4745 23.3716 32.3259 20.2185 33.2878 16.75H37.7194C37.3569 18.5488 36.6344 20.2521 35.597 21.7531C34.5596 23.2542 33.2297 24.5208 31.6904 25.4737C33.4086 26.3444 34.9262 27.5769 36.1431 29.0897C37.36 30.6025 38.2485 32.3613 38.75 34.25H33.8718C33.4216 32.6095 32.5067 31.141 31.2417 30.0285C29.9767 28.9161 28.4179 28.2091 26.7606 27.9962V34.25H26.2281V34.25Z" fill="#111827"/>
</g>
</svg>
