<svg width="35" height="35" viewBox="0 0 35 35" fill="none" xmlns="http://www.w3.org/2000/svg">
<g id="socials">
<path id="bg" d="M35 8C35 3.58172 31.4183 0 27 0H8C3.58172 0 0 3.58172 0 8V27C0 31.4183 3.58172 35 8 35H27C31.4183 35 35 31.4183 35 27V8Z" fill="#F6F6F6"/>
<g id="Group 5">
<path id="google" fill-rule="evenodd" clip-rule="evenodd" d="M26.064 17.6989C26.064 17.0784 26.0083 16.4818 25.9049 15.9091H17.6639V19.2938H22.373C22.1702 20.3875 21.5537 21.3142 20.627 21.9347V24.1302H23.4549C25.1094 22.6069 26.064 20.3637 26.064 17.6989Z" fill="#111827"/>
<path id="google_2" fill-rule="evenodd" clip-rule="evenodd" d="M17.6636 26.25C20.0261 26.25 22.0068 25.4664 23.4545 24.1301L20.6266 21.9346C19.8431 22.4596 18.8408 22.7698 17.6636 22.7698C15.3846 22.7698 13.4556 21.2306 12.7675 19.1624H9.84424V21.4295C11.284 24.2892 14.2431 26.25 17.6636 26.25Z" fill="#111827"/>
<path id="google_3" fill-rule="evenodd" clip-rule="evenodd" d="M12.7679 19.1625C12.5929 18.6375 12.4935 18.0767 12.4935 17.5C12.4935 16.9233 12.5929 16.3625 12.7679 15.8375V13.5704H9.84462C9.25201 14.7517 8.91394 16.088 8.91394 17.5C8.91394 18.9119 9.25201 20.2483 9.84462 21.4295L12.7679 19.1625Z" fill="#111827"/>
<path id="google_4" fill-rule="evenodd" clip-rule="evenodd" d="M17.6636 12.2301C18.9482 12.2301 20.1016 12.6716 21.0085 13.5386L23.5181 11.029C22.0028 9.61705 20.0221 8.75 17.6636 8.75C14.2431 8.75 11.284 10.7108 9.84424 13.5705L12.7675 15.8375C13.4556 13.7693 15.3846 12.2301 17.6636 12.2301Z" fill="#111827"/>
</g>
</g>
</svg>
