<svg width="50" height="51" viewBox="0 0 50 51" fill="none" xmlns="http://www.w3.org/2000/svg">
<g id="socials">
<rect id="Rectangle 1" y="0.5" width="50" height="50" rx="8" fill="#F6F6F6"/>
<path id="Vector" d="M32.8174 12.4324C28.053 11.5225 23.1054 11.5225 18.341 12.4324C16.2336 12.8873 13.5766 15.4349 13.1185 17.4366C12.2938 21.349 12.2938 25.3523 13.1185 29.2647C13.6438 31.1774 16.0931 33.5885 18.0685 34.1961C18.2482 34.2513 18.5242 34.263 18.5242 34.4509V34.4509V40.183C18.5242 40.1997 18.5256 40.2161 18.5282 40.232C18.6066 40.7093 19.2438 40.1907 19.5814 39.8443L21.8114 37.5559C21.8189 37.5483 21.8252 37.5418 21.8327 37.5341C21.9933 37.3679 24.0358 35.2557 24.388 34.9059C24.3881 34.9059 24.3881 34.9059 24.3881 34.9058C24.39 34.904 24.4807 34.8149 24.5713 34.8149C27.32 34.9058 30.1603 34.6329 32.909 34.178C35.0164 33.723 37.6734 31.1754 38.1315 29.1737C38.9562 25.2614 38.9562 21.258 38.1315 17.3456C37.5818 15.4349 34.9247 12.8873 32.8174 12.4324ZM32.909 29.5377C32.4509 30.4475 31.9012 31.1754 30.9849 31.6304V31.6304C30.4462 31.8087 29.8662 31.8357 29.3274 31.6579C29.2995 31.6487 29.2718 31.6395 29.2441 31.6304C26.3122 30.4475 23.5635 28.8098 21.3645 26.4442C20.1734 25.0794 19.1656 23.5326 18.341 21.8949C17.9745 21.076 17.608 20.3481 17.3331 19.5293C17.0582 18.8014 17.5164 18.0735 17.9745 17.5276C18.4326 16.9817 18.9823 16.6177 19.6237 16.3448C20.0818 16.0718 20.5399 16.2538 20.9064 16.6177C21.6394 17.5276 22.3724 18.4374 22.9221 19.4383C23.1891 19.9023 23.213 20.4146 22.9582 20.8345C22.7551 21.1693 22.3754 21.346 22.0975 21.6219V21.6219C22.0059 21.7129 21.8226 21.8039 21.731 21.9859C21.5478 22.2588 21.5478 22.5318 21.6394 22.8048C22.3724 24.8974 23.7467 26.5352 25.8541 27.445C26.2205 27.627 26.4954 27.718 26.9535 27.718C27.5949 27.627 27.8698 26.8991 28.3279 26.5352C28.786 26.1712 29.3357 26.1712 29.8855 26.4442C30.3436 26.7171 30.8017 27.0811 31.3514 27.445C31.8096 27.809 32.2677 28.0819 32.7258 28.4459C33.0007 28.6278 33.0923 29.0828 32.909 29.5377ZM29.0609 22.7138C28.8776 22.7138 28.9692 22.7138 29.0609 22.7138C28.8841 22.7138 28.7713 22.6714 28.6916 22.597C28.5041 22.422 28.5283 22.1284 28.4916 21.8745V21.8745C28.4668 21.7024 28.4034 21.5348 28.3409 21.3726C28.2931 21.2487 28.232 21.1273 28.1536 21.0122C27.9499 20.7125 27.6149 20.54 27.2903 20.3789C27.2697 20.3686 27.249 20.3584 27.2284 20.3481C27.2194 20.3451 27.2104 20.3423 27.2016 20.3395C26.7503 20.1967 26.1289 20.1845 26.1289 19.7112V19.7112C26.1289 19.5293 26.4038 19.3473 26.587 19.3473C28.053 19.4383 29.1525 20.2572 29.3357 21.9859C29.3357 22.0769 29.3357 22.2588 29.3357 22.3498C29.3357 22.5318 29.2441 22.7138 29.0609 22.7138ZM28.1446 18.7104C27.8726 18.6023 27.6006 18.4943 27.3094 18.4053C26.8965 18.2791 26.4691 18.1645 26.0373 18.1645V18.1645C25.9302 18.1645 25.837 18.1368 25.7685 18.0869C25.5439 17.9232 25.6018 17.4886 25.8466 17.357V17.357C26.0132 17.2675 26.2241 17.3539 26.4119 17.3771C27.2166 17.4764 27.9555 17.6564 28.6944 17.9825C30.2612 18.7605 31.1665 20.0312 31.4887 21.7166C31.5228 21.8951 31.5347 22.0771 31.5347 22.2588V22.2588C31.5347 22.4408 31.5347 22.6228 31.5347 22.8957V22.8957C31.5347 23.077 31.5279 23.282 31.3797 23.3865C31.2534 23.4756 31.0776 23.5033 30.9364 23.4488C30.7027 23.3587 30.6185 23.0552 30.6185 22.8048V22.8048C30.6185 21.9859 30.4352 21.167 30.0687 20.4391C29.519 19.6203 28.8776 19.0743 28.1446 18.7104ZM33.0923 24.1695C32.8174 24.1695 32.6342 23.8966 32.6342 23.6236C32.6342 23.0777 32.5425 22.5318 32.4509 21.9859C32.0844 19.0743 29.7022 16.7087 26.8619 16.2538C26.7295 16.2275 26.5971 16.2088 26.4669 16.1933C25.8755 16.1229 24.9916 16.2854 24.8462 15.7079V15.7079C24.7546 15.4349 25.0294 15.162 25.3043 15.162C25.3342 15.162 25.364 15.162 25.3907 15.162C25.4553 15.162 25.5242 15.1628 25.5888 15.1644C29.1791 15.2513 25.6691 15.162 25.4876 15.162C29.3357 15.2529 32.5425 17.8005 33.1839 21.6219C33.242 22.0258 33.3001 22.4297 33.3348 22.8568C33.3754 23.3556 33.5927 24.1695 33.0923 24.1695V24.1695Z" fill="#111827"/>
</g>
</svg>
