<svg width="35" height="35" viewBox="0 0 35 35" fill="none" xmlns="http://www.w3.org/2000/svg">
<g id="socials">
<rect id="Rectangle 1" width="35" height="35" rx="8" fill="#F6F6F6"/>
<path id="Vector" d="M22.9722 8.35267C19.6371 7.71578 16.1738 7.71578 12.8387 8.35267C11.3635 8.67112 9.5036 10.4544 9.18292 11.8556C8.60569 14.5943 8.60569 17.3966 9.18292 20.1353C9.55063 21.4742 11.2652 23.162 12.648 23.5873C12.7737 23.6259 12.9669 23.6341 12.9669 23.7656V23.7656V27.7781V27.7781C12.9669 28.1396 13.4787 27.7752 13.731 27.5163L15.2646 25.9426C15.2721 25.9349 15.2785 25.9283 15.286 25.9206C15.4193 25.7827 16.827 24.327 17.0716 24.0842C17.0716 24.0841 17.0716 24.0841 17.0717 24.084C17.0735 24.0822 17.1367 24.0204 17.1999 24.0204C19.124 24.0841 21.1122 23.893 23.0363 23.5746C24.5115 23.2561 26.3714 21.4728 26.6921 20.0716C27.2693 17.333 27.2693 14.5306 26.6921 11.7919C26.3073 10.4544 24.4473 8.67112 22.9722 8.35267ZM23.0363 20.3264C22.7156 20.9633 22.3308 21.4728 21.6895 21.7913V21.7913C21.3124 21.9161 20.9064 21.935 20.5292 21.8105C20.5097 21.8041 20.4903 21.7977 20.4709 21.7913C18.4185 20.9633 16.4944 19.8169 14.9552 18.1609C14.1214 17.2056 13.4159 16.1228 12.8387 14.9764C12.5821 14.4032 12.3256 13.8937 12.1332 13.3205C11.9408 12.811 12.2615 12.3015 12.5821 11.9193C12.9028 11.5372 13.2876 11.2824 13.7366 11.0913C14.0573 10.9003 14.3779 11.0277 14.6345 11.2824C15.1476 11.9193 15.6607 12.5562 16.0455 13.2568C16.2324 13.5816 16.2491 13.9402 16.0707 14.2341C15.9286 14.4685 15.6628 14.5922 15.4683 14.7854V14.7854C15.4041 14.849 15.2758 14.9127 15.2117 15.0401C15.0834 15.2312 15.0834 15.4223 15.1476 15.6133C15.6607 17.0782 16.6227 18.2246 18.0978 18.8615C18.3544 18.9889 18.5468 19.0526 18.8675 19.0526C19.3164 18.9889 19.5088 18.4794 19.8295 18.2246C20.1502 17.9699 20.535 17.9699 20.9198 18.1609C21.2405 18.352 21.5612 18.6068 21.946 18.8615C22.2667 19.1163 22.5874 19.3073 22.908 19.5621C23.1005 19.6895 23.1646 20.0079 23.0363 20.3264ZM20.3426 15.5496C20.2143 15.5496 20.2785 15.5496 20.3426 15.5496C20.2189 15.5496 20.1399 15.52 20.0841 15.4679C19.9529 15.3454 19.9698 15.1398 19.9442 14.9621V14.9621C19.9267 14.8417 19.8824 14.7244 19.8386 14.6108C19.8052 14.5241 19.7624 14.4391 19.7076 14.3585C19.5649 14.1487 19.3304 14.028 19.1032 13.9152C19.0888 13.908 19.0743 13.9009 19.0599 13.8937C19.0536 13.8916 19.0473 13.8896 19.0411 13.8876C18.7252 13.7877 18.2902 13.7792 18.2902 13.4479V13.4479C18.2902 13.3205 18.4827 13.1931 18.6109 13.1931C19.6371 13.2568 20.4067 13.83 20.535 15.0401C20.535 15.1038 20.535 15.2312 20.535 15.2949C20.535 15.4223 20.4709 15.5496 20.3426 15.5496ZM19.7012 12.7473C19.5108 12.6716 19.3204 12.596 19.1166 12.5337C18.8275 12.4454 18.5284 12.3651 18.2261 12.3651V12.3651C18.1511 12.3651 18.0859 12.3458 18.038 12.3109C17.8807 12.1962 17.9213 11.8921 18.0926 11.7999V11.7999C18.2093 11.7372 18.3569 11.7977 18.4883 11.8139C19.0517 11.8835 19.5689 12.0095 20.0861 12.2378C21.1828 12.7823 21.8165 13.6718 22.0421 14.8516C22.066 14.9766 22.0743 15.104 22.0743 15.2312V15.2312C22.0743 15.3586 22.0743 15.4859 22.0743 15.677V15.677C22.0743 15.8039 22.0695 15.9474 21.9658 16.0205C21.8773 16.0829 21.7543 16.1023 21.6555 16.0642C21.4919 16.0011 21.4329 15.7886 21.4329 15.6133V15.6133C21.4329 15.0401 21.3046 14.4669 21.0481 13.9574C20.6633 13.3842 20.2143 13.002 19.7012 12.7473ZM23.1646 16.5687C22.9722 16.5687 22.8439 16.3776 22.8439 16.1865C22.8439 15.8044 22.7798 15.4223 22.7156 15.0401C22.4591 13.002 20.7916 11.3461 18.8033 11.0277C18.7107 11.0092 18.618 10.9962 18.5268 10.9853C18.1129 10.9361 17.4941 11.0498 17.3923 10.6455V10.6455C17.3282 10.4544 17.5206 10.2634 17.713 10.2634C17.7236 10.2634 17.7342 10.2634 17.7444 10.2634C17.809 10.2634 17.8772 10.2642 17.9417 10.2658C20.4059 10.3254 17.9679 10.2634 17.8413 10.2634C20.535 10.3271 22.7798 12.1104 23.2287 14.7854C23.2694 15.0681 23.3101 15.3508 23.3344 15.6498C23.3628 15.9989 23.5149 16.5687 23.1646 16.5687V16.5687Z" fill="#111827"/>
</g>
</svg>
