<svg width="35" height="35" viewBox="0 0 35 35" fill="none" xmlns="http://www.w3.org/2000/svg">
<g id="socials">
<rect id="Rectangle 1" width="35" height="35" rx="8" fill="#F6F6F6"/>
<path id="Vector" d="M18.9499 19.572C18.9499 18.604 19.7347 17.8192 20.7027 17.8192H20.7786C21.6003 17.8192 22.299 17.2197 22.4237 16.4076V16.4076C22.5786 15.3995 21.7986 14.4905 20.7786 14.4905H20.6898C19.7286 14.4905 18.9493 13.7112 18.9493 12.7499V12.6712C18.9493 11.2884 19.3984 10.0622 20.684 10.0622H21.1993C22.0557 10.0622 22.75 9.36791 22.75 8.51151V8.51151C22.75 7.73578 22.1773 7.07023 21.4026 7.02985C21.0604 7.01201 20.6525 7 20.1687 7C17.1397 7 15.3638 8.60939 15.3638 12.276V12.9336C15.3638 13.7934 14.6668 14.4905 13.8069 14.4905V14.4905C12.9471 14.4905 12.25 15.1875 12.25 16.0474V16.2623C12.25 17.1222 12.9471 17.8192 13.8069 17.8192V17.8192C14.6668 17.8192 15.3638 18.5163 15.3638 19.3761V25.0776C15.3638 26.1647 16.1592 27.125 17.2463 27.125V27.125V27.125C18.2258 27.125 18.9499 26.2653 18.9499 25.2859V19.572Z" fill="#111827"/>
</g>
</svg>
