<svg width="50" height="51" viewBox="0 0 50 51" fill="none" xmlns="http://www.w3.org/2000/svg">
<g id="socials">
<rect id="Rectangle 1" y="0.5" width="50" height="50" rx="8" fill="#F6F6F6"/>
<path id="Vector" d="M37.8977 26.8352C37.983 26.1534 38.0682 25.5568 38.0682 24.875C38.0682 18.0568 32.5284 12.4318 25.625 12.4318C24.9432 12.4318 24.3466 12.517 23.6648 12.6023C22.5568 12.0057 21.3636 11.75 20.1705 11.75C15.9091 11.75 12.5 15.1591 12.5 19.4205C12.5 20.6136 12.7557 21.8068 13.3523 22.9148C13.267 23.5966 13.1818 24.1932 13.1818 24.875C13.1818 31.6932 18.7216 37.3182 25.625 37.3182C26.3068 37.3182 26.9034 37.233 27.5852 37.1477C28.6932 37.6591 29.8864 38 31.0795 38C35.3409 38 38.75 34.5909 38.75 30.3295C38.75 29.1364 38.4091 27.9432 37.8977 26.8352ZM30.8239 29.392C30.5682 29.9034 30.2273 30.3295 29.7159 30.6705C29.2045 31.0114 28.6932 31.267 28.0114 31.4375C27.3295 31.608 26.5625 31.6932 25.7102 31.6932C23.9205 31.6932 22.4716 31.267 21.4489 30.5C20.8523 29.9886 20.3409 29.392 20.0852 28.625C19.7443 27.9432 20.3409 27.0909 21.1932 27.0909H21.4489C21.9602 27.0909 22.4716 27.4318 22.642 27.858C22.8125 28.2841 23.0682 28.625 23.4091 28.8807C23.9205 29.3068 24.6875 29.4773 25.625 29.4773C26.4773 29.4773 27.1591 29.3068 27.6705 29.0511C28.1818 28.7955 28.4375 28.2841 28.4375 27.7727C28.4375 27.517 28.3523 27.3466 28.267 27.1761C28.1818 27.0057 27.9261 26.8352 27.7557 26.75C27.5 26.5795 27.2443 26.4943 26.8182 26.4091C26.4773 26.3239 26.0511 26.1534 25.5398 26.0682L25.0284 25.8977C24.4318 25.7273 23.75 25.5568 23.2386 25.3864C22.642 25.2159 22.1307 24.9602 21.7045 24.7045C21.2784 24.4489 20.9375 24.108 20.6818 23.5966C20.4261 23.1705 20.3409 22.5739 20.3409 21.892C20.3409 21.2102 20.5114 20.6136 20.767 20.1023C21.0227 19.5909 21.4489 19.1648 21.875 18.9091C22.3864 18.5682 22.8977 18.3125 23.5795 18.2273C24.1761 18.0568 24.858 17.9716 25.625 17.9716C26.4773 17.9716 27.1591 18.0568 27.8409 18.2273C28.5227 18.3977 29.0341 18.6534 29.5455 19.0795C30.0568 19.4205 30.3977 19.8466 30.6534 20.4432C31.0795 21.2102 30.483 22.233 29.5455 22.233H29.2898C28.7784 22.233 28.3523 21.9773 28.0966 21.5511C27.9261 21.2955 27.7557 21.0398 27.5 20.7841C27.0739 20.4432 26.392 20.2727 25.625 20.2727C24.858 20.2727 24.2614 20.4432 23.8352 20.6989C23.4091 20.9545 23.2386 21.3807 23.2386 21.8068C23.2386 22.0625 23.3239 22.233 23.4091 22.4034C23.4943 22.5739 23.6648 22.7443 23.9205 22.8295C24.1761 22.9148 24.4318 23.0852 24.7727 23.1705C25.1136 23.2557 25.5398 23.3409 26.0511 23.5114C26.5625 23.5966 26.9886 23.767 27.5 23.8523C27.9261 23.9375 28.3523 24.108 28.7784 24.1932C29.2045 24.3636 29.5455 24.5341 29.8864 24.7045C30.2273 24.875 30.483 25.1307 30.7386 25.3864C30.9943 25.642 31.1648 25.983 31.25 26.3239C31.4205 26.6648 31.4205 27.1761 31.4205 27.6875C31.25 28.2841 31.0795 28.8807 30.8239 29.392Z" fill="#111827"/>
</g>
</svg>
