<svg width="35" height="35" viewBox="0 0 35 35" fill="none" xmlns="http://www.w3.org/2000/svg">
<g id="socials" clip-path="url(#clip0_4603_67791)">
<rect id="Rectangle 1" width="35" height="35" rx="8" fill="#F6F6F6"/>
<g id="Group 3">
<path id="Vector" d="M26.2294 12.4718C25.6257 12.4718 25.0279 12.3529 24.4702 12.1219C23.9125 11.8909 23.4057 11.5523 22.9789 11.1255C22.552 10.6986 22.2134 10.1919 21.9824 9.63414C21.7514 9.07643 21.6325 8.47867 21.6325 7.875H18.3483V20.7352C18.3477 21.3215 18.1625 21.8928 17.8191 22.368C17.4757 22.8433 16.9914 23.1983 16.4349 23.3829C15.8784 23.5676 15.2779 23.5723 14.7185 23.3966C14.1592 23.2209 13.6693 22.8736 13.3183 22.4039C12.9674 21.9342 12.7732 21.3659 12.7632 20.7797C12.7533 20.1935 12.9281 19.6189 13.2628 19.1376C13.5976 18.6563 14.0754 18.2925 14.6285 18.0979C15.1816 17.9032 15.7819 17.8876 16.3443 18.0532V14.8608C15.149 14.6996 13.933 14.9069 12.8586 15.455C11.7842 16.0032 10.9026 16.866 10.3315 17.9284C9.76043 18.9908 9.52704 20.2021 9.66251 21.4006C9.79798 22.5991 10.2959 23.7277 11.0897 24.6358C11.8835 25.5439 12.9354 26.1882 14.1051 26.4827C15.2747 26.7772 16.5063 26.7079 17.6355 26.2839C18.7647 25.86 19.7377 25.1017 20.4245 24.1102C21.1114 23.1188 21.4794 21.9414 21.4795 20.7352L21.5748 14.2347C22.9242 15.2253 24.555 15.7583 26.229 15.7559L26.2294 12.4718Z" fill="#111827"/>
</g>
</g>
<defs>
<clipPath id="clip0_4603_67791">
<rect width="35" height="35" fill="white"/>
</clipPath>
</defs>
</svg>
