<svg width="50" height="51" viewBox="0 0 50 51" fill="none" xmlns="http://www.w3.org/2000/svg">
<g id="socials">
<rect id="Rectangle 1" y="0.5" width="50" height="50" rx="8" fill="#F6F6F6"/>
<path id="Vector" d="M38.25 19.125C37.375 19.5 36.375 19.75 35.375 19.875C36.375 19.25 37.25 18.25 37.625 17.125C36.625 17.75 35.625 18.125 34.375 18.375C33.5 17.375 32.125 16.75 30.75 16.75C28 16.75 25.75 19 25.75 21.75C25.75 22.125 25.75 22.5 25.875 22.875C21.75 22.625 18 20.625 15.5 17.625C15.125 18.375 14.875 19.25 14.875 20.125C14.875 21.875 15.75 23.375 17.125 24.25C16.25 24.25 15.5 24 14.875 23.625C14.875 26 16.625 28.125 18.875 28.5C18.5 28.625 18 28.625 17.5 28.625C17.125 28.625 16.875 28.625 16.5 28.5C17.125 30.5 19 32 21.25 32C19.5 33.375 17.375 34.125 15 34.125C14.625 34.125 14.25 34.125 13.75 34C16 35.375 18.625 36.25 21.5 36.25C30.75 36.25 35.75 28.625 35.75 22V21.375C36.75 21 37.625 20.125 38.25 19.125Z" fill="#111827"/>
</g>
</svg>
