<svg width="35" height="35" viewBox="0 0 35 35" fill="none" xmlns="http://www.w3.org/2000/svg">
<g id="socials">
<path id="bg" d="M35 8C35 3.58172 31.4183 0 27 0H8C3.58172 0 0 3.58172 0 8V27C0 31.4183 3.58172 35 8 35H27C31.4183 35 35 31.4183 35 27V8Z" fill="#F6F6F6"/>
<path id="tumblr" d="M19.0181 26.25C16.3815 26.25 14.4261 24.8988 14.4261 21.658V16.4729H12.0312V13.6605C14.6678 12.9794 15.7663 10.7164 15.8872 8.75H18.6226V13.2101H21.8084V16.4729H18.6226V20.9879C18.6226 22.3391 19.3037 22.8115 20.3913 22.8115H21.9402V26.25H19.0181Z" fill="#111827"/>
</g>
</svg>
