<svg width="20" height="21" viewBox="0 0 20 21" fill="none" xmlns="http://www.w3.org/2000/svg">
<g id="Vector" filter="url(#filter0_i_4603_65219)">
<path d="M13.934 7.41409L15.8486 6.22657L16.1683 6.88033L16.7316 6.43186L17.2 7.28776L17.7538 6.6182L18.2981 7.67623L19.0134 5.35803C19.0988 5.08958 18.9343 4.81165 18.6589 4.75164L14.3264 3.80099C13.8327 3.69361 13.4086 3.39357 13.1428 2.9672C12.8295 2.46503 12.2915 2.13973 11.6997 2.09551L8.11402 1.83653L5.1455 0.525836C4.87017 0.408979 4.61382 0.712175 4.77206 0.961681L6.41139 3.50727C-1.84224 12.6095 5.91769 20.4768 5.91769 20.4768C12.5415 20.8684 18.4627 16.1689 18.4627 16.1689C17.9785 16.1563 15.2442 16.3805 14.8391 16.33C13.9973 17.1606 12.3073 18.5313 10.0097 18.9987C10.0097 18.9987 12.2472 18.0733 13.8738 16.1657C13.551 16.0899 13.263 16.0015 12.9972 15.9036C11.9054 16.4089 9.92742 17.0974 7.68995 16.8069C7.83236 16.7974 10.0603 16.6268 12.1111 15.4583C11.7788 15.2498 11.5193 15.0161 11.3104 14.7666C10.1015 15.0066 8.19314 15.1709 6.2405 14.4887C6.40823 14.5108 8.63937 14.8014 10.8863 14.0718C10.7249 13.7023 10.6743 13.3327 10.7059 12.9822C9.49701 12.9822 7.41778 12.7674 5.51894 11.5546C5.51894 11.5546 8.22795 12.619 11.0003 12.0852C11.725 10.8061 13.6238 10.1713 14.9404 11.5136C15.5227 12.1042 15.8771 12.6695 15.8771 12.6695C17.4025 11.662 17.9722 8.45317 17.9722 8.45317L17.0386 8.82585L16.8012 7.78677L15.7062 8.37421L15.3075 7.54989L14.3834 8.40895C14.1523 8.62687 13.7947 8.64582 13.5352 8.45633L11.1237 6.6561L13.2599 5.62333C13.5099 5.50647 13.8011 5.55385 13.9941 5.74651L14.0542 5.80335C14.222 5.96443 14.2853 6.21078 14.2188 6.43501L13.9371 7.41409H13.934ZM12.4307 4.19578C12.4307 4.19578 11.3231 3.29251 10.3325 3.01458L12.7535 3.52938L12.4307 4.19578Z" fill="url(#paint0_linear_4603_65219)"/>
<path d="M5.24044 3.33672L5.30057 3.41884C1.31933 8.59845 2.02572 14.5943 2.85046 16.4794C3.6752 18.3645 5.42778 20.4768 5.42778 20.4768C0.788599 18.7474 1.30406 15.6546 1.30406 15.6546L0.273139 16.5825C-0.757792 14.3144 1.46174 12.0536 1.46174 12.0536L0.069259 12.4263C-0.00669468 10.705 1.81936 9.07219 1.81936 9.07219L0.202178 9.11009C0.983868 7.25933 2.56307 6.07813 2.56307 6.07813L0.892091 5.56648C3.01879 3.63676 4.4904 3.32725 5.24044 3.33356V3.33672Z" fill="url(#paint1_linear_4603_65219)"/>
</g>
<defs>
<filter id="filter0_i_4603_65219" x="0" y="0.5" width="19.0361" height="20" filterUnits="userSpaceOnUse" color-interpolation-filters="sRGB">
<feFlood flood-opacity="0" result="BackgroundImageFix"/>
<feBlend mode="normal" in="SourceGraphic" in2="BackgroundImageFix" result="shape"/>
<feColorMatrix in="SourceAlpha" type="matrix" values="0 0 0 0 0 0 0 0 0 0 0 0 0 0 0 0 0 0 127 0" result="hardAlpha"/>
<feOffset dx="1" dy="1"/>
<feComposite in2="hardAlpha" operator="arithmetic" k2="-1" k3="1"/>
<feColorMatrix type="matrix" values="0 0 0 0 1 0 0 0 0 1 0 0 0 0 1 0 0 0 0.15 0"/>
<feBlend mode="normal" in2="shape" result="effect1_innerShadow_4603_65219"/>
</filter>
<linearGradient id="paint0_linear_4603_65219" x1="2.74736" y1="0.499999" x2="17.2834" y2="20.5" gradientUnits="userSpaceOnUse">
<stop stop-color="#C66FFF"/>
<stop offset="1" stop-color="#723CFF"/>
</linearGradient>
<linearGradient id="paint1_linear_4603_65219" x1="2.74736" y1="0.499999" x2="17.2834" y2="20.5" gradientUnits="userSpaceOnUse">
<stop stop-color="#C66FFF"/>
<stop offset="1" stop-color="#723CFF"/>
</linearGradient>
</defs>
</svg>
